<?xml version="1.0" encoding="UTF-8"?><svg id="a" xmlns="http://www.w3.org/2000/svg" width="1430.79688" height="665.57227" viewBox="0 0 1430.79688 665.57227"><defs><style>.b{stroke:#310638;}.b,.c,.d,.e{fill:none;stroke-width:4px;}.b,.c,.e{stroke-linecap:round;stroke-linejoin:round;}.c,.d{stroke:#67176d;}.d{stroke-miterlimit:10;}.e{stroke:#b156ba;}</style></defs><g><polygon points="119.37288 489.01139 7.37288 530.01139 7.37288 124.01139 119.37288 218.01139 119.37288 489.01139"/><polygon points="143.37288 489.01139 255.37288 530.01139 255.37288 124.01139 143.37288 218.01139 143.37288 489.01139"/></g><g><path d="M44.35335,665.57227v-98.8418h29.34406c3.91324,0,7.54588,1.69494,10.06079,4.3779,2.37635,2.54138,3.91324,5.93022,3.91324,9.7428v19.62718c0,6.91825-4.61183,12.42576-10.61966,13.41379v.70588c6.00783,.42373,12.01683,6.07181,12.01683,13.83855v23.01603c0,3.95314-1.6766,7.62413-4.33123,10.16551-2.51607,2.40082-5.86928,3.95416-9.64164,3.95416h-30.7424Zm29.34406-82.60346c0-1.8355-1.6766-3.5294-3.49293-3.5294h-11.87711v28.94625h11.87711c1.81632,0,3.49293-1.69494,3.49293-3.53043v-21.88641Zm1.39833,45.18459c0-3.67099-3.35437-7.05984-6.98701-7.05984h-9.78135v31.7708h13.27428c1.81632,0,3.49409-1.69494,3.49409-3.53043v-21.18053Z"/><path d="M124.35227,665.57227v-86.13286h-17.0207l-5-12.70893h59.06084l-5,12.70893h-17.0207v86.13286h-15.01945Z"/><path d="M189.04719,665.57227c-4.05179,0-7.26645-1.55335-9.78135-4.09472-2.65462-2.54138-4.19151-5.93022-4.19151-10.02495v-19.1207h13.97287v17.00203c0,1.8355,1.53689,3.53043,3.49409,3.53043h8.38418c1.81632,0,3.49293-1.69494,3.49293-3.53043v-16.3789c0-3.38884-1.95604-5.93125-3.49293-6.91927l-12.01799-8.04889c-7.12673-4.80061-13.83315-9.60121-13.83315-19.34401v-17.79169c0-4.09472,1.53689-7.48357,4.19151-10.02495,2.51491-2.5424,5.72956-4.09575,9.78135-4.09575h15.3712c3.91208,0,7.26645,1.55335,9.92107,4.23631,2.51491,2.54138,4.05296,5.93125,4.05296,9.88438v15.1207h-13.97403v-13.00305c0-1.8355-1.6766-3.5294-3.49293-3.5294h-8.38418c-1.81749,0-3.49409,1.69391-3.49409,3.5294v13.41482c0,3.5294,1.81632,5.93022,3.49409,7.05984l11.73739,7.48357c7.26645,4.80061,14.11375,10.16653,14.11375,20.05092v20.47465c0,3.95314-1.53805,7.34198-4.05296,9.88336-2.65462,2.68296-6.009,4.23631-9.92107,4.23631h-15.3712Z"/></g><g><polygon points="1414.66448 489.01139 1302.66448 530.01139 1302.66448 124.01139 1414.66448 218.01139 1414.66448 489.01139"/><polygon points="1166.27152 489.01139 1278.27152 530.01139 1278.27152 124.01139 1166.27152 218.01139 1166.27152 489.01139"/></g><g><path d="M1199.35618,665.57227l-2.19824-15.11328h-16.34961l-2.06055,15.11328h-14.28906l17.03711-96.17285h15.1123l17.03613,96.17285h-14.28809Zm-8.79297-61.8252l-1.09961-13.46484h-.82422l-1.09863,13.46484-4.94629,34.34668h12.77734l-4.80859-34.34668Z"/><path d="M1260.6472,665.57227l-11.40332-43.27832h-6.86914v43.27832h-13.73926v-96.17285h28.98926c3.57227,0,7.00684,1.51074,9.61719,3.98438,2.47266,2.47266,3.98438,5.90723,3.98438,9.75488v23.21875c0,4.12109-1.64844,7.28125-3.84668,9.61719-1.51172,1.37402-3.29785,2.47266-5.08398,3.02246l12.77734,46.5752h-14.42578Zm-3.16016-80.37305c0-1.78613-1.64844-3.43457-3.43457-3.43457h-11.67773v28.16504h11.54004c1.78613,0,3.43457-1.64941,3.57227-3.57227v-21.1582Z"/><path d="M1343.23314,665.57227v-50.14746l1.09863-21.57031h-.82422l-4.94629,23.35645-8.51758,34.62207h-11.2666l-8.51758-34.62207-4.94629-23.35645h-.82422l1.09863,21.57031v50.14746h-12.50195v-96.17285h17.44824l11.12891,45.47559,2.06055,14.15137h1.37402l2.06055-14.15137,11.12891-45.47559h17.44824v96.17285h-12.50195Z"/><path d="M1385.70189,665.57227v-43.41504l-17.03613-52.75781h13.87598l7.55664,28.16504,2.47363,8.79297h.82422l2.33496-8.79297,7.69434-28.16504h13.05176l-17.03613,52.89453v43.27832h-13.73926Z"/></g><g><path d="M.81543,3.3125c0-1.05566,.09668-1.91992,1.58496-1.91992,1.10352,0,1.43945,.67188,1.63184,1.63184l-.71973,33.93945c0,.0957,.0957,.33594,.28809,.33594h5.04004c.95996,0,1.67969,.86426,1.67969,1.63184,0,.67188-.52734,1.2959-1.77539,1.2959H1.3916c-.71973,0-1.3916-.71973-1.3916-1.2959L.81543,3.3125Z"/><path d="M10.99121,22.12988C10.99121,11.66504,11.71094,.76855,19.82422,.76855c.28711,0,.81543,0,1.15137,.04785,6.19238,.62402,8.11328,10.94531,8.11328,16.56152,0,6.52832-.91211,21.41016-8.11328,21.41016-7.63281,0-9.98438-8.11328-9.98438-16.6582Zm3.26367-.19141c0,7.10449,1.48828,13.96875,6.5293,13.96875,3.45605,0,4.94434-9.45703,4.94434-17.4248,0-3.79297-.09668-15.02539-5.95312-15.02539-5.13574,0-5.52051,11.95312-5.52051,18.48145Z"/><path d="M33.88672,21.55469v-1.39258c0-9.12109,2.40039-19.05762,8.83301-19.05762,2.97559,0,6.62402,1.77637,9.60059,5.80859,.0957,.0957,.14355,.24023,.14355,.33594,0,.62402-1.2959,1.05566-2.06348,1.05566-.7207,0-1.53613-.91211-2.20898-1.58398l-.57617-.57617c-.76758-.62402-1.87207-1.2002-2.87988-1.67969-.52832-.24023-1.34375-.43164-2.1123-.43164-.47949,0-1.00781,.14355-1.3916,.33594-.67188,.38379-1.15234,1.4873-1.53613,2.25586l-.28809,.57617c-1.68066,4.65625-2.20801,9.79297-2.20801,14.68945v.71973c0,2.97656,.47949,5.95215,1.15137,8.92871,.91211,2.49609,1.72852,4.80078,5.04102,4.80078,3.16797,0,4.89648-3.4082,5.32812-5.85645,.48047-2.54492,.76855-4.75293,.76855-7.29688v-1.00781c-.28809-.04883-.7207-.04883-1.10449-.04883h-1.44043c-1.63184,0-3.21582-.14355-3.21582-1.53613,0-.71973,.47949-1.4873,1.48828-1.4873h6.33594c.04785-.04883,.14453-.04883,.19238-.04883,.43164,0,1.44043,.57617,1.44043,1.9209,0,.19141-.04883,.52734-.09668,.71973-.43164,6.81641-2.06348,14.35352-6.28809,16.84961-1.10449,.47949-2.20801,.71973-3.4082,.71973-1.44043,0-2.92871-.33594-4.22461-.95996-5.08887-2.97656-5.28027-11.08887-5.28027-16.75293Z"/><path d="M57.98242,22.12988c0-10.46484,.71973-21.36133,8.83301-21.36133,.28809,0,.81543,0,1.15137,.04785,6.19238,.62402,8.11328,10.94531,8.11328,16.56152,0,6.52832-.91211,21.41016-8.11328,21.41016-7.63281,0-9.98438-8.11328-9.98438-16.6582Zm3.26367-.19141c0,7.10449,1.48828,13.96875,6.5293,13.96875,3.45605,0,4.94434-9.45703,4.94434-17.4248,0-3.79297-.09668-15.02539-5.95312-15.02539-5.13574,0-5.52051,11.95312-5.52051,18.48145Z"/><path d="M95.3252,6.5293c0-1.24805-.04785-2.68848-.04785-3.4082,0-2.68848,1.2002-2.73633,2.16016-2.73633h.43164c9.40918,0,14.06543,9.07227,14.06543,20.16113,0,6.28906-2.35254,12.33691-7.53613,16.27344-1.77637,1.39258-4.08105,2.97656-6.5293,2.97656-.95996,0-1.82422-.43164-2.44824-1.2002-.0957-8.1123-.0957-15.64941-.0957-32.06641Zm6.625,28.46582c4.75195-3.64844,6.62402-9.98438,6.62402-15.84082,0-4.75293-1.67969-12.14551-6.38477-14.68945-.86328-.43164-2.16016-.71973-3.12012-.71973h-.43164c-.14453,.14355-.24023,.86328-.24023,4.94434,0,.19141,.04785,10.32031,.24023,26.88184,0,.38379,.04785,.81641,.04785,.95996,1.05566,0,2.40039-.91211,3.26465-1.53613Z"/><path d="M116.7334,1.15234c0-.62402,2.25586-.62402,4.65625-.62402,2.97656,0,6.33691,.14453,6.33691,1.2959,0,.7207,0,1.68066-1.63281,1.68066h-.24023c-2.11133-.0957-3.83984-.04785-5.66406-.0957h-.24023v.81543c0,.67188-.04785,1.82422-.04785,4.65625,0,1.87207,0,4.46484,.0957,8.20898h2.06445c1.96875,0,4.89648,.19238,4.89648,1.72852,0,1.05566-1.24805,1.10352-2.1123,1.10352h-1.05566c-.52832,0-1.48828,0-3.4082,.04785l.14355,16.32227c.04785,.04785,.28809,.04785,1.39258,.04785h1.87207c1.96777,0,4.08008,.14355,4.08008,1.15137,0,.76855,0,2.0166-1.63184,2.0166h-7.63281c-.71973,0-1.34375-.62402-1.34375-1.2959-.52832-37.01172-.52832-37.05957-.52832-37.05957Z"/><path d="M133.48438,3.3125c0-1.05566,.09668-1.91992,1.58496-1.91992,1.10352,0,1.43945,.67188,1.63184,1.63184l-.71973,33.93945c0,.0957,.0957,.33594,.28809,.33594h5.04004c.95996,0,1.67969,.86426,1.67969,1.63184,0,.67188-.52734,1.2959-1.77539,1.2959h-7.15332c-.71973,0-1.3916-.71973-1.3916-1.2959l.81543-35.61914Z"/><path d="M162.1875,21.55469v-1.39258c0-9.12109,2.40039-19.05762,8.83301-19.05762,2.97559,0,6.62402,1.77637,9.60059,5.80859,.0957,.0957,.14355,.24023,.14355,.33594,0,.62402-1.2959,1.05566-2.06348,1.05566-.7207,0-1.53613-.91211-2.20898-1.58398l-.57617-.57617c-.76758-.62402-1.87207-1.2002-2.87988-1.67969-.52832-.24023-1.34375-.43164-2.1123-.43164-.47949,0-1.00781,.14355-1.3916,.33594-.67188,.38379-1.15234,1.4873-1.53613,2.25586l-.28809,.57617c-1.68066,4.65625-2.20801,9.79297-2.20801,14.68945v.71973c0,2.97656,.47949,5.95215,1.15137,8.92871,.91211,2.49609,1.72852,4.80078,5.04102,4.80078,3.16797,0,4.89648-3.4082,5.32812-5.85645,.48047-2.54492,.76855-4.75293,.76855-7.29688v-1.00781c-.28809-.04883-.7207-.04883-1.10449-.04883h-1.44043c-1.63184,0-3.21582-.14355-3.21582-1.53613,0-.71973,.47949-1.4873,1.48828-1.4873h6.33594c.04785-.04883,.14453-.04883,.19238-.04883,.43164,0,1.44043,.57617,1.44043,1.9209,0,.19141-.04883,.52734-.09668,.71973-.43164,6.81641-2.06348,14.35352-6.28809,16.84961-1.10449,.47949-2.20801,.71973-3.4082,.71973-1.44043,0-2.92871-.33594-4.22461-.95996-5.08887-2.97656-5.28027-11.08887-5.28027-16.75293Z"/><path d="M186.2832,2.54492c.24023-2.49609,1.24805-2.54492,2.5918-2.54492h.43262c7.00781,.86426,10.22461,5.56934,10.22461,10.56152,0,4.22461-1.39258,9.07227-6.48047,11.52051,2.16016,2.64062,4.22461,5.3291,6.33594,8.11328l4.08105,5.23242c.38379,.43164,.67188,.81543,.67188,1.48828,0,.67188-.62402,1.43945-1.48828,1.43945-.47949,0-1.10352-.33594-1.87207-1.10352l-10.80078-13.24902c.0957,4.89551,.28809,9.69629,.38379,14.59277,0,.81641-.86426,1.39258-1.72852,1.39258-.19141,0-1.34375,0-1.3916-.57617l-.0957-1.24805-.86426-35.61914Zm3.93652,17.2334c4.32031-1.39258,6.0957-4.99219,6.0957-8.64062,0-4.22461-2.06348-7.63281-6.81641-8.11328,.09668,.81641,.14453,2.44824,.24023,9.64941l.0957,6.67188c0,.28809,.14453,.43262,.38477,.43262Z"/><path d="M206.44336,19.92188c0-6.04785,.38379-12.19238,1.00781-18.19336,.24023-.48047,.81641-.71973,1.44043-.71973,.76758,0,1.53613,.43164,1.53613,1.34375,0,.14453,0,.28809-.04785,.38379l-.52832,20.97852v.19141c0,4.08105,.04785,12.86523,5.76074,12.86523,3.36035,0,4.46387-3.36035,4.46387-14.54492,.04785-20.35449,.48047-20.97852,1.34473-20.97852,.86328,0,1.77539,.7207,2.01562,2.0166-.04785,1.48828-.04785,3.07227-.04785,4.7041,0,3.93652,.0957,7.87305,.0957,12.48145,0,12.00098-.86426,19.29785-8.20801,19.29785-1.2002,0-2.44824-.28809-3.50488-.86426-5.32812-3.2168-5.32812-12.48145-5.32812-18.96191Z"/><path d="M228.71484,38.21191c.04785-2.73633,.09668-5.47266,.09668-8.20898,0-12.48145-.52832-24.29004-.52832-26.88184,0-1.29688,1.24805-2.35254,2.44824-2.35254,6.62402,0,11.37695,4.41602,11.37695,11.37695,0,6.19238-3.69629,12.625-10.17676,14.25684,0,3.60059,.0957,9.2168,.0957,12.81738,0,.33594-1.24805,.95996-1.53613,.95996-.86426,0-1.77637-.38379-1.77637-1.34375v-.62402Zm2.88086-14.7373c4.99219-1.05664,7.48828-6.33691,7.48828-10.94531,0-4.65625-2.35254-8.16016-7.29688-8.88086l-.24023,.19238v.76758l.04883,18.86621Z"/><path d="M244.65039,22.12988c0-10.46484,.71973-21.36133,8.83301-21.36133,.28809,0,.81543,0,1.15137,.04785,6.19238,.62402,8.11328,10.94531,8.11328,16.56152,0,6.52832-.91211,21.41016-8.11328,21.41016-7.63281,0-9.98438-8.11328-9.98438-16.6582Zm3.26367-.19141c0,7.10449,1.48828,13.96875,6.5293,13.96875,3.45605,0,4.94434-9.45703,4.94434-17.4248,0-3.79297-.09668-15.02539-5.95312-15.02539-5.13574,0-5.52051,11.95312-5.52051,18.48145Z"/></g><g><path d="M1150.95898,4.39404c0-1.05566,.0957-1.91992,1.58398-1.91992,1.10352,0,1.43945,.67188,1.63281,1.63184l-.7207,33.93945c0,.0957,.0957,.33594,.28906,.33594h5.03906c.96094,0,1.67969,.86426,1.67969,1.63184,0,.67188-.52734,1.2959-1.77539,1.2959h-7.15234c-.7207,0-1.39258-.71973-1.39258-1.2959l.81641-35.61914Z"/><path d="M1161.13477,23.21143c0-10.46484,.71875-21.36133,8.83203-21.36133,.28711,0,.81641,0,1.15234,.04785,6.19141,.62402,8.11328,10.94531,8.11328,16.56152,0,6.52832-.91211,21.41016-8.11328,21.41016-7.63281,0-9.98438-8.11328-9.98438-16.6582Zm3.26367-.19141c0,7.10449,1.48828,13.96875,6.5293,13.96875,3.45508,0,4.94336-9.45703,4.94336-17.4248,0-3.79297-.0957-15.02539-5.95312-15.02539-5.13477,0-5.51953,11.95312-5.51953,18.48145Z"/><path d="M1184.0293,22.63623v-1.39258c0-9.12109,2.40039-19.05762,8.83398-19.05762,2.97461,0,6.62305,1.77637,9.59961,5.80859,.0957,.0957,.14453,.24023,.14453,.33594,0,.62402-1.29688,1.05566-2.06445,1.05566-.7207,0-1.53516-.91211-2.20898-1.58398l-.57617-.57617c-.76758-.62402-1.87109-1.2002-2.87891-1.67969-.5293-.24023-1.34375-.43164-2.11328-.43164-.47852,0-1.00781,.14355-1.39062,.33594-.67188,.38379-1.15234,1.4873-1.53711,2.25586l-.28711,.57617c-1.68164,4.65625-2.20898,9.79297-2.20898,14.68945v.71973c0,2.97656,.48047,5.95215,1.15234,8.92871,.91211,2.49609,1.72852,4.80078,5.04102,4.80078,3.16797,0,4.89648-3.4082,5.32812-5.85645,.48047-2.54492,.76758-4.75293,.76758-7.29688v-1.00781c-.28711-.04883-.7207-.04883-1.10352-.04883h-1.44141c-1.63086,0-3.21484-.14355-3.21484-1.53613,0-.71973,.47852-1.4873,1.48828-1.4873h6.33594c.04688-.04883,.14453-.04883,.19141-.04883,.43164,0,1.44141,.57617,1.44141,1.9209,0,.19141-.04883,.52734-.09766,.71973-.43164,6.81641-2.0625,14.35352-6.28711,16.84961-1.10547,.47949-2.20898,.71973-3.4082,.71973-1.44141,0-2.92969-.33594-4.22461-.95996-5.08984-2.97656-5.28125-11.08887-5.28125-16.75293Z"/><path d="M1208.125,23.21143c0-10.46484,.7207-21.36133,8.83398-21.36133,.28711,0,.81445,0,1.15039,.04785,6.19336,.62402,8.11328,10.94531,8.11328,16.56152,0,6.52832-.91211,21.41016-8.11328,21.41016-7.63281,0-9.98438-8.11328-9.98438-16.6582Zm3.26367-.19141c0,7.10449,1.48828,13.96875,6.5293,13.96875,3.45703,0,4.94531-9.45703,4.94531-17.4248,0-3.79297-.09766-15.02539-5.95312-15.02539-5.13672,0-5.52148,11.95312-5.52148,18.48145Z"/><path d="M1245.46875,7.61084c0-1.24805-.04883-2.68848-.04883-3.4082,0-2.68848,1.20117-2.73633,2.16016-2.73633h.43164c9.41016,0,14.06641,9.07227,14.06641,20.16113,0,6.28906-2.35352,12.33691-7.53711,16.27344-1.77539,1.39258-4.08008,2.97656-6.5293,2.97656-.95898,0-1.82422-.43164-2.44727-1.2002-.0957-8.1123-.0957-15.64941-.0957-32.06641Zm6.625,28.46582c4.75195-3.64844,6.62305-9.98438,6.62305-15.84082,0-4.75293-1.67969-12.14551-6.38477-14.68945-.86328-.43164-2.16016-.71973-3.11914-.71973h-.43164c-.14453,.14355-.24023,.86328-.24023,4.94434,0,.19141,.04688,10.32031,.24023,26.88184,0,.38379,.04688,.81641,.04688,.95996,1.05664,0,2.40039-.91211,3.26562-1.53613Z"/><path d="M1266.87695,2.23389c0-.62402,2.25586-.62402,4.65625-.62402,2.97656,0,6.33594,.14453,6.33594,1.2959,0,.7207,0,1.68066-1.63281,1.68066h-.24023c-2.11133-.0957-3.83984-.04785-5.66406-.0957h-.24023v.81543c0,.67188-.04688,1.82422-.04688,4.65625,0,1.87207,0,4.46484,.0957,8.20898h2.06445c1.96875,0,4.89648,.19238,4.89648,1.72852,0,1.05566-1.24805,1.10352-2.11328,1.10352h-1.05469c-.5293,0-1.48828,0-3.4082,.04785l.14258,16.32227c.04883,.04785,.28906,.04785,1.39258,.04785h1.87305c1.9668,0,4.08008,.14355,4.08008,1.15137,0,.76855,0,2.0166-1.63281,2.0166h-7.63281c-.71875,0-1.34375-.62402-1.34375-1.2959-.52734-37.01172-.52734-37.05957-.52734-37.05957Z"/><path d="M1283.62695,4.39404c0-1.05566,.09766-1.91992,1.58594-1.91992,1.10352,0,1.43945,.67188,1.63086,1.63184l-.71875,33.93945c0,.0957,.0957,.33594,.28711,.33594h5.04102c.95898,0,1.67969,.86426,1.67969,1.63184,0,.67188-.52734,1.2959-1.77539,1.2959h-7.1543c-.71875,0-1.39062-.71973-1.39062-1.2959l.81445-35.61914Z"/><path d="M1312.42578,36.55713c0-5.13672-.04688-10.32129-.04688-15.50586,0-4.65625-.04883-10.99219-.04883-15.60059V3.43408c.33594-.91211,.81641-1.24805,1.82422-1.24805h.81641c1.72852,.04785,4.27148,.19238,6.38477,.33594,1.58398,.28809,1.67969,1.2002,1.67969,1.82422,0,.81641-1.00781,.91211-1.77539,.91211h-4.75391c-.14258,0-.47852,.04785-.67188,.04785l-.24023,.04785v1.34473c0,2.20801,0,3.83984,.14453,6.24023,0,.04785,0,.19238,.04883,.33594,0,.14453,.04688,.24023,.04688,.28809l.14453,.14453c.48047,0,.96094,.04785,1.48828,.04785,.81641,.04785,1.82422,.04785,3.2168,.04785,.81641,.04785,1.48828,.86426,1.48828,1.58398,0,1.34375-1.72852,1.58398-3.45703,1.58398-.96094,0-1.91992-.0957-2.54492-.0957-.23828,0-.38281,.04785-.67188,.04785v18.14551c0,1.39258,0,2.92871-.04688,4.32031-.28906,.91211-.81641,1.2959-1.48828,1.2959-1.00781,0-1.53711-.91211-1.53711-2.35156v-1.77637Z"/><path d="M1334.50781,39.05322c0-1.48828-.14453-3.36035-.28711-5.13672-.14453-1.87207-.33594-3.74414-.33594-5.32812,0-.0957,0-.24023-.04883-.24023h-.19141c-1.10547,0-2.16016,0-3.2168,.04785-1.00781,0-2.06445,.04785-3.12109,.04785-.24023,0-.43164,.09668-.52734,.24023,0,.19238-.0957,.52832-.0957,.7207-.33594,2.6875-.81641,7.24805-.91211,10.03223-.04883,.04785-.0957,.09668-.0957,.14453-.48047,.52734-.81641,.86426-1.53711,.86426-.81641,0-1.29492-.09668-1.58398-.96094,2.20898-16.70508,4.84961-36.5791,7.68164-38.11523,3.35938-.04785,6.0957,16.6582,7.15234,37.54004v.23926c0,.09668,.04688,.14453,.04688,.19238,0,1.24805-.76758,1.2959-1.43945,1.2959-.57617,0-1.15234-.28809-1.48828-.76758v-.81641Zm-3.93555-32.73926c-1.10547,3.84082-2.97656,17.80957-3.02539,19.10645,1.96875-.04883,3.74414-.19238,5.71289-.24023-.52734-5.9043-.86328-13.39355-2.6875-18.86621Z"/><path d="M1356.30078,38.38135c-6.00195-14.5459-7.20117-18.62598-11.04102-27.31445v.52832c0,.71973,.04688,2.30371,.19141,5.61621l.76758,21.74609c-.14453,.81543-1.10352,1.53613-1.87109,1.53613-.57617,0-1.00977-.24023-1.20117-.95996-.52734-9.40918-.81641-22.85059-.91211-34.46777V2.90576c.28906-.47949,1.24805-.67188,1.87305-.67188,.76758,0,1.10352,.38379,1.39062,.86426l.43359,.48047c.67188,1.67969,1.77539,4.7041,3.11914,8.49609,2.11328,6.04883,4.89648,13.63379,7.68164,20.5459l.19141-8.35254c.14453-6.33691,.38477-14.7373,.57617-20.20996,.04883-.86426,.48047-1.2002,1.39258-1.2002,.67188,0,1.67969,1.34473,1.67969,2.06445-.33594,1.87207-.86328,21.8418-.96094,30.29102,0,1.19922-.04688,2.49609-.04688,3.74414-1.05664,1.2002-1.77734,1.2959-1.77734,1.2959-.76758,0-.95898-.52832-1.48633-1.87207Z"/><path d="M1365.41797,7.61084c0-1.24805-.04688-2.68848-.04688-3.4082,0-2.68848,1.19922-2.73633,2.16016-2.73633h.43164c9.4082,0,14.06445,9.07227,14.06445,20.16113,0,6.28906-2.35156,12.33691-7.53711,16.27344-1.77539,1.39258-4.08008,2.97656-6.52734,2.97656-.96094,0-1.82422-.43164-2.44922-1.2002-.0957-8.1123-.0957-15.64941-.0957-32.06641Zm6.625,28.46582c4.75195-3.64844,6.625-9.98438,6.625-15.84082,0-4.75293-1.67969-12.14551-6.38477-14.68945-.86523-.43164-2.16016-.71973-3.12109-.71973h-.43164c-.14453,.14355-.24023,.86328-.24023,4.94434,0,.19141,.04883,10.32031,.24023,26.88184,0,.38379,.04883,.81641,.04883,.95996,1.05469,0,2.40039-.91211,3.26367-1.53613Z"/><path d="M1386.05859,23.21143c0-10.46484,.71875-21.36133,8.83203-21.36133,.28711,0,.81641,0,1.15234,.04785,6.19141,.62402,8.11328,10.94531,8.11328,16.56152,0,6.52832-.91211,21.41016-8.11328,21.41016-7.63281,0-9.98438-8.11328-9.98438-16.6582Zm3.26367-.19141c0,7.10449,1.48828,13.96875,6.5293,13.96875,3.45508,0,4.94336-9.45703,4.94336-17.4248,0-3.79297-.0957-15.02539-5.95312-15.02539-5.13477,0-5.51953,11.95312-5.51953,18.48145Z"/><path d="M1426.95508,9.91455l-7.15234,15.45703c-.62305,.81641-1.24805,2.06445-2.16016,2.06445-.76758,0-1.34375-.52832-1.72656-1.10352-.86523-2.1123-1.58594-4.32031-2.30469-6.57715-.86523-2.73633-1.82422-5.61621-3.02539-8.25684-.04688,.04785-.04688,.09668-.04688,2.30469s0,6.57617,.04688,15.16895c0,2.54395-.04688,5.4248-.04688,8.78516-.19336,.95996-.38477,1.91992-1.63281,1.91992-1.34375,0-1.48828-1.24805-1.48828-2.54395,.0957-1.77637,.0957-3.50488,.0957-5.66504,0-3.21582-.04688-7.2959-.04688-13.63281,0-4.80078-.04883-9.50488-.38477-13.8252,0-1.05664,1.53711-1.48828,2.40039-1.48828,.24023,0,.33594,0,.57617,.14453,1.10352,.81543,1.34375,1.58398,2.30469,4.51172l.14258,.52832c.86523,2.68848,2.30469,6.96094,5.18555,14.30566,0,.0957,.04688,.0957,.0957,.0957l.57617-1.24805c.86328-1.82422,2.64062-5.37695,8.35352-17.61816,.71875-1.53613,1.15039-1.87207,2.16016-1.87207,.57617,0,1.63086,1.05664,1.63086,1.72852V7.41846c0,5.4248,.04883,13.10547,.28906,32.16309,0,.57617-1.00781,1.2002-1.82422,1.2002-.48047,0-.91211-.19238-1.05664-.81641l-.96094-30.05078Z"/></g><g><g><polygon points="681.56947 311.25167 618.52768 334.32947 618.52768 105.80298 681.56947 158.71306 681.56947 311.25167"/><polygon points="695.07843 311.25167 758.12021 334.32947 758.12021 105.80298 695.07843 158.71306 695.07843 311.25167"/></g><g><polygon points="756.59573 532.22905 693.55394 555.30685 693.55394 326.78037 756.59573 379.69044 756.59573 532.22905"/><polygon points="616.78201 532.22905 679.8238 555.30685 679.8238 326.78037 616.78201 379.69044 616.78201 532.22905"/></g><polygon class="c" points="606.30096 81.01139 606.30096 540.39776 687.36914 573.01139 687.82839 148.87305 606.30096 81.01139"/><line class="d" x1="606.30096" y1="359.62503" x2="687.64609" y2="314.64556"/><polyline class="e" points="606.30096 81.01139 687.82839 148.87305 767.46006 81.01139 687.82839 148.87305 687.36914 573.01139"/><polyline class="b" points="687.36914 573.01139 767.46006 537.28299 767.46006 359.62503 688.30096 314.89776 687.36914 149.03412 768.43732 81.94321"/></g><g><path d="M534.91113,39.59521c-6.00098-14.5459-7.20117-18.62598-11.04102-27.31445v.52832c0,.71973,.04785,2.30371,.19141,5.61621l.76855,21.74609c-.14453,.81543-1.10449,1.53613-1.87207,1.53613-.57617,0-1.00879-.24023-1.2002-.95996-.52832-9.40918-.81641-22.85059-.91211-34.46777v-2.16016c.28809-.47949,1.24805-.67188,1.87207-.67188,.76758,0,1.10449,.38379,1.3916,.86426l.43262,.48047c.67188,1.67969,1.77637,4.7041,3.12012,8.49609,2.1123,6.04883,4.89648,13.63379,7.68066,20.5459l.19238-8.35254c.14355-6.33691,.38379-14.7373,.57617-20.20996,.04785-.86426,.47949-1.2002,1.3916-1.2002,.67188,0,1.68066,1.34473,1.68066,2.06445-.33691,1.87207-.86426,21.8418-.96094,30.29102,0,1.19922-.04785,2.49609-.04785,3.74414-1.05566,1.2002-1.77637,1.2959-1.77637,1.2959-.76758,0-.95996-.52832-1.4873-1.87207Z"/><path d="M543.98145,24.42529c0-10.46484,.71973-21.36133,8.83301-21.36133,.28711,0,.81543,0,1.15137,.04785,6.19238,.62402,8.11328,10.94531,8.11328,16.56152,0,6.52832-.91211,21.41016-8.11328,21.41016-7.63281,0-9.98438-8.11328-9.98438-16.6582Zm3.26367-.19141c0,7.10449,1.48828,13.96875,6.5293,13.96875,3.45605,0,4.94434-9.45703,4.94434-17.4248,0-3.79297-.09668-15.02539-5.95312-15.02539-5.13574,0-5.52051,11.95312-5.52051,18.48145Z"/><path d="M584.87891,11.12842l-7.15234,15.45703c-.62402,.81641-1.24805,2.06445-2.16016,2.06445-.76758,0-1.34375-.52832-1.72754-1.10352-.86426-2.1123-1.58496-4.32031-2.30469-6.57715-.86426-2.73633-1.82422-5.61621-3.02441-8.25684-.04785,.04785-.04785,.09668-.04785,2.30469s0,6.57617,.04785,15.16895c0,2.54395-.04785,5.4248-.04785,8.78516-.19238,.95996-.38379,1.91992-1.63184,1.91992-1.34473,0-1.48828-1.24805-1.48828-2.54395,.0957-1.77637,.0957-3.50488,.0957-5.66504,0-3.21582-.04785-7.2959-.04785-13.63281,0-4.80078-.04785-9.50488-.38379-13.8252,0-1.05664,1.53613-1.48828,2.40039-1.48828,.23926,0,.33594,0,.57617,.14453,1.10352,.81543,1.34375,1.58398,2.30371,4.51172l.14355,.52832c.86426,2.68848,2.30469,6.96094,5.18457,14.30566,0,.0957,.04785,.0957,.09668,.0957l.57617-1.24805c.86328-1.82422,2.63965-5.37695,8.35254-17.61816,.71973-1.53613,1.15137-1.87207,2.16016-1.87207,.57617,0,1.63184,1.05664,1.63184,1.72852v4.32031c0,5.4248,.04785,13.10547,.28809,32.16309,0,.57617-1.00781,1.2002-1.82422,1.2002-.47949,0-.91211-.19238-1.05566-.81641l-.96094-30.05078Z"/><path d="M593.66113,12.18506l-.14355-6.91309c.19141-1.87207,.86426-2.49609,2.06445-2.49609,4.55957,0,10.5127,1.15234,10.5127,6.81641,0,3.64844-2.06445,7.05664-5.18457,8.78516,0,.04785,.47949,.19141,.67188,.28809,4.80078,2.16016,8.1123,5.42383,8.1123,10.84863,0,5.71289-6.86426,12.04883-12.67285,12.04883-1.53613,0-2.83203-.81543-2.83203-2.49609,0-6.09668-.28809-16.56152-.52832-26.88184Zm3.4082,5.23242c2.30469,0,6.00098-3.36035,6.00098-8.0166v-.57617c-.19238-2.73633-4.46484-3.3125-5.37695-3.3125-.71973,0-1.05566,.62402-1.05566,1.3916v.33594l.43164,10.17773Zm.48047,21.02539c4.75195,0,8.92871-4.65625,8.92871-9.50488,0-3.60059-2.20801-5.61621-5.28027-7.00879-1.24805-.57617-2.83203-1.05566-4.12891-1.05566-.0957,0-.23926,.0957-.28809,.24023,0,2.16016,.09668,5.37598,.19238,7.53613,.0957,2.68848,.19238,5.37695,.19238,8.16113v1.53613l.38379,.0957Z"/><path d="M613.00586,4.84033c.24023-2.49609,1.24805-2.54492,2.5918-2.54492h.43262c7.00781,.86426,10.22461,5.56934,10.22461,10.56152,0,4.22461-1.39258,9.07227-6.48047,11.52051,2.16016,2.64062,4.22461,5.3291,6.33594,8.11328l4.08105,5.23242c.38379,.43164,.67188,.81543,.67188,1.48828,0,.67188-.62402,1.43945-1.48828,1.43945-.47949,0-1.10352-.33594-1.87207-1.10352l-10.80078-13.24902c.0957,4.89551,.28809,9.69629,.38379,14.59277,0,.81641-.86426,1.39258-1.72852,1.39258-.19141,0-1.34375,0-1.3916-.57617l-.0957-1.24805-.86426-35.61914Zm3.93652,17.2334c4.32031-1.39258,6.0957-4.99219,6.0957-8.64062,0-4.22461-2.06348-7.63281-6.81641-8.11328,.09668,.81641,.14453,2.44824,.24023,9.64941l.0957,6.67188c0,.28809,.14453,.43262,.38477,.43262Z"/><path d="M633.78906,3.44775c0-.62402,2.25586-.62402,4.65625-.62402,2.97656,0,6.33691,.14453,6.33691,1.2959,0,.7207,0,1.68066-1.63281,1.68066h-.23926c-2.1123-.0957-3.84082-.04785-5.66504-.0957h-.24023v.81543c0,.67188-.04785,1.82422-.04785,4.65625,0,1.87207,0,4.46484,.0957,8.20898h2.06445c1.96875,0,4.89648,.19238,4.89648,1.72852,0,1.05566-1.24805,1.10352-2.1123,1.10352h-1.05566c-.52832,0-1.48828,0-3.4082,.04785l.14355,16.32227c.04785,.04785,.28809,.04785,1.39258,.04785h1.87207c1.96777,0,4.08008,.14355,4.08008,1.15137,0,.76855,0,2.0166-1.63184,2.0166h-7.63281c-.71973,0-1.34375-.62402-1.34375-1.2959-.52832-37.01172-.52832-37.05957-.52832-37.05957Z"/><path d="M664.17188,8.82471c0-1.24805-.04785-2.68848-.04785-3.4082,0-2.68848,1.2002-2.73633,2.16016-2.73633h.43164c9.40918,0,14.06543,9.07227,14.06543,20.16113,0,6.28906-2.35254,12.33691-7.53711,16.27344-1.77539,1.39258-4.08008,2.97656-6.52832,2.97656-.95996,0-1.82422-.43164-2.44824-1.2002-.0957-8.1123-.0957-15.64941-.0957-32.06641Zm6.625,28.46582c4.75195-3.64844,6.62402-9.98438,6.62402-15.84082,0-4.75293-1.67969-12.14551-6.38477-14.68945-.86426-.43164-2.16016-.71973-3.12012-.71973h-.43164c-.14453,.14355-.24023,.86328-.24023,4.94434,0,.19141,.04785,10.32031,.24023,26.88184,0,.38379,.04785,.81641,.04785,.95996,1.05566,0,2.40039-.91211,3.26465-1.53613Z"/><path d="M685.58008,3.44775c0-.62402,2.25586-.62402,4.65625-.62402,2.97656,0,6.33691,.14453,6.33691,1.2959,0,.7207,0,1.68066-1.63281,1.68066h-.23926c-2.1123-.0957-3.84082-.04785-5.66504-.0957h-.24023v.81543c0,.67188-.04785,1.82422-.04785,4.65625,0,1.87207,0,4.46484,.0957,8.20898h2.06445c1.96875,0,4.89648,.19238,4.89648,1.72852,0,1.05566-1.24805,1.10352-2.1123,1.10352h-1.05566c-.52832,0-1.48828,0-3.4082,.04785l.14355,16.32227c.04785,.04785,.28809,.04785,1.39258,.04785h1.87207c1.96777,0,4.08008,.14355,4.08008,1.15137,0,.76855,0,2.0166-1.63184,2.0166h-7.63281c-.71973,0-1.34375-.62402-1.34375-1.2959-.52832-37.01172-.52832-37.05957-.52832-37.05957Z"/><path d="M716.72949,5.60791c0-1.05566,.09668-1.91992,1.58496-1.91992,1.10352,0,1.43945,.67188,1.63184,1.63184l-.71973,33.93945c0,.0957,.0957,.33594,.28809,.33594h5.04004c.95996,0,1.67969,.86426,1.67969,1.63184,0,.67188-.52734,1.2959-1.77539,1.2959h-7.15332c-.71973,0-1.3916-.71973-1.3916-1.2959l.81543-35.61914Z"/><path d="M741.11523,40.26709c0-1.48828-.14453-3.36035-.28809-5.13672-.14453-1.87207-.33594-3.74414-.33594-5.32812,0-.0957,0-.24023-.04785-.24023h-.19238c-1.10449,0-2.16016,0-3.2168,.04785-1.00781,0-2.06348,.04785-3.12012,.04785-.24023,0-.43164,.09668-.52734,.24023,0,.19238-.09668,.52832-.09668,.7207-.33594,2.6875-.81543,7.24805-.91211,10.03223-.04785,.04785-.0957,.09668-.0957,.14453-.48047,.52734-.81641,.86426-1.53613,.86426-.81641,0-1.2959-.09668-1.58398-.96094,2.20801-16.70508,4.84863-36.5791,7.68066-38.11523,3.36035-.04785,6.09668,16.6582,7.15234,37.54004v.23926c0,.09668,.04785,.14453,.04785,.19238,0,1.24805-.76758,1.2959-1.43945,1.2959-.57617,0-1.15234-.28809-1.48828-.76758v-.81641Zm-3.93652-32.73926c-1.10449,3.84082-2.97656,17.80957-3.02441,19.10645,1.96777-.04883,3.74414-.19238,5.71289-.24023-.52832-5.9043-.86426-13.39355-2.68848-18.86621Z"/><path d="M763.38477,12.18506l-.14355-6.91309c.19141-1.87207,.86426-2.49609,2.06445-2.49609,4.55957,0,10.5127,1.15234,10.5127,6.81641,0,3.64844-2.06445,7.05664-5.18457,8.78516,0,.04785,.47949,.19141,.67188,.28809,4.80078,2.16016,8.1123,5.42383,8.1123,10.84863,0,5.71289-6.86426,12.04883-12.67285,12.04883-1.53613,0-2.83203-.81543-2.83203-2.49609,0-6.09668-.28809-16.56152-.52832-26.88184Zm3.4082,5.23242c2.30469,0,6.00098-3.36035,6.00098-8.0166v-.57617c-.19238-2.73633-4.46484-3.3125-5.37695-3.3125-.71973,0-1.05566,.62402-1.05566,1.3916v.33594l.43164,10.17773Zm.48047,21.02539c4.75195,0,8.92871-4.65625,8.92871-9.50488,0-3.60059-2.20801-5.61621-5.28027-7.00879-1.24805-.57617-2.83203-1.05566-4.12891-1.05566-.0957,0-.23926,.0957-.28809,.24023,0,2.16016,.09668,5.37598,.19238,7.53613,.0957,2.68848,.19238,5.37695,.19238,8.16113v1.53613l.38379,.0957Z"/><path d="M793.53125,40.26709c0-1.48828-.14453-3.36035-.28809-5.13672-.14453-1.87207-.33594-3.74414-.33594-5.32812,0-.0957,0-.24023-.04785-.24023h-.19238c-1.10449,0-2.16016,0-3.2168,.04785-1.00781,0-2.06348,.04785-3.12012,.04785-.24023,0-.43164,.09668-.52734,.24023,0,.19238-.09668,.52832-.09668,.7207-.33594,2.6875-.81543,7.24805-.91211,10.03223-.04785,.04785-.0957,.09668-.0957,.14453-.48047,.52734-.81641,.86426-1.53613,.86426-.81641,0-1.2959-.09668-1.58398-.96094,2.20801-16.70508,4.84863-36.5791,7.68066-38.11523,3.36035-.04785,6.09668,16.6582,7.15234,37.54004v.23926c0,.09668,.04785,.14453,.04785,.19238,0,1.24805-.76758,1.2959-1.43945,1.2959-.57617,0-1.15234-.28809-1.48828-.76758v-.81641Zm-3.93652-32.73926c-1.10449,3.84082-2.97656,17.80957-3.02441,19.10645,1.96777-.04883,3.74414-.19238,5.71289-.24023-.52832-5.9043-.86426-13.39355-2.68848-18.86621Z"/><path d="M815.32227,39.59521c-6.00098-14.5459-7.20117-18.62598-11.04102-27.31445v.52832c0,.71973,.04785,2.30371,.19141,5.61621l.76855,21.74609c-.14453,.81543-1.10449,1.53613-1.87207,1.53613-.57617,0-1.00879-.24023-1.2002-.95996-.52832-9.40918-.81641-22.85059-.91211-34.46777v-2.16016c.28809-.47949,1.24805-.67188,1.87207-.67188,.76758,0,1.10352,.38379,1.3916,.86426l.43262,.48047c.67188,1.67969,1.77637,4.7041,3.12012,8.49609,2.1123,6.04883,4.89648,13.63379,7.68066,20.5459l.19238-8.35254c.14355-6.33691,.38379-14.7373,.5752-20.20996,.04883-.86426,.48047-1.2002,1.39258-1.2002,.67188,0,1.67969,1.34473,1.67969,2.06445-.33594,1.87207-.86328,21.8418-.95996,30.29102,0,1.19922-.04785,2.49609-.04785,3.74414-1.05566,1.2002-1.77637,1.2959-1.77637,1.2959-.76758,0-.95996-.52832-1.4873-1.87207Z"/><path d="M824.44043,8.82471c0-1.24805-.04785-2.68848-.04785-3.4082,0-2.68848,1.2002-2.73633,2.16016-2.73633h.43164c9.40918,0,14.06543,9.07227,14.06543,20.16113,0,6.28906-2.35254,12.33691-7.53613,16.27344-1.77637,1.39258-4.08105,2.97656-6.5293,2.97656-.95996,0-1.82422-.43164-2.44824-1.2002-.0957-8.1123-.0957-15.64941-.0957-32.06641Zm6.625,28.46582c4.75195-3.64844,6.62402-9.98438,6.62402-15.84082,0-4.75293-1.67969-12.14551-6.38477-14.68945-.86328-.43164-2.16016-.71973-3.12012-.71973h-.43164c-.14453,.14355-.24023,.86328-.24023,4.94434,0,.19141,.04785,10.32031,.24023,26.88184,0,.38379,.04785,.81641,.04785,.95996,1.05566,0,2.40039-.91211,3.26465-1.53613Z"/><path d="M854.77832,40.26709c0-1.48828-.14453-3.36035-.28809-5.13672-.14453-1.87207-.33594-3.74414-.33594-5.32812,0-.0957,0-.24023-.04785-.24023h-.19238c-1.10449,0-2.16016,0-3.2168,.04785-1.00781,0-2.06348,.04785-3.12012,.04785-.23926,0-.43164,.09668-.52734,.24023,0,.19238-.09668,.52832-.09668,.7207-.33594,2.6875-.81543,7.24805-.91211,10.03223-.04785,.04785-.0957,.09668-.0957,.14453-.48047,.52734-.81641,.86426-1.53613,.86426-.81641,0-1.2959-.09668-1.58398-.96094,2.20801-16.70508,4.84863-36.5791,7.68066-38.11523,3.36035-.04785,6.09668,16.6582,7.15234,37.54004v.23926c0,.09668,.04785,.14453,.04785,.19238,0,1.24805-.76758,1.2959-1.43945,1.2959-.57617,0-1.15234-.28809-1.48828-.76758v-.81641Zm-3.93652-32.73926c-1.10449,3.84082-2.97656,17.80957-3.02441,19.10645,1.96777-.04883,3.74414-.19238,5.71289-.24023-.52832-5.9043-.86426-13.39355-2.68848-18.86621Z"/></g><g><path d="M418.79102,635.42578c0-10.46484,.71973-21.36133,8.83301-21.36133,.28809,0,.81543,0,1.15137,.04785,6.19238,.62402,8.11328,10.94531,8.11328,16.56152,0,6.52832-.91211,21.41016-8.11328,21.41016-7.63281,0-9.98438-8.11328-9.98438-16.6582Zm3.26367-.19141c0,7.10449,1.48828,13.96875,6.5293,13.96875,3.45605,0,4.94434-9.45703,4.94434-17.4248,0-3.79297-.09668-15.02539-5.95312-15.02539-5.13574,0-5.52051,11.95312-5.52051,18.48145Z"/><path d="M456.08594,615.84082c.24023-2.49609,1.24805-2.54492,2.5918-2.54492h.43262c7.00781,.86426,10.22461,5.56934,10.22461,10.56152,0,4.22461-1.39258,9.07227-6.48047,11.52051,2.16016,2.64062,4.22461,5.3291,6.33594,8.11328l4.08105,5.23242c.38379,.43164,.67188,.81543,.67188,1.48828,0,.67188-.62402,1.43945-1.48828,1.43945-.47949,0-1.10352-.33594-1.87207-1.10352l-10.80078-13.24902c.0957,4.89551,.28809,9.69629,.38379,14.59277,0,.81641-.86426,1.39258-1.72852,1.39258-.19141,0-1.34375,0-1.3916-.57617l-.0957-1.24805-.86426-35.61914Zm3.93652,17.2334c4.32031-1.39258,6.0957-4.99219,6.0957-8.64062,0-4.22461-2.06348-7.63281-6.81641-8.11328,.09668,.81641,.14453,2.44824,.24023,9.64941l.0957,6.67188c0,.28809,.14453,.43262,.38477,.43262Z"/><path d="M476.87012,614.44824c0-.62402,2.25586-.62402,4.65625-.62402,2.97656,0,6.33691,.14453,6.33691,1.2959,0,.7207,0,1.68066-1.63281,1.68066h-.24023c-2.11133-.0957-3.83984-.04785-5.66406-.0957h-.24023v.81543c0,.67188-.04785,1.82422-.04785,4.65625,0,1.87207,0,4.46484,.0957,8.20898h2.06445c1.96875,0,4.89648,.19238,4.89648,1.72852,0,1.05566-1.24805,1.10352-2.1123,1.10352h-1.05566c-.52832,0-1.48828,0-3.4082,.04785l.14355,16.32227c.04785,.04785,.28809,.04785,1.39258,.04785h1.87207c1.96777,0,4.08008,.14355,4.08008,1.15137,0,.76855,0,2.0166-1.63184,2.0166h-7.63281c-.71973,0-1.34375-.62402-1.34375-1.2959-.52832-37.01172-.52832-37.05957-.52832-37.05957Z"/><path d="M493.23633,651.50781c.04785-2.73633,.09668-5.47266,.09668-8.20898,0-12.48145-.52832-24.29004-.52832-26.88184,0-1.29688,1.24805-2.35254,2.44824-2.35254,6.62402,0,11.37695,4.41602,11.37695,11.37695,0,6.19238-3.69629,12.625-10.17676,14.25684,0,3.60059,.0957,9.2168,.0957,12.81738,0,.33594-1.24805,.95996-1.53613,.95996-.86426,0-1.77637-.38379-1.77637-1.34375v-.62402Zm2.88086-14.7373c4.99219-1.05664,7.48828-6.33691,7.48828-10.94531,0-4.65625-2.35254-8.16016-7.29688-8.88086l-.24023,.19238v.76758l.04883,18.86621Z"/><path d="M509.55664,615.84082c.24023-2.49609,1.24805-2.54492,2.5918-2.54492h.43262c7.00781,.86426,10.22461,5.56934,10.22461,10.56152,0,4.22461-1.39258,9.07227-6.48047,11.52051,2.16016,2.64062,4.22461,5.3291,6.33594,8.11328l4.08105,5.23242c.38379,.43164,.67188,.81543,.67188,1.48828,0,.67188-.62402,1.43945-1.48828,1.43945-.47949,0-1.10352-.33594-1.87207-1.10352l-10.80078-13.24902c.0957,4.89551,.28809,9.69629,.38379,14.59277,0,.81641-.86426,1.39258-1.72852,1.39258-.19141,0-1.34375,0-1.3916-.57617l-.0957-1.24805-.86426-35.61914Zm3.93652,17.2334c4.32031-1.39258,6.0957-4.99219,6.0957-8.64062,0-4.22461-2.06348-7.63281-6.81641-8.11328,.09668,.81641,.14453,2.44824,.24023,9.64941l.0957,6.67188c0,.28809,.14453,.43262,.38477,.43262Z"/><path d="M530.34082,614.44824c0-.62402,2.25586-.62402,4.65625-.62402,2.97656,0,6.33691,.14453,6.33691,1.2959,0,.7207,0,1.68066-1.63281,1.68066h-.24023c-2.11133-.0957-3.83984-.04785-5.66406-.0957h-.24023v.81543c0,.67188-.04785,1.82422-.04785,4.65625,0,1.87207,0,4.46484,.0957,8.20898h2.06445c1.96875,0,4.89648,.19238,4.89648,1.72852,0,1.05566-1.24805,1.10352-2.1123,1.10352h-1.05566c-.52832,0-1.48828,0-3.4082,.04785l.14355,16.32227c.04785,.04785,.28809,.04785,1.39258,.04785h1.87207c1.96777,0,4.08008,.14355,4.08008,1.15137,0,.76855,0,2.0166-1.63184,2.0166h-7.63281c-.71973,0-1.34375-.62402-1.34375-1.2959-.52832-37.01172-.52832-37.05957-.52832-37.05957Z"/><path d="M547.76465,645.79492c1.10449,0,1.82422,.81641,2.54492,1.68066l.14355,.19141c.81641,1.05664,1.63184,1.48828,2.40039,1.48828,2.68848,0,3.55273-2.49609,3.55273-5.23242,0-4.5127-2.16113-7.87305-4.80078-11.56934-2.59277-3.59961-5.52051-7.72852-5.85645-11.76074v-.47949c0-3.2168,1.58398-6.625,5.80859-6.625,2.44824,0,5.80859,1.00781,6.09668,3.45605,0,1.05664-.57617,1.48828-1.24805,1.48828-.57617,0-1.2002-.28809-1.68066-.71973-1.00781-.95996-1.63184-1.39258-3.16797-1.39258-1.77637,0-2.35254,1.58398-2.35254,3.4082,0,1.58398,.48047,3.4082,1.05664,4.36914l.0957,.19141c.95996,1.68066,2.63965,4.5127,3.07227,5.08887,5.04004,7.2002,6.24023,9.88867,6.24023,13.68066-.38379,4.41699-2.54395,8.88086-6.38477,8.88086-3.16797,0-4.99219-1.3916-6.91211-4.12793-.14453-.24023-.24023-.52832-.24023-.86426,0-.81641,.71973-1.15234,1.63184-1.15234Z"/><path d="M564.46875,614.44824c0-.62402,2.25586-.62402,4.65625-.62402,2.97656,0,6.33691,.14453,6.33691,1.2959,0,.7207,0,1.68066-1.63281,1.68066h-.23926c-2.1123-.0957-3.84082-.04785-5.66504-.0957h-.24023v.81543c0,.67188-.04785,1.82422-.04785,4.65625,0,1.87207,0,4.46484,.0957,8.20898h2.06445c1.96875,0,4.89648,.19238,4.89648,1.72852,0,1.05566-1.24805,1.10352-2.1123,1.10352h-1.05566c-.52832,0-1.48828,0-3.4082,.04785l.14355,16.32227c.04785,.04785,.28809,.04785,1.39258,.04785h1.87207c1.96777,0,4.08008,.14355,4.08008,1.15137,0,.76855,0,2.0166-1.63184,2.0166h-7.63281c-.71973,0-1.34375-.62402-1.34375-1.2959-.52832-37.01172-.52832-37.05957-.52832-37.05957Z"/><path d="M594.46973,650.5957c-6.00098-14.5459-7.20117-18.62598-11.04102-27.31445v.52832c0,.71973,.04785,2.30371,.19141,5.61621l.76855,21.74609c-.14453,.81543-1.10449,1.53613-1.87207,1.53613-.57617,0-1.00879-.24023-1.2002-.95996-.52832-9.40918-.81641-22.85059-.91211-34.46777v-2.16016c.28809-.47949,1.24805-.67188,1.87207-.67188,.76758,0,1.10449,.38379,1.3916,.86426l.43262,.48047c.67188,1.67969,1.77637,4.7041,3.12012,8.49609,2.1123,6.04883,4.89648,13.63379,7.68066,20.5459l.19238-8.35254c.14355-6.33691,.38379-14.7373,.57617-20.20996,.04785-.86426,.47949-1.2002,1.3916-1.2002,.67188,0,1.68066,1.34473,1.68066,2.06445-.33691,1.87207-.86426,21.8418-.96094,30.29102,0,1.19922-.04785,2.49609-.04785,3.74414-1.05566,1.2002-1.77637,1.2959-1.77637,1.2959-.76758,0-.95996-.52832-1.4873-1.87207Z"/><path d="M608.10156,634.32227c0-5.95312-.04785-11.76074-.33594-16.41797l-.14453-.14355h-3.8877c-1.05664,0-2.06445-.71973-2.06445-1.72852,.33594-.71973,1.44043-1.2002,5.18457-1.2002h3.74414c3.26367,0,6.96094,0,6.96094,1.48828,0,1.34473-2.30469,1.44043-4.17676,1.53613-1.2002,.04785-2.16016,.14453-2.1123,.43262,.14453,32.16211,.14453,32.21094,.14453,32.25879,0,.81543-.86426,1.3916-1.72852,1.3916-.76855,0-1.63184-.52832-1.63184-1.58398,0-5.04004,.04785-10.60938,.04785-16.0332Z"/><path d="M630.18164,651.26758c0-1.48828-.14453-3.36035-.28809-5.13672-.14453-1.87207-.33594-3.74414-.33594-5.32812,0-.0957,0-.24023-.04785-.24023h-.19238c-1.10449,0-2.16016,0-3.2168,.04785-1.00781,0-2.06348,.04785-3.12012,.04785-.24023,0-.43164,.09668-.52734,.24023,0,.19238-.09668,.52832-.09668,.7207-.33594,2.6875-.81543,7.24805-.91211,10.03223-.04785,.04785-.0957,.09668-.0957,.14453-.48047,.52734-.81641,.86426-1.53613,.86426-.81641,0-1.2959-.09668-1.58398-.96094,2.20801-16.70508,4.84863-36.5791,7.68066-38.11523,3.36035-.04785,6.09668,16.6582,7.15234,37.54004v.23926c0,.09668,.04785,.14453,.04785,.19238,0,1.24805-.76758,1.2959-1.43945,1.2959-.57617,0-1.15234-.28809-1.48828-.76758v-.81641Zm-3.93652-32.73926c-1.10449,3.84082-2.97656,17.80957-3.02441,19.10645,1.96777-.04883,3.74414-.19238,5.71289-.24023-.52832-5.9043-.86426-13.39355-2.68848-18.86621Z"/><path d="M636.4209,634.99414c0-2.73633,.14355-5.66406,.38379-8.40039,.33594-3.88867,2.25586-12.0498,7.20117-12.0498,2.6875,0,4.65625,1.39258,6.0957,3.55273,.33594,.57617,.67285,1.24805,.67285,1.91992,0,1.00879-.62402,1.24805-1.53613,1.24805-.67285,0-1.2002-.76758-1.72852-1.63184-.71973-1.10449-1.48828-2.25586-2.78418-2.25586-2.59277,0-3.55273,3.21582-4.03223,5.32812-1.10449,4.6084-1.15234,9.36133-1.15234,14.54492,0,5.23242,.57617,12.48145,4.27246,12.48145,1.91992,0,2.92773-1.58398,3.79199-2.87988,.62402-1.05664,1.24805-1.9209,2.06445-1.9209,.57617,0,1.63184,1.63281,1.63184,1.77637,0,.04785,0,.19238-.04785,.28809l-.43164,.57617c-1.72852,2.40039-3.69629,5.13672-7.00879,5.13672-1.39258,0-2.25586-.43262-3.4082-1.05664-1.72852-1.15137-2.97656-3.4082-3.2168-5.47266-.52734-3.79199-.76758-7.48828-.76758-11.18457Z"/><path d="M656.19531,616.12891c0-.81641,.81641-1.39258,1.68066-1.39258,1.05566,0,1.34375,.48047,1.72754,1.34375v27.9873c0,2.39941,0,4.89551,.04785,7.44043,0,.47949-1.4873,1.24805-1.91992,1.24805-.91211,0-1.63184-.43262-1.63184-1.44043l.0957-35.18652Z"/><path d="M664.45215,635.42578c0-10.46484,.71973-21.36133,8.83301-21.36133,.28711,0,.81543,0,1.15137,.04785,6.19238,.62402,8.11328,10.94531,8.11328,16.56152,0,6.52832-.91211,21.41016-8.11328,21.41016-7.63281,0-9.98438-8.11328-9.98438-16.6582Zm3.26367-.19141c0,7.10449,1.48828,13.96875,6.5293,13.96875,3.45605,0,4.94434-9.45703,4.94434-17.4248,0-3.79297-.09668-15.02539-5.95312-15.02539-5.13574,0-5.52051,11.95312-5.52051,18.48145Z"/><path d="M701.41309,650.5957c-6.00098-14.5459-7.20117-18.62598-11.04102-27.31445v.52832c0,.71973,.04785,2.30371,.19141,5.61621l.76855,21.74609c-.14453,.81543-1.10449,1.53613-1.87207,1.53613-.57617,0-1.00879-.24023-1.2002-.95996-.52832-9.40918-.81641-22.85059-.91211-34.46777v-2.16016c.28809-.47949,1.24805-.67188,1.87207-.67188,.76758,0,1.10449,.38379,1.3916,.86426l.43262,.48047c.67188,1.67969,1.77637,4.7041,3.12012,8.49609,2.1123,6.04883,4.89648,13.63379,7.68066,20.5459l.19238-8.35254c.14355-6.33691,.38379-14.7373,.57617-20.20996,.04785-.86426,.47949-1.2002,1.3916-1.2002,.67188,0,1.68066,1.34473,1.68066,2.06445-.33691,1.87207-.86426,21.8418-.96094,30.29102,0,1.19922-.04785,2.49609-.04785,3.74414-1.05566,1.2002-1.77637,1.2959-1.77637,1.2959-.76758,0-.95996-.52832-1.4873-1.87207Z"/><path d="M724.93066,619.8252c0-1.24805-.04785-2.68848-.04785-3.4082,0-2.68848,1.2002-2.73633,2.16016-2.73633h.43164c9.40918,0,14.06543,9.07227,14.06543,20.16113,0,6.28906-2.35254,12.33691-7.53613,16.27344-1.77637,1.39258-4.08105,2.97656-6.5293,2.97656-.95996,0-1.82422-.43164-2.44824-1.2002-.0957-8.1123-.0957-15.64941-.0957-32.06641Zm6.625,28.46582c4.75195-3.64844,6.62402-9.98438,6.62402-15.84082,0-4.75293-1.67969-12.14551-6.38477-14.68945-.86328-.43164-2.16016-.71973-3.12012-.71973h-.43164c-.14453,.14355-.24023,.86328-.24023,4.94434,0,.19141,.04785,10.32031,.24023,26.88184,0,.38379,.04785,.81641,.04785,.95996,1.05566,0,2.40039-.91211,3.26465-1.53613Z"/><path d="M746.33789,614.44824c0-.62402,2.25586-.62402,4.65625-.62402,2.97656,0,6.33691,.14453,6.33691,1.2959,0,.7207,0,1.68066-1.63281,1.68066h-.23926c-2.1123-.0957-3.84082-.04785-5.66504-.0957h-.24023v.81543c0,.67188-.04785,1.82422-.04785,4.65625,0,1.87207,0,4.46484,.0957,8.20898h2.06445c1.96875,0,4.89648,.19238,4.89648,1.72852,0,1.05566-1.24805,1.10352-2.1123,1.10352h-1.05566c-.52832,0-1.48828,0-3.4082,.04785l.14355,16.32227c.04785,.04785,.28809,.04785,1.39258,.04785h1.87207c1.96777,0,4.08008,.14355,4.08008,1.15137,0,.76855,0,2.0166-1.63184,2.0166h-7.63281c-.71973,0-1.34375-.62402-1.34375-1.2959-.52832-37.01172-.52832-37.05957-.52832-37.05957Z"/><path d="M776.67285,633.21777c0-6.04785,.38379-12.19238,1.00781-18.19336,.24023-.48047,.81641-.71973,1.44043-.71973,.76758,0,1.53613,.43164,1.53613,1.34375,0,.14453,0,.28809-.04785,.38379l-.52832,20.97852v.19141c0,4.08105,.04785,12.86523,5.76074,12.86523,3.36035,0,4.46387-3.36035,4.46387-14.54492,.04785-20.35449,.48047-20.97852,1.34473-20.97852,.86328,0,1.77539,.7207,2.01562,2.0166-.04785,1.48828-.04785,3.07227-.04785,4.7041,0,3.93652,.0957,7.87305,.0957,12.48145,0,12.00098-.86426,19.29785-8.20801,19.29785-1.2002,0-2.44824-.28809-3.50488-.86426-5.32812-3.2168-5.32812-12.48145-5.32812-18.96191Z"/><path d="M812.57715,650.5957c-6.00098-14.5459-7.20117-18.62598-11.04102-27.31445v.52832c0,.71973,.04785,2.30371,.19141,5.61621l.76855,21.74609c-.14453,.81543-1.10449,1.53613-1.87207,1.53613-.57617,0-1.00879-.24023-1.2002-.95996-.52832-9.40918-.81641-22.85059-.91211-34.46777v-2.16016c.28809-.47949,1.24805-.67188,1.87207-.67188,.76758,0,1.10449,.38379,1.3916,.86426l.43262,.48047c.67188,1.67969,1.77637,4.7041,3.12012,8.49609,2.1123,6.04883,4.89648,13.63379,7.68066,20.5459l.19238-8.35254c.14355-6.33691,.38379-14.7373,.57617-20.20996,.04785-.86426,.47949-1.2002,1.3916-1.2002,.67188,0,1.68066,1.34473,1.68066,2.06445-.33691,1.87207-.86426,21.8418-.96094,30.29102,0,1.19922-.04785,2.49609-.04785,3.74414-1.05566,1.2002-1.77637,1.2959-1.77637,1.2959-.76758,0-.95996-.52832-1.4873-1.87207Z"/><path d="M836.04688,614.44824c0-.62402,2.25586-.62402,4.65625-.62402,2.97656,0,6.33691,.14453,6.33691,1.2959,0,.7207,0,1.68066-1.63281,1.68066h-.23926c-2.1123-.0957-3.84082-.04785-5.66504-.0957h-.24023v.81543c0,.67188-.04785,1.82422-.04785,4.65625,0,1.87207,0,4.46484,.0957,8.20898h2.06445c1.96875,0,4.89648,.19238,4.89648,1.72852,0,1.05566-1.24805,1.10352-2.1123,1.10352h-1.05566c-.52832,0-1.48828,0-3.4082,.04785l.14355,16.32227c.04785,.04785,.28809,.04785,1.39258,.04785h1.87207c1.96777,0,4.08008,.14355,4.08008,1.15137,0,.76855,0,2.0166-1.63184,2.0166h-7.63281c-.71973,0-1.34375-.62402-1.34375-1.2959-.52832-37.01172-.52832-37.05957-.52832-37.05957Z"/><path d="M853.4707,645.79492c1.10449,0,1.82422,.81641,2.54492,1.68066l.14355,.19141c.81641,1.05664,1.63184,1.48828,2.40039,1.48828,2.68848,0,3.55176-2.49609,3.55176-5.23242,0-4.5127-2.16016-7.87305-4.7998-11.56934-2.59277-3.59961-5.52051-7.72852-5.85645-11.76074v-.47949c0-3.2168,1.58398-6.625,5.80859-6.625,2.44824,0,5.80859,1.00781,6.09668,3.45605,0,1.05664-.57617,1.48828-1.24902,1.48828-.5752,0-1.19922-.28809-1.67969-.71973-1.00781-.95996-1.63184-1.39258-3.16797-1.39258-1.77637,0-2.35254,1.58398-2.35254,3.4082,0,1.58398,.48047,3.4082,1.05566,4.36914l.09668,.19141c.95996,1.68066,2.63965,4.5127,3.07227,5.08887,5.04004,7.2002,6.24023,9.88867,6.24023,13.68066-.38379,4.41699-2.54395,8.88086-6.38477,8.88086-3.16797,0-4.99219-1.3916-6.91211-4.12793-.14453-.24023-.24023-.52832-.24023-.86426,0-.81641,.71973-1.15234,1.63184-1.15234Z"/><path d="M869.4082,634.99414c0-2.73633,.14355-5.66406,.38379-8.40039,.33594-3.88867,2.25586-12.0498,7.2002-12.0498,2.68848,0,4.65723,1.39258,6.09668,3.55273,.33594,.57617,.67285,1.24805,.67285,1.91992,0,1.00879-.625,1.24805-1.53613,1.24805-.67285,0-1.2002-.76758-1.72852-1.63184-.71973-1.10449-1.48828-2.25586-2.78418-2.25586-2.59277,0-3.55273,3.21582-4.03223,5.32812-1.10449,4.6084-1.15234,9.36133-1.15234,14.54492,0,5.23242,.57617,12.48145,4.27246,12.48145,1.91992,0,2.92773-1.58398,3.79199-2.87988,.62402-1.05664,1.24805-1.9209,2.06445-1.9209,.57617,0,1.63184,1.63281,1.63184,1.77637,0,.04785,0,.19238-.04785,.28809l-.43164,.57617c-1.72852,2.40039-3.69629,5.13672-7.00879,5.13672-1.39258,0-2.25586-.43262-3.4082-1.05664-1.72852-1.15137-2.97656-3.4082-3.2168-5.47266-.52734-3.79199-.76758-7.48828-.76758-11.18457Z"/><path d="M887.93555,633.21777c0-6.04785,.38379-12.19238,1.00781-18.19336,.24023-.48047,.81641-.71973,1.44043-.71973,.76758,0,1.53613,.43164,1.53613,1.34375,0,.14453,0,.28809-.04785,.38379l-.52832,20.97852v.19141c0,4.08105,.04785,12.86523,5.76074,12.86523,3.36035,0,4.46387-3.36035,4.46387-14.54492,.04785-20.35449,.48047-20.97852,1.34473-20.97852,.86328,0,1.77539,.7207,2.01562,2.0166-.04785,1.48828-.04785,3.07227-.04785,4.7041,0,3.93652,.0957,7.87305,.0957,12.48145,0,12.00098-.86426,19.29785-8.20801,19.29785-1.2002,0-2.44824-.28809-3.50488-.86426-5.32812-3.2168-5.32812-12.48145-5.32812-18.96191Z"/><path d="M909.82324,619.8252c0-1.24805-.04785-2.68848-.04785-3.4082,0-2.68848,1.2002-2.73633,2.16016-2.73633h.43164c9.40918,0,14.06543,9.07227,14.06543,20.16113,0,6.28906-2.35254,12.33691-7.53613,16.27344-1.77637,1.39258-4.08105,2.97656-6.5293,2.97656-.95996,0-1.82422-.43164-2.44824-1.2002-.0957-8.1123-.0957-15.64941-.0957-32.06641Zm6.625,28.46582c4.75195-3.64844,6.62402-9.98438,6.62402-15.84082,0-4.75293-1.67969-12.14551-6.38477-14.68945-.86328-.43164-2.16016-.71973-3.12012-.71973h-.43164c-.14453,.14355-.24023,.86328-.24023,4.94434,0,.19141,.04785,10.32031,.24023,26.88184,0,.38379,.04785,.81641,.04785,.95996,1.05566,0,2.40039-.91211,3.26465-1.53613Z"/><path d="M930.46289,635.42578c0-10.46484,.71973-21.36133,8.83301-21.36133,.28809,0,.81543,0,1.15137,.04785,6.19238,.62402,8.11328,10.94531,8.11328,16.56152,0,6.52832-.91211,21.41016-8.11328,21.41016-7.63281,0-9.98438-8.11328-9.98438-16.6582Zm3.26367-.19141c0,7.10449,1.48828,13.96875,6.5293,13.96875,3.45605,0,4.94434-9.45703,4.94434-17.4248,0-3.79297-.09668-15.02539-5.95312-15.02539-5.13574,0-5.52051,11.95312-5.52051,18.48145Z"/></g></svg>