<?xml version="1.0" encoding="utf-8"?>
<!-- Generator: Adobe Illustrator 26.1.0, SVG Export Plug-In . SVG Version: 6.00 Build 0)  -->
<svg version="1.1" id="Capa_1" xmlns="http://www.w3.org/2000/svg" xmlns:xlink="http://www.w3.org/1999/xlink" x="0px" y="0px"
	 viewBox="0 0 805 600" style="enable-background:new 0 0 805 600;" xml:space="preserve">
<style type="text/css">
	.st0{fill:#FFFFFF;}
	.st1{fill:#47176E;stroke:#FFFFFF;stroke-width:2;}
	.st2{fill:#5F278C;stroke:#FFFFFF;stroke-width:2;}
	.st3{fill:#7F42B3;stroke:#FFFFFF;stroke-width:2;}
	.st4{fill:#945EBF;stroke:#FFFFFF;stroke-width:2;}
	.st5{fill:#A46BD2;stroke:#FFFFFF;stroke-width:2;}
	.st6{fill:#BE90E3;stroke:#FFFFFF;stroke-width:2;}
	.st7{fill:#C593EF;stroke:#FFFFFF;stroke-width:2;}
	.st8{fill:#D0ABED;stroke:#FFFFFF;stroke-width:2;}
	.st9{fill:#DAB1FB;stroke:#FFFFFF;stroke-width:2;}
	.st10{fill:#D5BBF2;stroke:#FFFFFF;stroke-width:2;}
	.st11{fill:none;stroke:#FFFFFF;stroke-width:4;}
	.st12{enable-background:new    ;}
</style>
<rect id="backgorund" class="st0" width="805" height="600"/>
<g id="viz" transform="translate(10,10)">
	<g id="cells">
		<path id="Japan" class="st1" d="M580.5,580l-14.1-175l-70-57.8l-182.9,133l5.6,99.7H580.5z"/>
		<path id="India" class="st2" d="M785,246.1V0H571.8l4.7,182.2L785,246.1z"/>
		<path id="México" class="st3" d="M0,0v234.9l182.5-4.5L210.3,0H0z"/>
		<path id="U.S." class="st4" d="M0,480.4L232.3,388l0.3-113.6l-50-44.1L0,234.9V480.4z"/>
		<path id="Indonesia" class="st5" d="M496.4,347.3l-14.5-83.6l-91.4-46.5l-157.9,57.3L232.3,388l81.2,92.3L496.4,347.3z"/>
		<path id="Corea_del_Sur" class="st6" d="M319.1,580l-5.6-99.7L232.3,388L0,480.4V580H319.1z"/>
		<path id="Filipinas" class="st7" d="M390.5,217.2L365.9,0H210.3l-27.8,230.4l50,44.1L390.5,217.2z"/>
		<path id="Brasil" class="st8" d="M785,328.9L566.4,405l14.1,175H785V328.9z"/>
		<path id="Tailandia" class="st9" d="M785,328.9v-82.8l-208.5-64l-94.6,81.5l14.5,83.6l70,57.8L785,328.9z"/>
		<path id="Vietnam" class="st10" d="M576.5,182.2L571.8,0H365.9l24.6,217.2l91.4,46.5L576.5,182.2z"/>
		<path class="st11" d="M0,0v580h785V0H0z"/>
	</g>
	<g id="labels">
		<g class="st12">
			<path class="st0" d="M453.8,477.7h1.6v5.2c0,0.7-0.1,1.2-0.2,1.6c-0.2,0.5-0.4,0.9-0.9,1.1c-0.4,0.3-1,0.4-1.7,0.4
				c-0.8,0-1.4-0.2-1.9-0.7c-0.4-0.5-0.7-1.1-0.7-2l1.5-0.2c0,0.5,0.1,0.8,0.2,1c0.2,0.3,0.4,0.4,0.8,0.4c0.4,0,0.6-0.1,0.8-0.3
				c0.2-0.2,0.2-0.6,0.2-1.3V477.7z"/>
			<path class="st0" d="M458.4,481.7l-1.4-0.3c0.2-0.6,0.4-1,0.8-1.3s1-0.4,1.7-0.4c0.7,0,1.2,0.1,1.6,0.2c0.3,0.2,0.6,0.4,0.7,0.6
				c0.1,0.3,0.2,0.7,0.2,1.4l0,1.8c0,0.5,0,0.9,0.1,1.1c0,0.2,0.1,0.5,0.3,0.8h-1.5c0-0.1-0.1-0.3-0.1-0.5c0-0.1,0-0.2-0.1-0.2
				c-0.3,0.3-0.6,0.5-0.9,0.6c-0.3,0.1-0.6,0.2-1,0.2c-0.6,0-1.1-0.2-1.4-0.5s-0.5-0.7-0.5-1.2c0-0.3,0.1-0.6,0.2-0.9
				c0.2-0.3,0.4-0.5,0.7-0.6c0.3-0.1,0.7-0.3,1.2-0.4c0.7-0.1,1.2-0.3,1.5-0.4v-0.2c0-0.3-0.1-0.5-0.2-0.6c-0.1-0.1-0.4-0.2-0.8-0.2
				c-0.3,0-0.5,0.1-0.6,0.2C458.6,481.3,458.5,481.5,458.4,481.7z M460.4,483c-0.2,0.1-0.5,0.1-0.9,0.2s-0.7,0.2-0.8,0.3
				c-0.2,0.1-0.3,0.3-0.3,0.5c0,0.2,0.1,0.4,0.2,0.6c0.2,0.2,0.4,0.2,0.6,0.2c0.3,0,0.5-0.1,0.8-0.3c0.2-0.1,0.3-0.3,0.4-0.5
				c0-0.1,0.1-0.4,0.1-0.8V483z"/>
			<path class="st0" d="M463.5,479.9h1.5v0.9c0.2-0.3,0.4-0.5,0.8-0.7s0.7-0.3,1.1-0.3c0.7,0,1.3,0.3,1.7,0.8s0.7,1.3,0.7,2.2
				c0,1-0.2,1.8-0.7,2.3c-0.5,0.5-1.1,0.8-1.7,0.8c-0.3,0-0.6-0.1-0.9-0.2c-0.3-0.1-0.5-0.4-0.8-0.7v3h-1.6V479.9z M465,482.8
				c0,0.7,0.1,1.2,0.4,1.5c0.3,0.3,0.6,0.5,1,0.5c0.4,0,0.7-0.1,0.9-0.4c0.2-0.3,0.4-0.8,0.4-1.4c0-0.6-0.1-1.1-0.4-1.4
				c-0.2-0.3-0.6-0.4-0.9-0.4c-0.4,0-0.7,0.1-0.9,0.4C465.1,481.8,465,482.2,465,482.8z"/>
			<path class="st0" d="M471.6,481.7l-1.4-0.3c0.2-0.6,0.4-1,0.8-1.3s1-0.4,1.7-0.4c0.7,0,1.2,0.1,1.6,0.2c0.3,0.2,0.6,0.4,0.7,0.6
				c0.1,0.3,0.2,0.7,0.2,1.4l0,1.8c0,0.5,0,0.9,0.1,1.1c0,0.2,0.1,0.5,0.3,0.8H474c0-0.1-0.1-0.3-0.1-0.5c0-0.1,0-0.2-0.1-0.2
				c-0.3,0.3-0.6,0.5-0.9,0.6c-0.3,0.1-0.6,0.2-1,0.2c-0.6,0-1.1-0.2-1.4-0.5s-0.5-0.7-0.5-1.2c0-0.3,0.1-0.6,0.2-0.9
				c0.2-0.3,0.4-0.5,0.7-0.6c0.3-0.1,0.7-0.3,1.2-0.4c0.7-0.1,1.2-0.3,1.5-0.4v-0.2c0-0.3-0.1-0.5-0.2-0.6c-0.1-0.1-0.4-0.2-0.8-0.2
				c-0.3,0-0.5,0.1-0.6,0.2C471.9,481.3,471.7,481.5,471.6,481.7z M473.7,483c-0.2,0.1-0.5,0.1-0.9,0.2s-0.7,0.2-0.8,0.3
				c-0.2,0.1-0.3,0.3-0.3,0.5c0,0.2,0.1,0.4,0.2,0.6c0.2,0.2,0.4,0.2,0.6,0.2c0.3,0,0.5-0.1,0.8-0.3c0.2-0.1,0.3-0.3,0.4-0.5
				c0-0.1,0.1-0.4,0.1-0.8V483z"/>
			<path class="st0" d="M482.2,485.8h-1.6v-3c0-0.6,0-1-0.1-1.2c-0.1-0.2-0.2-0.3-0.3-0.4s-0.3-0.2-0.5-0.2c-0.3,0-0.5,0.1-0.7,0.2
				c-0.2,0.1-0.4,0.3-0.4,0.6c-0.1,0.2-0.1,0.7-0.1,1.4v2.7h-1.6v-5.9h1.4v0.9c0.5-0.7,1.2-1,1.9-1c0.3,0,0.7,0.1,0.9,0.2
				c0.3,0.1,0.5,0.3,0.6,0.5c0.1,0.2,0.2,0.4,0.3,0.7c0.1,0.2,0.1,0.6,0.1,1V485.8z"/>
		</g>
		<g class="st12">
			<path class="st0" d="M437.6,498.3l1.3-6.1c-0.6,0.4-1.3,0.8-2.3,1l0.2-0.9c0.5-0.2,1-0.5,1.5-0.8c0.5-0.3,0.9-0.6,1.1-0.8
				c0.1-0.1,0.3-0.3,0.4-0.5h0.6l-1.7,8.2H437.6z"/>
			<path class="st0" d="M441.9,498.3c0.1-0.5,0.2-0.9,0.4-1.2c0.2-0.3,0.4-0.6,0.7-0.9c0.3-0.3,0.9-0.8,1.8-1.5
				c0.5-0.4,0.9-0.7,1.1-0.9c0.3-0.3,0.5-0.6,0.6-0.8c0.1-0.2,0.1-0.4,0.1-0.6c0-0.4-0.1-0.7-0.4-1c-0.3-0.3-0.6-0.4-1-0.4
				c-0.4,0-0.7,0.1-1,0.4c-0.3,0.3-0.5,0.7-0.6,1.3l-1-0.1c0.1-0.7,0.4-1.3,0.8-1.7c0.5-0.4,1-0.6,1.7-0.6c0.5,0,0.9,0.1,1.3,0.3
				c0.4,0.2,0.7,0.5,0.8,0.8s0.3,0.7,0.3,1.1c0,0.5-0.2,1.1-0.6,1.6c-0.2,0.3-0.9,0.9-2.1,1.8c-0.5,0.4-0.9,0.7-1.1,1
				c-0.2,0.3-0.4,0.5-0.5,0.7h3.6l-0.2,0.9H441.9z"/>
			<path class="st0" d="M448.3,495.7c0-0.7,0.1-1.4,0.3-2.1s0.4-1.3,0.7-1.7c0.3-0.4,0.5-0.8,0.8-1c0.3-0.2,0.5-0.4,0.8-0.5
				c0.3-0.1,0.6-0.2,0.9-0.2c0.6,0,1.1,0.2,1.6,0.7c0.4,0.5,0.6,1.1,0.6,2c0,0.9-0.1,1.8-0.4,2.7c-0.3,1-0.8,1.8-1.4,2.3
				c-0.5,0.4-1,0.6-1.6,0.6c-0.6,0-1.1-0.2-1.5-0.7C448.5,497.3,448.3,496.6,448.3,495.7z M449.3,495.9c0,0.5,0.1,0.9,0.2,1.2
				c0.2,0.4,0.6,0.6,1,0.6c0.4,0,0.7-0.2,1.1-0.5c0.5-0.5,0.8-1.2,1-2.2c0.2-1,0.3-1.7,0.3-2.3c0-0.6-0.1-1-0.3-1.3
				c-0.2-0.3-0.5-0.4-0.9-0.4c-0.3,0-0.5,0.1-0.7,0.2c-0.2,0.1-0.5,0.4-0.7,0.7c-0.3,0.5-0.6,1.2-0.8,2.1
				C449.4,494.8,449.3,495.4,449.3,495.9z"/>
			<path class="st0" d="M454.5,498.3l0.2-1.1h1.1l-0.2,1.1H454.5z"/>
			<path class="st0" d="M457.8,495.7c0-0.7,0.1-1.4,0.3-2.1s0.4-1.3,0.7-1.7c0.3-0.4,0.5-0.8,0.8-1c0.3-0.2,0.5-0.4,0.8-0.5
				c0.3-0.1,0.6-0.2,0.9-0.2c0.6,0,1.1,0.2,1.6,0.7c0.4,0.5,0.6,1.1,0.6,2c0,0.9-0.1,1.8-0.4,2.7c-0.3,1-0.8,1.8-1.4,2.3
				c-0.5,0.4-1,0.6-1.6,0.6c-0.6,0-1.1-0.2-1.5-0.7C458,497.3,457.8,496.6,457.8,495.7z M458.8,495.9c0,0.5,0.1,0.9,0.2,1.2
				c0.2,0.4,0.6,0.6,1,0.6c0.4,0,0.7-0.2,1.1-0.5c0.5-0.5,0.8-1.2,1-2.2c0.2-1,0.3-1.7,0.3-2.3c0-0.6-0.1-1-0.3-1.3
				c-0.2-0.3-0.5-0.4-0.9-0.4c-0.3,0-0.5,0.1-0.7,0.2c-0.2,0.1-0.5,0.4-0.7,0.7c-0.3,0.5-0.6,1.2-0.8,2.1
				C458.9,494.8,458.8,495.4,458.8,495.9z"/>
			<path class="st0" d="M464.1,495.7c0-0.7,0.1-1.4,0.3-2.1s0.4-1.3,0.7-1.7c0.3-0.4,0.5-0.8,0.8-1c0.3-0.2,0.5-0.4,0.8-0.5
				c0.3-0.1,0.6-0.2,0.9-0.2c0.6,0,1.1,0.2,1.6,0.7c0.4,0.5,0.6,1.1,0.6,2c0,0.9-0.1,1.8-0.4,2.7c-0.3,1-0.8,1.8-1.4,2.3
				c-0.5,0.4-1,0.6-1.6,0.6c-0.6,0-1.1-0.2-1.5-0.7C464.3,497.3,464.1,496.6,464.1,495.7z M465.1,495.9c0,0.5,0.1,0.9,0.2,1.2
				c0.2,0.4,0.6,0.6,1,0.6c0.4,0,0.7-0.2,1.1-0.5c0.5-0.5,0.8-1.2,1-2.2c0.2-1,0.3-1.7,0.3-2.3c0-0.6-0.1-1-0.3-1.3
				c-0.2-0.3-0.5-0.4-0.9-0.4c-0.3,0-0.5,0.1-0.7,0.2c-0.2,0.1-0.5,0.4-0.7,0.7c-0.3,0.5-0.6,1.2-0.8,2.1
				C465.2,494.8,465.1,495.4,465.1,495.9z"/>
			<path class="st0" d="M470.5,495.7c0-0.7,0.1-1.4,0.3-2.1s0.4-1.3,0.7-1.7c0.3-0.4,0.5-0.8,0.8-1c0.3-0.2,0.5-0.4,0.8-0.5
				c0.3-0.1,0.6-0.2,0.9-0.2c0.6,0,1.1,0.2,1.6,0.7c0.4,0.5,0.6,1.1,0.6,2c0,0.9-0.1,1.8-0.4,2.7c-0.3,1-0.8,1.8-1.4,2.3
				c-0.5,0.4-1,0.6-1.6,0.6c-0.6,0-1.1-0.2-1.5-0.7C470.7,497.3,470.5,496.6,470.5,495.7z M471.4,495.9c0,0.5,0.1,0.9,0.2,1.2
				c0.2,0.4,0.6,0.6,1,0.6c0.4,0,0.7-0.2,1.1-0.5c0.5-0.5,0.8-1.2,1-2.2c0.2-1,0.3-1.7,0.3-2.3c0-0.6-0.1-1-0.3-1.3
				c-0.2-0.3-0.5-0.4-0.9-0.4c-0.3,0-0.5,0.1-0.7,0.2c-0.2,0.1-0.5,0.4-0.7,0.7c-0.3,0.5-0.6,1.2-0.8,2.1
				C471.5,494.8,471.4,495.4,471.4,495.9z"/>
			<path class="st0" d="M476.6,498.3l0.2-1.1h1.1l-0.2,1.1H476.6z"/>
			<path class="st0" d="M479.9,495.7c0-0.7,0.1-1.4,0.3-2.1s0.4-1.3,0.7-1.7c0.3-0.4,0.5-0.8,0.8-1c0.3-0.2,0.5-0.4,0.8-0.5
				c0.3-0.1,0.6-0.2,0.9-0.2c0.6,0,1.1,0.2,1.6,0.7c0.4,0.5,0.6,1.1,0.6,2c0,0.9-0.1,1.8-0.4,2.7c-0.3,1-0.8,1.8-1.4,2.3
				c-0.5,0.4-1,0.6-1.6,0.6c-0.6,0-1.1-0.2-1.5-0.7C480.2,497.3,479.9,496.6,479.9,495.7z M480.9,495.9c0,0.5,0.1,0.9,0.2,1.2
				c0.2,0.4,0.6,0.6,1,0.6c0.4,0,0.7-0.2,1.1-0.5c0.5-0.5,0.8-1.2,1-2.2c0.2-1,0.3-1.7,0.3-2.3c0-0.6-0.1-1-0.3-1.3
				c-0.2-0.3-0.5-0.4-0.9-0.4c-0.3,0-0.5,0.1-0.7,0.2c-0.2,0.1-0.5,0.4-0.7,0.7c-0.3,0.5-0.6,1.2-0.8,2.1
				C481,494.8,480.9,495.4,480.9,495.9z"/>
			<path class="st0" d="M486.3,495.7c0-0.7,0.1-1.4,0.3-2.1s0.4-1.3,0.7-1.7c0.3-0.4,0.5-0.8,0.8-1c0.3-0.2,0.5-0.4,0.8-0.5
				c0.3-0.1,0.6-0.2,0.9-0.2c0.6,0,1.1,0.2,1.6,0.7c0.4,0.5,0.6,1.1,0.6,2c0,0.9-0.1,1.8-0.4,2.7c-0.3,1-0.8,1.8-1.4,2.3
				c-0.5,0.4-1,0.6-1.6,0.6c-0.6,0-1.1-0.2-1.5-0.7C486.5,497.3,486.3,496.6,486.3,495.7z M487.2,495.9c0,0.5,0.1,0.9,0.2,1.2
				c0.2,0.4,0.6,0.6,1,0.6c0.4,0,0.7-0.2,1.1-0.5c0.5-0.5,0.8-1.2,1-2.2c0.2-1,0.3-1.7,0.3-2.3c0-0.6-0.1-1-0.3-1.3
				c-0.2-0.3-0.5-0.4-0.9-0.4c-0.3,0-0.5,0.1-0.7,0.2c-0.2,0.1-0.5,0.4-0.7,0.7c-0.3,0.5-0.6,1.2-0.8,2.1
				C487.3,494.8,487.2,495.4,487.2,495.9z"/>
			<path class="st0" d="M492.6,495.7c0-0.7,0.1-1.4,0.3-2.1s0.4-1.3,0.7-1.7c0.3-0.4,0.5-0.8,0.8-1c0.3-0.2,0.5-0.4,0.8-0.5
				c0.3-0.1,0.6-0.2,0.9-0.2c0.6,0,1.1,0.2,1.6,0.7c0.4,0.5,0.6,1.1,0.6,2c0,0.9-0.1,1.8-0.4,2.7c-0.3,1-0.8,1.8-1.4,2.3
				c-0.5,0.4-1,0.6-1.6,0.6c-0.6,0-1.1-0.2-1.5-0.7C492.8,497.3,492.6,496.6,492.6,495.7z M493.6,495.9c0,0.5,0.1,0.9,0.2,1.2
				c0.2,0.4,0.6,0.6,1,0.6c0.4,0,0.7-0.2,1.1-0.5c0.5-0.5,0.8-1.2,1-2.2c0.2-1,0.3-1.7,0.3-2.3c0-0.6-0.1-1-0.3-1.3
				c-0.2-0.3-0.5-0.4-0.9-0.4c-0.3,0-0.5,0.1-0.7,0.2c-0.2,0.1-0.5,0.4-0.7,0.7c-0.3,0.5-0.6,1.2-0.8,2.1
				C493.7,494.8,493.6,495.4,493.6,495.9z"/>
		</g>
		<g class="st12">
			<path class="st0" d="M676,96.6v-8.1h1.6v8.1H676z"/>
			<path class="st0" d="M684.6,96.6H683v-3c0-0.6,0-1-0.1-1.2c-0.1-0.2-0.2-0.3-0.3-0.4s-0.3-0.2-0.5-0.2c-0.3,0-0.5,0.1-0.7,0.2
				c-0.2,0.1-0.4,0.3-0.4,0.6c-0.1,0.2-0.1,0.7-0.1,1.4v2.7h-1.6v-5.9h1.4v0.9c0.5-0.7,1.2-1,1.9-1c0.3,0,0.7,0.1,0.9,0.2
				c0.3,0.1,0.5,0.3,0.6,0.5c0.1,0.2,0.2,0.4,0.3,0.7c0.1,0.2,0.1,0.6,0.1,1V96.6z"/>
			<path class="st0" d="M691.6,96.6h-1.4v-0.9c-0.2,0.3-0.5,0.6-0.9,0.8c-0.3,0.2-0.7,0.2-1,0.2c-0.7,0-1.3-0.3-1.7-0.8
				c-0.5-0.5-0.7-1.3-0.7-2.3c0-1,0.2-1.8,0.7-2.3c0.5-0.5,1.1-0.8,1.8-0.8c0.7,0,1.2,0.3,1.7,0.8v-2.9h1.6V96.6z M687.4,93.6
				c0,0.6,0.1,1.1,0.3,1.4c0.3,0.4,0.6,0.6,1.1,0.6c0.4,0,0.7-0.2,0.9-0.5c0.3-0.3,0.4-0.8,0.4-1.4c0-0.7-0.1-1.2-0.4-1.5
				c-0.2-0.3-0.6-0.4-0.9-0.4c-0.4,0-0.7,0.1-0.9,0.4C687.5,92.5,687.4,93,687.4,93.6z"/>
			<path class="st0" d="M693.1,89.9v-1.4h1.6v1.4H693.1z M693.1,96.6v-5.9h1.6v5.9H693.1z"/>
			<path class="st0" d="M697.5,92.5l-1.4-0.3c0.2-0.6,0.4-1,0.8-1.3s1-0.4,1.7-0.4c0.7,0,1.2,0.1,1.6,0.2c0.3,0.2,0.6,0.4,0.7,0.6
				c0.1,0.3,0.2,0.7,0.2,1.4l0,1.8c0,0.5,0,0.9,0.1,1.1c0,0.2,0.1,0.5,0.3,0.8h-1.5c0-0.1-0.1-0.3-0.1-0.5c0-0.1,0-0.2-0.1-0.2
				c-0.3,0.3-0.6,0.5-0.9,0.6c-0.3,0.1-0.6,0.2-1,0.2c-0.6,0-1.1-0.2-1.4-0.5c-0.3-0.3-0.5-0.7-0.5-1.2c0-0.3,0.1-0.6,0.2-0.9
				c0.2-0.3,0.4-0.5,0.7-0.6c0.3-0.1,0.7-0.3,1.2-0.4c0.7-0.1,1.2-0.3,1.5-0.4v-0.2c0-0.3-0.1-0.5-0.2-0.6c-0.1-0.1-0.4-0.2-0.8-0.2
				c-0.3,0-0.5,0.1-0.6,0.2C697.7,92.1,697.5,92.3,697.5,92.5z M699.5,93.8c-0.2,0.1-0.5,0.1-0.9,0.2c-0.4,0.1-0.7,0.2-0.8,0.3
				c-0.2,0.1-0.3,0.3-0.3,0.5c0,0.2,0.1,0.4,0.2,0.6c0.2,0.2,0.4,0.2,0.6,0.2c0.3,0,0.5-0.1,0.8-0.3c0.2-0.1,0.3-0.3,0.4-0.5
				c0-0.1,0.1-0.4,0.1-0.8V93.8z"/>
		</g>
		<g class="st12">
			<path class="st0" d="M660.1,109.2l1.3-6.1c-0.6,0.4-1.3,0.8-2.3,1l0.2-0.9c0.5-0.2,1-0.5,1.5-0.8c0.5-0.3,0.9-0.6,1.1-0.8
				c0.1-0.1,0.3-0.3,0.4-0.5h0.6l-1.7,8.2H660.1z"/>
			<path class="st0" d="M665.5,109.2l1.3-6.1c-0.6,0.4-1.3,0.8-2.3,1l0.2-0.9c0.5-0.2,1-0.5,1.5-0.8c0.5-0.3,0.9-0.6,1.1-0.8
				c0.1-0.1,0.3-0.3,0.4-0.5h0.6l-1.7,8.2H665.5z"/>
			<path class="st0" d="M669.9,106.5c0-0.7,0.1-1.4,0.3-2.1s0.4-1.3,0.7-1.7c0.3-0.4,0.5-0.8,0.8-1c0.3-0.2,0.5-0.4,0.8-0.5
				c0.3-0.1,0.6-0.2,0.9-0.2c0.6,0,1.1,0.2,1.6,0.7c0.4,0.5,0.6,1.1,0.6,2c0,0.9-0.1,1.8-0.4,2.7c-0.3,1-0.8,1.8-1.4,2.3
				c-0.5,0.4-1,0.6-1.6,0.6c-0.6,0-1.1-0.2-1.5-0.7C670.1,108.1,669.9,107.4,669.9,106.5z M670.9,106.7c0,0.5,0.1,0.9,0.2,1.2
				c0.2,0.4,0.6,0.6,1,0.6c0.4,0,0.7-0.2,1.1-0.5c0.5-0.5,0.8-1.2,1-2.2c0.2-1,0.3-1.7,0.3-2.3c0-0.6-0.1-1-0.3-1.3
				c-0.2-0.3-0.5-0.4-0.9-0.4c-0.3,0-0.5,0.1-0.7,0.2c-0.2,0.1-0.5,0.4-0.7,0.7c-0.3,0.5-0.6,1.2-0.8,2.1
				C671,105.6,670.9,106.3,670.9,106.7z"/>
			<path class="st0" d="M676.1,109.2l0.2-1.1h1.1l-0.2,1.1H676.1z"/>
			<path class="st0" d="M679.4,106.5c0-0.7,0.1-1.4,0.3-2.1s0.4-1.3,0.7-1.7c0.3-0.4,0.5-0.8,0.8-1c0.3-0.2,0.5-0.4,0.8-0.5
				c0.3-0.1,0.6-0.2,0.9-0.2c0.6,0,1.1,0.2,1.6,0.7c0.4,0.5,0.6,1.1,0.6,2c0,0.9-0.1,1.8-0.4,2.7c-0.3,1-0.8,1.8-1.4,2.3
				c-0.5,0.4-1,0.6-1.6,0.6c-0.6,0-1.1-0.2-1.5-0.7C679.6,108.1,679.4,107.4,679.4,106.5z M680.4,106.7c0,0.5,0.1,0.9,0.2,1.2
				c0.2,0.4,0.6,0.6,1,0.6c0.4,0,0.7-0.2,1.1-0.5c0.5-0.5,0.8-1.2,1-2.2c0.2-1,0.3-1.7,0.3-2.3c0-0.6-0.1-1-0.3-1.3
				c-0.2-0.3-0.5-0.4-0.9-0.4c-0.3,0-0.5,0.1-0.7,0.2c-0.2,0.1-0.5,0.4-0.7,0.7c-0.3,0.5-0.6,1.2-0.8,2.1
				C680.5,105.6,680.4,106.3,680.4,106.7z"/>
			<path class="st0" d="M685.7,106.5c0-0.7,0.1-1.4,0.3-2.1s0.4-1.3,0.7-1.7c0.3-0.4,0.5-0.8,0.8-1c0.3-0.2,0.5-0.4,0.8-0.5
				c0.3-0.1,0.6-0.2,0.9-0.2c0.6,0,1.1,0.2,1.6,0.7c0.4,0.5,0.6,1.1,0.6,2c0,0.9-0.1,1.8-0.4,2.7c-0.3,1-0.8,1.8-1.4,2.3
				c-0.5,0.4-1,0.6-1.6,0.6c-0.6,0-1.1-0.2-1.5-0.7C686,108.1,685.7,107.4,685.7,106.5z M686.7,106.7c0,0.5,0.1,0.9,0.2,1.2
				c0.2,0.4,0.6,0.6,1,0.6c0.4,0,0.7-0.2,1.1-0.5c0.5-0.5,0.8-1.2,1-2.2c0.2-1,0.3-1.7,0.3-2.3c0-0.6-0.1-1-0.3-1.3
				c-0.2-0.3-0.5-0.4-0.9-0.4c-0.3,0-0.5,0.1-0.7,0.2c-0.2,0.1-0.5,0.4-0.7,0.7c-0.3,0.5-0.6,1.2-0.8,2.1
				C686.8,105.6,686.7,106.3,686.7,106.7z"/>
			<path class="st0" d="M692.1,106.5c0-0.7,0.1-1.4,0.3-2.1s0.4-1.3,0.7-1.7c0.3-0.4,0.5-0.8,0.8-1c0.3-0.2,0.5-0.4,0.8-0.5
				c0.3-0.1,0.6-0.2,0.9-0.2c0.6,0,1.1,0.2,1.6,0.7c0.4,0.5,0.6,1.1,0.6,2c0,0.9-0.1,1.8-0.4,2.7c-0.3,1-0.8,1.8-1.4,2.3
				c-0.5,0.4-1,0.6-1.6,0.6c-0.6,0-1.1-0.2-1.5-0.7C692.3,108.1,692.1,107.4,692.1,106.5z M693,106.7c0,0.5,0.1,0.9,0.2,1.2
				c0.2,0.4,0.6,0.6,1,0.6c0.4,0,0.7-0.2,1.1-0.5c0.5-0.5,0.8-1.2,1-2.2c0.2-1,0.3-1.7,0.3-2.3c0-0.6-0.1-1-0.3-1.3
				c-0.2-0.3-0.5-0.4-0.9-0.4c-0.3,0-0.5,0.1-0.7,0.2c-0.2,0.1-0.5,0.4-0.7,0.7c-0.3,0.5-0.6,1.2-0.8,2.1
				C693.1,105.6,693,106.3,693,106.7z"/>
			<path class="st0" d="M698.2,109.2l0.2-1.1h1.1l-0.2,1.1H698.2z"/>
			<path class="st0" d="M701.6,106.5c0-0.7,0.1-1.4,0.3-2.1s0.4-1.3,0.7-1.7c0.3-0.4,0.5-0.8,0.8-1c0.3-0.2,0.5-0.4,0.8-0.5
				c0.3-0.1,0.6-0.2,0.9-0.2c0.6,0,1.1,0.2,1.6,0.7c0.4,0.5,0.6,1.1,0.6,2c0,0.9-0.1,1.8-0.4,2.7c-0.3,1-0.8,1.8-1.4,2.3
				c-0.5,0.4-1,0.6-1.6,0.6c-0.6,0-1.1-0.2-1.5-0.7C701.8,108.1,701.6,107.4,701.6,106.5z M702.5,106.7c0,0.5,0.1,0.9,0.2,1.2
				c0.2,0.4,0.6,0.6,1,0.6c0.4,0,0.7-0.2,1.1-0.5c0.5-0.5,0.8-1.2,1-2.2c0.2-1,0.3-1.7,0.3-2.3c0-0.6-0.1-1-0.3-1.3
				c-0.2-0.3-0.5-0.4-0.9-0.4c-0.3,0-0.5,0.1-0.7,0.2c-0.2,0.1-0.5,0.4-0.7,0.7c-0.3,0.5-0.6,1.2-0.8,2.1
				C702.6,105.6,702.5,106.3,702.5,106.7z"/>
			<path class="st0" d="M707.9,106.5c0-0.7,0.1-1.4,0.3-2.1s0.4-1.3,0.7-1.7c0.3-0.4,0.5-0.8,0.8-1c0.3-0.2,0.5-0.4,0.8-0.5
				c0.3-0.1,0.6-0.2,0.9-0.2c0.6,0,1.1,0.2,1.6,0.7c0.4,0.5,0.6,1.1,0.6,2c0,0.9-0.1,1.8-0.4,2.7c-0.3,1-0.8,1.8-1.4,2.3
				c-0.5,0.4-1,0.6-1.6,0.6c-0.6,0-1.1-0.2-1.5-0.7C708.1,108.1,707.9,107.4,707.9,106.5z M708.9,106.7c0,0.5,0.1,0.9,0.2,1.2
				c0.2,0.4,0.6,0.6,1,0.6c0.4,0,0.7-0.2,1.1-0.5c0.5-0.5,0.8-1.2,1-2.2c0.2-1,0.3-1.7,0.3-2.3c0-0.6-0.1-1-0.3-1.3
				c-0.2-0.3-0.5-0.4-0.9-0.4c-0.3,0-0.5,0.1-0.7,0.2c-0.2,0.1-0.5,0.4-0.7,0.7c-0.3,0.5-0.6,1.2-0.8,2.1
				C709,105.6,708.9,106.3,708.9,106.7z"/>
			<path class="st0" d="M714.2,106.5c0-0.7,0.1-1.4,0.3-2.1s0.4-1.3,0.7-1.7c0.3-0.4,0.5-0.8,0.8-1c0.3-0.2,0.5-0.4,0.8-0.5
				c0.3-0.1,0.6-0.2,0.9-0.2c0.6,0,1.1,0.2,1.6,0.7c0.4,0.5,0.6,1.1,0.6,2c0,0.9-0.1,1.8-0.4,2.7c-0.3,1-0.8,1.8-1.4,2.3
				c-0.5,0.4-1,0.6-1.6,0.6c-0.6,0-1.1-0.2-1.5-0.7C714.4,108.1,714.2,107.4,714.2,106.5z M715.2,106.7c0,0.5,0.1,0.9,0.2,1.2
				c0.2,0.4,0.6,0.6,1,0.6c0.4,0,0.7-0.2,1.1-0.5c0.5-0.5,0.8-1.2,1-2.2c0.2-1,0.3-1.7,0.3-2.3c0-0.6-0.1-1-0.3-1.3
				c-0.2-0.3-0.5-0.4-0.9-0.4c-0.3,0-0.5,0.1-0.7,0.2c-0.2,0.1-0.5,0.4-0.7,0.7c-0.3,0.5-0.6,1.2-0.8,2.1
				C715.3,105.6,715.2,106.3,715.2,106.7z"/>
		</g>
		<g class="st12">
			<path class="st0" d="M72.4,79.5v-8.1h2.5l1.5,5.6l1.5-5.6h2.5v8.1h-1.5V73l-1.6,6.4h-1.6L73.9,73v6.4H72.4z"/>
			<path class="st0" d="M85.3,77.6l1.6,0.3c-0.2,0.6-0.5,1-0.9,1.3c-0.4,0.3-1,0.4-1.6,0.4c-1,0-1.8-0.3-2.3-1
				c-0.4-0.5-0.6-1.2-0.6-2c0-1,0.3-1.7,0.8-2.3c0.5-0.6,1.2-0.8,1.9-0.8c0.9,0,1.6,0.3,2.1,0.9c0.5,0.6,0.7,1.5,0.7,2.7H83
				c0,0.5,0.1,0.8,0.4,1.1c0.2,0.3,0.5,0.4,0.9,0.4c0.2,0,0.4-0.1,0.6-0.2S85.2,77.9,85.3,77.6z M85.4,76c0-0.5-0.1-0.8-0.3-1
				c-0.2-0.2-0.5-0.4-0.8-0.4c-0.3,0-0.6,0.1-0.8,0.4c-0.2,0.2-0.3,0.6-0.3,1H85.4z M83.4,72.8l0.8-1.7h1.7l-1.5,1.7H83.4z"/>
			<path class="st0" d="M87.4,79.5l2.1-3l-2-2.9h1.9l1,1.6l1.1-1.6h1.8l-2,2.8l2.2,3.1h-1.9l-1.2-1.8l-1.2,1.8H87.4z"/>
			<path class="st0" d="M94.5,72.8v-1.4h1.6v1.4H94.5z M94.5,79.5v-5.9h1.6v5.9H94.5z"/>
			<path class="st0" d="M102.8,75.3l-1.5,0.3c-0.1-0.3-0.2-0.5-0.4-0.7s-0.4-0.2-0.7-0.2c-0.4,0-0.7,0.1-0.9,0.4
				c-0.2,0.3-0.3,0.7-0.3,1.3c0,0.7,0.1,1.2,0.4,1.5s0.6,0.4,0.9,0.4c0.3,0,0.5-0.1,0.7-0.3c0.2-0.2,0.3-0.5,0.4-0.9l1.5,0.3
				c-0.2,0.7-0.5,1.2-0.9,1.6c-0.5,0.4-1.1,0.5-1.8,0.5c-0.9,0-1.6-0.3-2.1-0.8s-0.8-1.3-0.8-2.3c0-1,0.3-1.7,0.8-2.3
				c0.5-0.5,1.2-0.8,2.1-0.8c0.7,0,1.3,0.2,1.7,0.5C102.3,74.2,102.6,74.7,102.8,75.3z"/>
			<path class="st0" d="M103.6,76.4c0-0.5,0.1-1,0.4-1.5c0.3-0.5,0.6-0.9,1.1-1.1c0.5-0.3,1-0.4,1.6-0.4c0.9,0,1.6,0.3,2.2,0.9
				c0.6,0.6,0.9,1.3,0.9,2.2c0,0.9-0.3,1.6-0.9,2.2c-0.6,0.6-1.3,0.9-2.2,0.9c-0.5,0-1.1-0.1-1.5-0.4c-0.5-0.2-0.9-0.6-1.1-1.1
				C103.8,77.7,103.6,77.1,103.6,76.4z M105.2,76.5c0,0.6,0.1,1,0.4,1.3c0.3,0.3,0.6,0.5,1,0.5c0.4,0,0.7-0.2,1-0.5
				c0.3-0.3,0.4-0.8,0.4-1.4c0-0.6-0.1-1-0.4-1.3c-0.3-0.3-0.6-0.5-1-0.5c-0.4,0-0.7,0.2-1,0.5C105.4,75.5,105.2,75.9,105.2,76.5z"
				/>
		</g>
		<g class="st12">
			<path class="st0" d="M64.7,87.2c0.3-0.2,0.6-0.4,0.8-0.5c0.3-0.1,0.6-0.2,0.8-0.2c0.6,0,1.1,0.2,1.5,0.6c0.4,0.4,0.6,1,0.6,1.7
				c0,0.9-0.3,1.7-0.9,2.4c-0.5,0.6-1.1,0.8-1.9,0.8c-0.7,0-1.2-0.2-1.7-0.7c-0.4-0.5-0.7-1.2-0.7-2.1c0-0.8,0.1-1.7,0.4-2.5
				c0.2-0.7,0.5-1.2,0.8-1.7c0.3-0.4,0.7-0.8,1-1c0.4-0.2,0.8-0.3,1.2-0.3c0.6,0,1,0.2,1.4,0.5c0.4,0.3,0.6,0.8,0.6,1.5l-0.9,0.1
				c-0.1-0.4-0.2-0.8-0.4-1c-0.2-0.2-0.4-0.3-0.7-0.3c-0.3,0-0.6,0.1-0.9,0.3s-0.6,0.6-0.8,1C64.9,86.5,64.7,86.9,64.7,87.2z
				 M64.3,89.7c0,0.5,0.1,0.8,0.4,1.2c0.3,0.3,0.6,0.5,1,0.5c0.3,0,0.5-0.1,0.8-0.3c0.3-0.2,0.5-0.5,0.7-0.9s0.3-0.8,0.3-1.2
				c0-0.5-0.1-0.9-0.4-1.2c-0.3-0.3-0.6-0.4-1-0.4c-0.4,0-0.9,0.2-1.2,0.7C64.5,88.4,64.3,89,64.3,89.7z"/>
			<path class="st0" d="M71,87.2c0.3-0.2,0.6-0.4,0.8-0.5c0.3-0.1,0.6-0.2,0.8-0.2c0.6,0,1.1,0.2,1.5,0.6c0.4,0.4,0.6,1,0.6,1.7
				c0,0.9-0.3,1.7-0.9,2.4c-0.5,0.6-1.1,0.8-1.9,0.8c-0.7,0-1.2-0.2-1.7-0.7c-0.4-0.5-0.7-1.2-0.7-2.1c0-0.8,0.1-1.7,0.4-2.5
				c0.2-0.7,0.5-1.2,0.8-1.7c0.3-0.4,0.7-0.8,1-1c0.4-0.2,0.8-0.3,1.2-0.3c0.6,0,1,0.2,1.4,0.5c0.4,0.3,0.6,0.8,0.6,1.5l-0.9,0.1
				c-0.1-0.4-0.2-0.8-0.4-1c-0.2-0.2-0.4-0.3-0.7-0.3c-0.3,0-0.6,0.1-0.9,0.3c-0.3,0.2-0.6,0.6-0.8,1C71.2,86.5,71.1,86.9,71,87.2z
				 M70.6,89.7c0,0.5,0.1,0.8,0.4,1.2c0.3,0.3,0.6,0.5,1,0.5c0.3,0,0.5-0.1,0.8-0.3c0.3-0.2,0.5-0.5,0.7-0.9
				c0.2-0.4,0.3-0.8,0.3-1.2c0-0.5-0.1-0.9-0.4-1.2c-0.3-0.3-0.6-0.4-1-0.4c-0.4,0-0.9,0.2-1.2,0.7C70.8,88.4,70.6,89,70.6,89.7z"/>
			<path class="st0" d="M75.7,92l0.2-1.1h1.1L76.8,92H75.7z"/>
			<path class="st0" d="M80.5,87.2c0.3-0.2,0.6-0.4,0.8-0.5c0.3-0.1,0.6-0.2,0.8-0.2c0.6,0,1.1,0.2,1.5,0.6c0.4,0.4,0.6,1,0.6,1.7
				c0,0.9-0.3,1.7-0.9,2.4c-0.5,0.6-1.1,0.8-1.9,0.8c-0.7,0-1.2-0.2-1.7-0.7c-0.4-0.5-0.7-1.2-0.7-2.1c0-0.8,0.1-1.7,0.4-2.5
				c0.2-0.7,0.5-1.2,0.8-1.7c0.3-0.4,0.7-0.8,1-1c0.4-0.2,0.8-0.3,1.2-0.3c0.6,0,1,0.2,1.4,0.5c0.4,0.3,0.6,0.8,0.6,1.5l-0.9,0.1
				c-0.1-0.4-0.2-0.8-0.4-1c-0.2-0.2-0.4-0.3-0.7-0.3c-0.3,0-0.6,0.1-0.9,0.3s-0.6,0.6-0.8,1C80.7,86.5,80.6,86.9,80.5,87.2z
				 M80.1,89.7c0,0.5,0.1,0.8,0.4,1.2c0.3,0.3,0.6,0.5,1,0.5c0.3,0,0.5-0.1,0.8-0.3c0.3-0.2,0.5-0.5,0.7-0.9s0.3-0.8,0.3-1.2
				c0-0.5-0.1-0.9-0.4-1.2c-0.3-0.3-0.6-0.4-1-0.4c-0.4,0-0.9,0.2-1.2,0.7C80.3,88.4,80.1,89,80.1,89.7z"/>
			<path class="st0" d="M85.3,89.3c0-0.7,0.1-1.4,0.3-2.1s0.4-1.3,0.7-1.7c0.3-0.4,0.5-0.8,0.8-1c0.3-0.2,0.5-0.4,0.8-0.5
				c0.3-0.1,0.6-0.2,0.9-0.2c0.6,0,1.1,0.2,1.6,0.7s0.6,1.1,0.6,2c0,0.9-0.1,1.8-0.4,2.7c-0.3,1-0.8,1.8-1.4,2.3
				c-0.5,0.4-1,0.6-1.6,0.6c-0.6,0-1.1-0.2-1.5-0.7C85.5,90.9,85.3,90.2,85.3,89.3z M86.3,89.6c0,0.5,0.1,0.9,0.2,1.2
				c0.2,0.4,0.6,0.6,1,0.6c0.4,0,0.7-0.2,1.1-0.5c0.5-0.5,0.8-1.2,1-2.2c0.2-1,0.3-1.7,0.3-2.3c0-0.6-0.1-1-0.3-1.3
				c-0.2-0.3-0.5-0.4-0.9-0.4c-0.3,0-0.5,0.1-0.7,0.2c-0.2,0.1-0.5,0.4-0.7,0.7c-0.3,0.5-0.6,1.2-0.8,2.1
				C86.4,88.4,86.3,89.1,86.3,89.6z"/>
			<path class="st0" d="M91.6,89.3c0-0.7,0.1-1.4,0.3-2.1s0.4-1.3,0.7-1.7c0.3-0.4,0.5-0.8,0.8-1c0.3-0.2,0.5-0.4,0.8-0.5
				c0.3-0.1,0.6-0.2,0.9-0.2c0.6,0,1.1,0.2,1.6,0.7s0.6,1.1,0.6,2c0,0.9-0.1,1.8-0.4,2.7c-0.3,1-0.8,1.8-1.4,2.3
				c-0.5,0.4-1,0.6-1.6,0.6c-0.6,0-1.1-0.2-1.5-0.7C91.9,90.9,91.6,90.2,91.6,89.3z M92.6,89.6c0,0.5,0.1,0.9,0.2,1.2
				c0.2,0.4,0.6,0.6,1,0.6c0.4,0,0.7-0.2,1.1-0.5c0.5-0.5,0.8-1.2,1-2.2c0.2-1,0.3-1.7,0.3-2.3c0-0.6-0.1-1-0.3-1.3
				s-0.5-0.4-0.9-0.4c-0.3,0-0.5,0.1-0.7,0.2c-0.2,0.1-0.5,0.4-0.7,0.7c-0.3,0.5-0.6,1.2-0.8,2.1C92.7,88.4,92.6,89.1,92.6,89.6z"/>
			<path class="st0" d="M97.8,92l0.2-1.1h1.1L99,92H97.8z"/>
			<path class="st0" d="M101.1,89.3c0-0.7,0.1-1.4,0.3-2.1s0.4-1.3,0.7-1.7c0.3-0.4,0.5-0.8,0.8-1c0.3-0.2,0.5-0.4,0.8-0.5
				c0.3-0.1,0.6-0.2,0.9-0.2c0.6,0,1.1,0.2,1.6,0.7c0.4,0.5,0.6,1.1,0.6,2c0,0.9-0.1,1.8-0.4,2.7c-0.3,1-0.8,1.8-1.4,2.3
				c-0.5,0.4-1,0.6-1.6,0.6c-0.6,0-1.1-0.2-1.5-0.7C101.3,90.9,101.1,90.2,101.1,89.3z M102.1,89.6c0,0.5,0.1,0.9,0.2,1.2
				c0.2,0.4,0.6,0.6,1,0.6c0.4,0,0.7-0.2,1.1-0.5c0.5-0.5,0.8-1.2,1-2.2c0.2-1,0.3-1.7,0.3-2.3c0-0.6-0.1-1-0.3-1.3
				c-0.2-0.3-0.5-0.4-0.9-0.4c-0.3,0-0.5,0.1-0.7,0.2c-0.2,0.1-0.5,0.4-0.7,0.7c-0.3,0.5-0.6,1.2-0.8,2.1
				C102.2,88.4,102.1,89.1,102.1,89.6z"/>
			<path class="st0" d="M107.5,89.3c0-0.7,0.1-1.4,0.3-2.1s0.4-1.3,0.7-1.7c0.3-0.4,0.5-0.8,0.8-1c0.3-0.2,0.5-0.4,0.8-0.5
				c0.3-0.1,0.6-0.2,0.9-0.2c0.6,0,1.1,0.2,1.6,0.7s0.6,1.1,0.6,2c0,0.9-0.1,1.8-0.4,2.7c-0.3,1-0.8,1.8-1.4,2.3
				c-0.5,0.4-1,0.6-1.6,0.6c-0.6,0-1.1-0.2-1.5-0.7C107.7,90.9,107.5,90.2,107.5,89.3z M108.4,89.6c0,0.5,0.1,0.9,0.2,1.2
				c0.2,0.4,0.6,0.6,1,0.6c0.4,0,0.7-0.2,1.1-0.5c0.5-0.5,0.8-1.2,1-2.2c0.2-1,0.3-1.7,0.3-2.3c0-0.6-0.1-1-0.3-1.3
				c-0.2-0.3-0.5-0.4-0.9-0.4c-0.3,0-0.5,0.1-0.7,0.2c-0.2,0.1-0.5,0.4-0.7,0.7c-0.3,0.5-0.6,1.2-0.8,2.1
				C108.5,88.4,108.4,89.1,108.4,89.6z"/>
			<path class="st0" d="M113.8,89.3c0-0.7,0.1-1.4,0.3-2.1s0.4-1.3,0.7-1.7s0.5-0.8,0.8-1c0.3-0.2,0.5-0.4,0.8-0.5
				c0.3-0.1,0.6-0.2,0.9-0.2c0.6,0,1.1,0.2,1.6,0.7s0.6,1.1,0.6,2c0,0.9-0.1,1.8-0.4,2.7c-0.3,1-0.8,1.8-1.4,2.3
				c-0.5,0.4-1,0.6-1.6,0.6c-0.6,0-1.1-0.2-1.5-0.7C114,90.9,113.8,90.2,113.8,89.3z M114.8,89.6c0,0.5,0.1,0.9,0.2,1.2
				c0.2,0.4,0.6,0.6,1,0.6c0.4,0,0.7-0.2,1.1-0.5c0.5-0.5,0.8-1.2,1-2.2c0.2-1,0.3-1.7,0.3-2.3c0-0.6-0.1-1-0.3-1.3
				c-0.2-0.3-0.5-0.4-0.9-0.4c-0.3,0-0.5,0.1-0.7,0.2c-0.2,0.1-0.5,0.4-0.7,0.7c-0.3,0.5-0.6,1.2-0.8,2.1
				C114.9,88.4,114.8,89.1,114.8,89.6z"/>
		</g>
		<g class="st12">
			<path class="st0" d="M91.4,317h1.6v4.4c0,0.7,0,1.2,0.1,1.4c0.1,0.3,0.2,0.6,0.5,0.8c0.3,0.2,0.6,0.3,1.1,0.3
				c0.5,0,0.8-0.1,1.1-0.3c0.2-0.2,0.4-0.4,0.4-0.7c0-0.3,0.1-0.7,0.1-1.4V317h1.6v4.3c0,1,0,1.7-0.1,2.1c-0.1,0.4-0.3,0.7-0.5,1
				s-0.6,0.5-1,0.7c-0.4,0.2-0.9,0.2-1.6,0.2c-0.8,0-1.4-0.1-1.8-0.3c-0.4-0.2-0.7-0.4-1-0.7c-0.2-0.3-0.4-0.6-0.5-0.9
				c-0.1-0.5-0.2-1.2-0.2-2.1V317z"/>
			<path class="st0" d="M99.6,325.1v-1.6h1.6v1.6H99.6z"/>
			<path class="st0" d="M102.4,322.5l1.6-0.2c0.1,0.5,0.3,0.9,0.6,1.2c0.3,0.3,0.7,0.4,1.2,0.4c0.5,0,0.9-0.1,1.2-0.3
				c0.3-0.2,0.4-0.5,0.4-0.8c0-0.2-0.1-0.4-0.2-0.5c-0.1-0.1-0.3-0.3-0.6-0.4c-0.2-0.1-0.6-0.2-1.3-0.4c-0.9-0.2-1.5-0.5-1.9-0.8
				c-0.5-0.4-0.7-1-0.7-1.6c0-0.4,0.1-0.8,0.4-1.2c0.2-0.4,0.6-0.6,1-0.8c0.4-0.2,1-0.3,1.6-0.3c1,0,1.8,0.2,2.3,0.7
				c0.5,0.4,0.8,1,0.8,1.8l-1.6,0.1c-0.1-0.4-0.2-0.7-0.5-0.9c-0.2-0.2-0.6-0.3-1-0.3c-0.5,0-0.9,0.1-1.1,0.3
				c-0.2,0.1-0.3,0.3-0.3,0.5c0,0.2,0.1,0.4,0.2,0.5c0.2,0.2,0.7,0.4,1.5,0.5c0.8,0.2,1.4,0.4,1.8,0.6c0.4,0.2,0.7,0.5,0.9,0.8
				c0.2,0.3,0.3,0.8,0.3,1.3c0,0.5-0.1,0.9-0.4,1.3c-0.3,0.4-0.6,0.7-1.1,0.9c-0.5,0.2-1.1,0.3-1.8,0.3c-1,0-1.8-0.2-2.4-0.7
				C102.8,324.1,102.5,323.4,102.4,322.5z"/>
			<path class="st0" d="M110.4,325.1v-1.6h1.6v1.6H110.4z"/>
		</g>
		<g class="st12">
			<path class="st0" d="M74,335.3l1-0.1c0,0.1,0,0.2,0,0.3c0,0.2,0.1,0.5,0.2,0.7c0.1,0.2,0.3,0.4,0.5,0.6c0.2,0.1,0.4,0.2,0.7,0.2
				c0.3,0,0.6-0.1,0.9-0.3s0.6-0.5,0.8-0.9s0.3-0.8,0.3-1.2c0-0.5-0.1-0.8-0.4-1.1c-0.3-0.3-0.6-0.4-1.1-0.4c-0.3,0-0.6,0.1-0.8,0.2
				s-0.5,0.4-0.7,0.6l-0.9-0.1l1.2-4.2h4l-0.2,0.9h-3.1l-0.6,2.1c0.2-0.2,0.5-0.3,0.7-0.4c0.2-0.1,0.5-0.1,0.7-0.1
				c0.6,0,1.1,0.2,1.5,0.6s0.6,1,0.6,1.7c0,0.6-0.1,1.2-0.4,1.7c-0.3,0.5-0.7,0.9-1.1,1.2c-0.5,0.3-1,0.4-1.6,0.4
				c-0.5,0-0.9-0.1-1.2-0.3c-0.4-0.2-0.6-0.5-0.8-0.9c-0.2-0.4-0.3-0.7-0.3-1.1C74,335.4,74,335.4,74,335.3z"/>
			<path class="st0" d="M80.3,335.8l0.9-0.1c0.1,0.5,0.2,0.8,0.4,1s0.4,0.3,0.7,0.3c0.4,0,0.7-0.2,1.1-0.5c0.5-0.5,0.8-1.2,1.1-2.1
				c-0.3,0.3-0.6,0.4-0.9,0.5S83,335,82.8,335c-0.5,0-0.9-0.2-1.3-0.5c-0.5-0.4-0.8-1.1-0.8-1.9c0-0.9,0.3-1.7,0.9-2.4
				c0.5-0.6,1.1-0.8,1.9-0.8c0.7,0,1.2,0.2,1.7,0.7c0.4,0.5,0.7,1.2,0.7,2.1c0,0.9-0.1,1.8-0.4,2.6c-0.4,1-0.8,1.8-1.4,2.2
				c-0.5,0.4-1,0.6-1.6,0.6c-0.6,0-1-0.2-1.4-0.5C80.5,336.9,80.3,336.4,80.3,335.8z M81.6,332.5c0,0.5,0.1,0.9,0.4,1.2
				s0.6,0.5,1,0.5c0.3,0,0.6-0.1,0.8-0.3c0.3-0.2,0.5-0.5,0.7-0.8c0.2-0.4,0.3-0.8,0.3-1.2c0-0.3-0.1-0.6-0.2-0.9
				c-0.1-0.3-0.3-0.5-0.5-0.6c-0.2-0.1-0.5-0.2-0.7-0.2c-0.2,0-0.4,0.1-0.7,0.2s-0.4,0.3-0.6,0.5s-0.3,0.5-0.4,0.8
				C81.7,332,81.6,332.3,81.6,332.5z"/>
			<path class="st0" d="M86.5,337.6l0.2-1.1h1.1l-0.2,1.1H86.5z"/>
			<path class="st0" d="M91.3,332.9c0.3-0.2,0.6-0.4,0.8-0.5c0.3-0.1,0.6-0.2,0.8-0.2c0.6,0,1.1,0.2,1.5,0.6c0.4,0.4,0.6,1,0.6,1.7
				c0,0.9-0.3,1.7-0.9,2.4c-0.5,0.6-1.1,0.8-1.9,0.8c-0.7,0-1.2-0.2-1.7-0.7c-0.4-0.5-0.7-1.2-0.7-2.1c0-0.8,0.1-1.7,0.4-2.5
				c0.2-0.7,0.5-1.2,0.8-1.7c0.3-0.4,0.7-0.8,1-1c0.4-0.2,0.8-0.3,1.2-0.3c0.6,0,1,0.2,1.4,0.5c0.4,0.3,0.6,0.8,0.6,1.5l-0.9,0.1
				c-0.1-0.4-0.2-0.8-0.4-1c-0.2-0.2-0.4-0.3-0.7-0.3c-0.3,0-0.6,0.1-0.9,0.3c-0.3,0.2-0.6,0.6-0.8,1
				C91.5,332.1,91.4,332.5,91.3,332.9z M90.9,335.3c0,0.5,0.1,0.8,0.4,1.2c0.3,0.3,0.6,0.5,1,0.5c0.3,0,0.5-0.1,0.8-0.3
				c0.3-0.2,0.5-0.5,0.7-0.9c0.2-0.4,0.3-0.8,0.3-1.2c0-0.5-0.1-0.9-0.4-1.2c-0.3-0.3-0.6-0.4-1-0.4c-0.4,0-0.9,0.2-1.2,0.7
				C91.1,334.1,90.9,334.7,90.9,335.3z"/>
			<path class="st0" d="M96.1,335c0-0.7,0.1-1.4,0.3-2.1s0.4-1.3,0.7-1.7s0.5-0.8,0.8-1s0.5-0.4,0.8-0.5c0.3-0.1,0.6-0.2,0.9-0.2
				c0.6,0,1.1,0.2,1.6,0.7s0.6,1.1,0.6,2c0,0.9-0.1,1.8-0.4,2.7c-0.3,1-0.8,1.8-1.4,2.3c-0.5,0.4-1,0.6-1.6,0.6
				c-0.6,0-1.1-0.2-1.5-0.7C96.3,336.6,96.1,335.9,96.1,335z M97.1,335.2c0,0.5,0.1,0.9,0.2,1.2c0.2,0.4,0.6,0.6,1,0.6
				c0.4,0,0.7-0.2,1.1-0.5c0.5-0.5,0.8-1.2,1-2.2c0.2-1,0.3-1.7,0.3-2.3c0-0.6-0.1-1-0.3-1.3c-0.2-0.3-0.5-0.4-0.9-0.4
				c-0.3,0-0.5,0.1-0.7,0.2s-0.5,0.4-0.7,0.7c-0.3,0.5-0.6,1.2-0.8,2.1C97.2,334.1,97.1,334.7,97.1,335.2z"/>
			<path class="st0" d="M102.5,335c0-0.7,0.1-1.4,0.3-2.1s0.4-1.3,0.7-1.7c0.3-0.4,0.5-0.8,0.8-1c0.3-0.2,0.5-0.4,0.8-0.5
				c0.3-0.1,0.6-0.2,0.9-0.2c0.6,0,1.1,0.2,1.6,0.7s0.6,1.1,0.6,2c0,0.9-0.1,1.8-0.4,2.7c-0.3,1-0.8,1.8-1.4,2.3
				c-0.5,0.4-1,0.6-1.6,0.6c-0.6,0-1.1-0.2-1.5-0.7C102.7,336.6,102.5,335.9,102.5,335z M103.4,335.2c0,0.5,0.1,0.9,0.2,1.2
				c0.2,0.4,0.6,0.6,1,0.6c0.4,0,0.7-0.2,1.1-0.5c0.5-0.5,0.8-1.2,1-2.2c0.2-1,0.3-1.7,0.3-2.3c0-0.6-0.1-1-0.3-1.3
				c-0.2-0.3-0.5-0.4-0.9-0.4c-0.3,0-0.5,0.1-0.7,0.2c-0.2,0.1-0.5,0.4-0.7,0.7c-0.3,0.5-0.6,1.2-0.8,2.1
				C103.5,334.1,103.4,334.7,103.4,335.2z"/>
			<path class="st0" d="M108.6,337.6l0.2-1.1h1.1l-0.2,1.1H108.6z"/>
			<path class="st0" d="M111.9,335c0-0.7,0.1-1.4,0.3-2.1s0.4-1.3,0.7-1.7s0.5-0.8,0.8-1s0.5-0.4,0.8-0.5c0.3-0.1,0.6-0.2,0.9-0.2
				c0.6,0,1.1,0.2,1.6,0.7s0.6,1.1,0.6,2c0,0.9-0.1,1.8-0.4,2.7c-0.3,1-0.8,1.8-1.4,2.3c-0.5,0.4-1,0.6-1.6,0.6
				c-0.6,0-1.1-0.2-1.5-0.7C112.2,336.6,111.9,335.9,111.9,335z M112.9,335.2c0,0.5,0.1,0.9,0.2,1.2c0.2,0.4,0.6,0.6,1,0.6
				c0.4,0,0.7-0.2,1.1-0.5c0.5-0.5,0.8-1.2,1-2.2c0.2-1,0.3-1.7,0.3-2.3c0-0.6-0.1-1-0.3-1.3c-0.2-0.3-0.5-0.4-0.9-0.4
				c-0.3,0-0.5,0.1-0.7,0.2s-0.5,0.4-0.7,0.7c-0.3,0.5-0.6,1.2-0.8,2.1C113,334.1,112.9,334.7,112.9,335.2z"/>
			<path class="st0" d="M118.3,335c0-0.7,0.1-1.4,0.3-2.1s0.4-1.3,0.7-1.7c0.3-0.4,0.5-0.8,0.8-1c0.3-0.2,0.5-0.4,0.8-0.5
				c0.3-0.1,0.6-0.2,0.9-0.2c0.6,0,1.1,0.2,1.6,0.7s0.6,1.1,0.6,2c0,0.9-0.1,1.8-0.4,2.7c-0.3,1-0.8,1.8-1.4,2.3
				c-0.5,0.4-1,0.6-1.6,0.6c-0.6,0-1.1-0.2-1.5-0.7C118.5,336.6,118.3,335.9,118.3,335z M119.2,335.2c0,0.5,0.1,0.9,0.2,1.2
				c0.2,0.4,0.6,0.6,1,0.6c0.4,0,0.7-0.2,1.1-0.5c0.5-0.5,0.8-1.2,1-2.2c0.2-1,0.3-1.7,0.3-2.3c0-0.6-0.1-1-0.3-1.3
				c-0.2-0.3-0.5-0.4-0.9-0.4c-0.3,0-0.5,0.1-0.7,0.2c-0.2,0.1-0.5,0.4-0.7,0.7c-0.3,0.5-0.6,1.2-0.8,2.1
				C119.3,334.1,119.2,334.7,119.2,335.2z"/>
			<path class="st0" d="M124.6,335c0-0.7,0.1-1.4,0.3-2.1s0.4-1.3,0.7-1.7c0.3-0.4,0.5-0.8,0.8-1c0.3-0.2,0.5-0.4,0.8-0.5
				c0.3-0.1,0.6-0.2,0.9-0.2c0.6,0,1.1,0.2,1.6,0.7s0.6,1.1,0.6,2c0,0.9-0.1,1.8-0.4,2.7c-0.3,1-0.8,1.8-1.4,2.3
				c-0.5,0.4-1,0.6-1.6,0.6c-0.6,0-1.1-0.2-1.5-0.7C124.8,336.6,124.6,335.9,124.6,335z M125.6,335.2c0,0.5,0.1,0.9,0.2,1.2
				c0.2,0.4,0.6,0.6,1,0.6c0.4,0,0.7-0.2,1.1-0.5c0.5-0.5,0.8-1.2,1-2.2c0.2-1,0.3-1.7,0.3-2.3c0-0.6-0.1-1-0.3-1.3
				s-0.5-0.4-0.9-0.4c-0.3,0-0.5,0.1-0.7,0.2c-0.2,0.1-0.5,0.4-0.7,0.7c-0.3,0.5-0.6,1.2-0.8,2.1
				C125.7,334.1,125.6,334.7,125.6,335.2z"/>
		</g>
		<g class="st12">
			<path class="st0" d="M323.9,336.6v-8.1h1.6v8.1H323.9z"/>
			<path class="st0" d="M332.4,336.6h-1.6v-3c0-0.6,0-1-0.1-1.2c-0.1-0.2-0.2-0.3-0.3-0.4c-0.1-0.1-0.3-0.2-0.5-0.2
				c-0.3,0-0.5,0.1-0.7,0.2c-0.2,0.1-0.4,0.3-0.4,0.6s-0.1,0.7-0.1,1.4v2.7h-1.6v-5.9h1.4v0.9c0.5-0.7,1.2-1,1.9-1
				c0.3,0,0.7,0.1,0.9,0.2c0.3,0.1,0.5,0.3,0.6,0.5c0.1,0.2,0.2,0.4,0.3,0.7s0.1,0.6,0.1,1V336.6z"/>
			<path class="st0" d="M339.4,336.6H338v-0.9c-0.2,0.3-0.5,0.6-0.9,0.8c-0.3,0.2-0.7,0.2-1,0.2c-0.7,0-1.3-0.3-1.7-0.8
				c-0.5-0.5-0.7-1.3-0.7-2.3c0-1,0.2-1.8,0.7-2.3c0.5-0.5,1.1-0.8,1.8-0.8c0.7,0,1.2,0.3,1.7,0.8v-2.9h1.6V336.6z M335.3,333.5
				c0,0.6,0.1,1.1,0.3,1.4c0.3,0.4,0.6,0.6,1.1,0.6c0.4,0,0.7-0.2,0.9-0.5c0.3-0.3,0.4-0.8,0.4-1.4c0-0.7-0.1-1.2-0.4-1.5
				c-0.2-0.3-0.6-0.4-0.9-0.4c-0.4,0-0.7,0.1-0.9,0.4C335.4,332.5,335.3,332.9,335.3,333.5z"/>
			<path class="st0" d="M340.6,333.5c0-0.5,0.1-1,0.4-1.5c0.3-0.5,0.6-0.9,1.1-1.1c0.5-0.3,1-0.4,1.6-0.4c0.9,0,1.6,0.3,2.2,0.9
				c0.6,0.6,0.9,1.3,0.9,2.2c0,0.9-0.3,1.6-0.9,2.2c-0.6,0.6-1.3,0.9-2.2,0.9c-0.5,0-1.1-0.1-1.5-0.4c-0.5-0.2-0.9-0.6-1.1-1.1
				C340.7,334.8,340.6,334.2,340.6,333.5z M342.2,333.6c0,0.6,0.1,1,0.4,1.3s0.6,0.5,1,0.5c0.4,0,0.7-0.2,1-0.5
				c0.3-0.3,0.4-0.8,0.4-1.4c0-0.6-0.1-1-0.4-1.3c-0.3-0.3-0.6-0.5-1-0.5c-0.4,0-0.7,0.2-1,0.5S342.2,333,342.2,333.6z"/>
			<path class="st0" d="M353.3,336.6h-1.6v-3c0-0.6,0-1-0.1-1.2c-0.1-0.2-0.2-0.3-0.3-0.4c-0.1-0.1-0.3-0.2-0.5-0.2
				c-0.3,0-0.5,0.1-0.7,0.2c-0.2,0.1-0.4,0.3-0.4,0.6c-0.1,0.2-0.1,0.7-0.1,1.4v2.7h-1.6v-5.9h1.4v0.9c0.5-0.7,1.2-1,1.9-1
				c0.3,0,0.7,0.1,0.9,0.2c0.3,0.1,0.5,0.3,0.6,0.5c0.1,0.2,0.2,0.4,0.3,0.7c0.1,0.2,0.1,0.6,0.1,1V336.6z"/>
			<path class="st0" d="M358.3,334.7l1.6,0.3c-0.2,0.6-0.5,1-0.9,1.3c-0.4,0.3-1,0.4-1.6,0.4c-1,0-1.8-0.3-2.3-1
				c-0.4-0.5-0.6-1.2-0.6-2c0-1,0.3-1.7,0.8-2.3c0.5-0.6,1.2-0.8,1.9-0.8c0.9,0,1.6,0.3,2.1,0.9c0.5,0.6,0.7,1.5,0.7,2.7H356
				c0,0.5,0.1,0.8,0.4,1.1c0.2,0.3,0.5,0.4,0.9,0.4c0.2,0,0.4-0.1,0.6-0.2S358.2,335,358.3,334.7z M358.4,333.1c0-0.5-0.1-0.8-0.3-1
				c-0.2-0.2-0.5-0.4-0.8-0.4c-0.3,0-0.6,0.1-0.8,0.4c-0.2,0.2-0.3,0.6-0.3,1H358.4z"/>
			<path class="st0" d="M360.6,334.9l1.6-0.2c0.1,0.3,0.2,0.5,0.4,0.7c0.2,0.2,0.5,0.2,0.9,0.2c0.4,0,0.7-0.1,0.9-0.2
				c0.1-0.1,0.2-0.2,0.2-0.4c0-0.1,0-0.2-0.1-0.3c-0.1-0.1-0.3-0.1-0.5-0.2c-1.3-0.3-2.1-0.5-2.4-0.8c-0.5-0.3-0.7-0.8-0.7-1.3
				c0-0.5,0.2-0.9,0.6-1.3c0.4-0.3,1-0.5,1.9-0.5c0.8,0,1.4,0.1,1.8,0.4c0.4,0.3,0.7,0.7,0.8,1.2l-1.5,0.3c-0.1-0.2-0.2-0.4-0.4-0.5
				c-0.2-0.1-0.4-0.2-0.8-0.2c-0.4,0-0.7,0.1-0.9,0.2c-0.1,0.1-0.2,0.2-0.2,0.3c0,0.1,0.1,0.2,0.2,0.3c0.1,0.1,0.6,0.2,1.5,0.4
				c0.8,0.2,1.4,0.4,1.7,0.7c0.3,0.3,0.5,0.7,0.5,1.2c0,0.5-0.2,1-0.7,1.4c-0.5,0.4-1.1,0.6-2,0.6c-0.8,0-1.4-0.2-1.9-0.5
				C361.1,335.9,360.8,335.4,360.6,334.9z"/>
			<path class="st0" d="M367.5,329.9v-1.4h1.6v1.4H367.5z M367.5,336.6v-5.9h1.6v5.9H367.5z"/>
			<path class="st0" d="M371.8,332.5l-1.4-0.3c0.2-0.6,0.4-1,0.8-1.3c0.4-0.3,1-0.4,1.7-0.4c0.7,0,1.2,0.1,1.6,0.2
				c0.3,0.2,0.6,0.4,0.7,0.6c0.1,0.3,0.2,0.7,0.2,1.4l0,1.8c0,0.5,0,0.9,0.1,1.1c0,0.2,0.1,0.5,0.3,0.8h-1.5c0-0.1-0.1-0.3-0.1-0.5
				c0-0.1,0-0.2-0.1-0.2c-0.3,0.3-0.6,0.5-0.9,0.6c-0.3,0.1-0.6,0.2-1,0.2c-0.6,0-1.1-0.2-1.4-0.5c-0.3-0.3-0.5-0.7-0.5-1.2
				c0-0.3,0.1-0.6,0.2-0.9c0.2-0.3,0.4-0.5,0.7-0.6c0.3-0.1,0.7-0.3,1.2-0.4c0.7-0.1,1.2-0.3,1.5-0.4v-0.2c0-0.3-0.1-0.5-0.2-0.6
				c-0.1-0.1-0.4-0.2-0.8-0.2c-0.3,0-0.5,0.1-0.6,0.2C372.1,332,371.9,332.2,371.8,332.5z M373.9,333.7c-0.2,0.1-0.5,0.1-0.9,0.2
				c-0.4,0.1-0.7,0.2-0.8,0.3c-0.2,0.1-0.3,0.3-0.3,0.5c0,0.2,0.1,0.4,0.2,0.6c0.2,0.2,0.4,0.2,0.6,0.2c0.3,0,0.5-0.1,0.8-0.3
				c0.2-0.1,0.3-0.3,0.4-0.5c0-0.1,0.1-0.4,0.1-0.8V333.7z"/>
		</g>
		<g class="st12">
			<path class="st0" d="M322,346.7l1-0.1c0,0.1,0,0.2,0,0.3c0,0.2,0.1,0.5,0.2,0.7c0.1,0.2,0.3,0.4,0.5,0.6c0.2,0.1,0.4,0.2,0.7,0.2
				c0.3,0,0.6-0.1,0.9-0.3s0.6-0.5,0.8-0.9s0.3-0.8,0.3-1.2c0-0.5-0.1-0.8-0.4-1.1c-0.3-0.3-0.6-0.4-1.1-0.4c-0.3,0-0.6,0.1-0.8,0.2
				s-0.5,0.4-0.7,0.6l-0.9-0.1l1.2-4.2h4l-0.2,0.9h-3.1l-0.6,2.1c0.2-0.2,0.5-0.3,0.7-0.4c0.2-0.1,0.5-0.1,0.7-0.1
				c0.6,0,1.1,0.2,1.5,0.6s0.6,1,0.6,1.7c0,0.6-0.1,1.2-0.4,1.7c-0.3,0.5-0.7,0.9-1.1,1.2c-0.5,0.3-1,0.4-1.6,0.4
				c-0.5,0-0.9-0.1-1.2-0.3c-0.4-0.2-0.6-0.5-0.8-0.9c-0.2-0.4-0.3-0.7-0.3-1.1C322,346.9,322,346.8,322,346.7z"/>
			<path class="st0" d="M328.3,347.2l0.9-0.1c0.1,0.5,0.2,0.8,0.4,1s0.4,0.3,0.7,0.3c0.4,0,0.7-0.2,1.1-0.5c0.5-0.5,0.8-1.2,1.1-2.1
				c-0.3,0.3-0.6,0.4-0.9,0.5s-0.5,0.2-0.8,0.2c-0.5,0-0.9-0.2-1.3-0.5c-0.5-0.4-0.8-1.1-0.8-1.9c0-0.9,0.3-1.7,0.9-2.4
				c0.5-0.6,1.1-0.8,1.9-0.8c0.7,0,1.2,0.2,1.7,0.7c0.4,0.5,0.7,1.2,0.7,2.1c0,0.9-0.1,1.8-0.4,2.6c-0.4,1-0.8,1.8-1.4,2.2
				c-0.5,0.4-1,0.6-1.6,0.6c-0.6,0-1-0.2-1.4-0.5C328.5,348.3,328.3,347.8,328.3,347.2z M329.6,344c0,0.5,0.1,0.9,0.4,1.2
				s0.6,0.5,1,0.5c0.3,0,0.6-0.1,0.8-0.3s0.5-0.5,0.7-0.8c0.2-0.4,0.3-0.8,0.3-1.2c0-0.3-0.1-0.6-0.2-0.9s-0.3-0.5-0.5-0.6
				c-0.2-0.1-0.5-0.2-0.7-0.2c-0.2,0-0.4,0.1-0.7,0.2s-0.4,0.3-0.6,0.5s-0.3,0.5-0.4,0.8C329.7,343.5,329.6,343.7,329.6,344z"/>
			<path class="st0" d="M334.5,349.1l0.2-1.1h1.1l-0.2,1.1H334.5z"/>
			<path class="st0" d="M339.7,349.1l1.3-6.1c-0.6,0.4-1.3,0.8-2.3,1l0.2-0.9c0.5-0.2,1-0.5,1.5-0.8s0.9-0.6,1.1-0.8
				c0.1-0.1,0.3-0.3,0.4-0.5h0.6l-1.7,8.2H339.7z"/>
			<path class="st0" d="M344.1,346.4c0-0.7,0.1-1.4,0.3-2.1s0.4-1.3,0.7-1.7c0.3-0.4,0.5-0.8,0.8-1c0.3-0.2,0.5-0.4,0.8-0.5
				c0.3-0.1,0.6-0.2,0.9-0.2c0.6,0,1.1,0.2,1.6,0.7s0.6,1.1,0.6,2c0,0.9-0.1,1.8-0.4,2.7c-0.3,1-0.8,1.8-1.4,2.3
				c-0.5,0.4-1,0.6-1.6,0.6c-0.6,0-1.1-0.2-1.5-0.7C344.3,348,344.1,347.3,344.1,346.4z M345.1,346.6c0,0.5,0.1,0.9,0.2,1.2
				c0.2,0.4,0.6,0.6,1,0.6c0.4,0,0.7-0.2,1.1-0.5c0.5-0.5,0.8-1.2,1-2.2c0.2-1,0.3-1.7,0.3-2.3c0-0.6-0.1-1-0.3-1.3
				c-0.2-0.3-0.5-0.4-0.9-0.4c-0.3,0-0.5,0.1-0.7,0.2c-0.2,0.1-0.5,0.4-0.7,0.7c-0.3,0.5-0.6,1.2-0.8,2.1
				C345.2,345.5,345.1,346.2,345.1,346.6z"/>
			<path class="st0" d="M350.4,346.4c0-0.7,0.1-1.4,0.3-2.1s0.4-1.3,0.7-1.7c0.3-0.4,0.5-0.8,0.8-1c0.3-0.2,0.5-0.4,0.8-0.5
				c0.3-0.1,0.6-0.2,0.9-0.2c0.6,0,1.1,0.2,1.6,0.7s0.6,1.1,0.6,2c0,0.9-0.1,1.8-0.4,2.7c-0.3,1-0.8,1.8-1.4,2.3
				c-0.5,0.4-1,0.6-1.6,0.6c-0.6,0-1.1-0.2-1.5-0.7C350.7,348,350.4,347.3,350.4,346.4z M351.4,346.6c0,0.5,0.1,0.9,0.2,1.2
				c0.2,0.4,0.6,0.6,1,0.6c0.4,0,0.7-0.2,1.1-0.5c0.5-0.5,0.8-1.2,1-2.2c0.2-1,0.3-1.7,0.3-2.3c0-0.6-0.1-1-0.3-1.3
				c-0.2-0.3-0.5-0.4-0.9-0.4c-0.3,0-0.5,0.1-0.7,0.2c-0.2,0.1-0.5,0.4-0.7,0.7c-0.3,0.5-0.6,1.2-0.8,2.1
				C351.5,345.5,351.4,346.2,351.4,346.6z"/>
			<path class="st0" d="M356.6,349.1l0.2-1.1h1.1l-0.2,1.1H356.6z"/>
			<path class="st0" d="M359.9,346.4c0-0.7,0.1-1.4,0.3-2.1s0.4-1.3,0.7-1.7c0.3-0.4,0.5-0.8,0.8-1c0.3-0.2,0.5-0.4,0.8-0.5
				c0.3-0.1,0.6-0.2,0.9-0.2c0.6,0,1.1,0.2,1.6,0.7s0.6,1.1,0.6,2c0,0.9-0.1,1.8-0.4,2.7c-0.3,1-0.8,1.8-1.4,2.3
				c-0.5,0.4-1,0.6-1.6,0.6c-0.6,0-1.1-0.2-1.5-0.7C360.1,348,359.9,347.3,359.9,346.4z M360.9,346.6c0,0.5,0.1,0.9,0.2,1.2
				c0.2,0.4,0.6,0.6,1,0.6c0.4,0,0.7-0.2,1.1-0.5c0.5-0.5,0.8-1.2,1-2.2c0.2-1,0.3-1.7,0.3-2.3c0-0.6-0.1-1-0.3-1.3
				c-0.2-0.3-0.5-0.4-0.9-0.4c-0.3,0-0.5,0.1-0.7,0.2c-0.2,0.1-0.5,0.4-0.7,0.7c-0.3,0.5-0.6,1.2-0.8,2.1
				C361,345.5,360.9,346.2,360.9,346.6z"/>
			<path class="st0" d="M366.3,346.4c0-0.7,0.1-1.4,0.3-2.1s0.4-1.3,0.7-1.7c0.3-0.4,0.5-0.8,0.8-1c0.3-0.2,0.5-0.4,0.8-0.5
				c0.3-0.1,0.6-0.2,0.9-0.2c0.6,0,1.1,0.2,1.6,0.7s0.6,1.1,0.6,2c0,0.9-0.1,1.8-0.4,2.7c-0.3,1-0.8,1.8-1.4,2.3
				c-0.5,0.4-1,0.6-1.6,0.6c-0.6,0-1.1-0.2-1.5-0.7C366.5,348,366.3,347.3,366.3,346.4z M367.2,346.6c0,0.5,0.1,0.9,0.2,1.2
				c0.2,0.4,0.6,0.6,1,0.6c0.4,0,0.7-0.2,1.1-0.5c0.5-0.5,0.8-1.2,1-2.2c0.2-1,0.3-1.7,0.3-2.3c0-0.6-0.1-1-0.3-1.3
				c-0.2-0.3-0.5-0.4-0.9-0.4c-0.3,0-0.5,0.1-0.7,0.2c-0.2,0.1-0.5,0.4-0.7,0.7c-0.3,0.5-0.6,1.2-0.8,2.1
				C367.3,345.5,367.2,346.2,367.2,346.6z"/>
			<path class="st0" d="M372.6,346.4c0-0.7,0.1-1.4,0.3-2.1s0.4-1.3,0.7-1.7c0.3-0.4,0.5-0.8,0.8-1c0.3-0.2,0.5-0.4,0.8-0.5
				c0.3-0.1,0.6-0.2,0.9-0.2c0.6,0,1.1,0.2,1.6,0.7s0.6,1.1,0.6,2c0,0.9-0.1,1.8-0.4,2.7c-0.3,1-0.8,1.8-1.4,2.3
				c-0.5,0.4-1,0.6-1.6,0.6c-0.6,0-1.1-0.2-1.5-0.7C372.8,348,372.6,347.3,372.6,346.4z M373.6,346.6c0,0.5,0.1,0.9,0.2,1.2
				c0.2,0.4,0.6,0.6,1,0.6c0.4,0,0.7-0.2,1.1-0.5c0.5-0.5,0.8-1.2,1-2.2c0.2-1,0.3-1.7,0.3-2.3c0-0.6-0.1-1-0.3-1.3
				c-0.2-0.3-0.5-0.4-0.9-0.4c-0.3,0-0.5,0.1-0.7,0.2c-0.2,0.1-0.5,0.4-0.7,0.7c-0.3,0.5-0.6,1.2-0.8,2.1
				C373.7,345.5,373.6,346.2,373.6,346.6z"/>
		</g>
		<g class="st12">
			<path class="st0" d="M151.2,496.9l1.6,0.5c-0.2,0.9-0.7,1.5-1.2,2c-0.6,0.4-1.3,0.6-2.2,0.6c-1.1,0-2-0.4-2.7-1.1
				c-0.7-0.7-1-1.7-1-3c0-1.4,0.3-2.4,1-3.2c0.7-0.8,1.6-1.1,2.8-1.1c1,0,1.8,0.3,2.4,0.9c0.4,0.3,0.6,0.8,0.8,1.5l-1.6,0.4
				c-0.1-0.4-0.3-0.8-0.6-1s-0.7-0.4-1.1-0.4c-0.6,0-1.1,0.2-1.5,0.6s-0.6,1.1-0.6,2.1c0,1,0.2,1.8,0.6,2.2c0.4,0.4,0.9,0.7,1.4,0.7
				c0.4,0,0.8-0.1,1.1-0.4S151.1,497.5,151.2,496.9z"/>
			<path class="st0" d="M153.9,496.9c0-0.5,0.1-1,0.4-1.5c0.3-0.5,0.6-0.9,1.1-1.1s1-0.4,1.6-0.4c0.9,0,1.6,0.3,2.2,0.9
				c0.6,0.6,0.9,1.3,0.9,2.2c0,0.9-0.3,1.6-0.9,2.2c-0.6,0.6-1.3,0.9-2.2,0.9c-0.5,0-1.1-0.1-1.5-0.4s-0.9-0.6-1.1-1.1
				C154,498.2,153.9,497.6,153.9,496.9z M155.5,497c0,0.6,0.1,1,0.4,1.3s0.6,0.5,1,0.5s0.7-0.2,1-0.5s0.4-0.8,0.4-1.4
				c0-0.6-0.1-1-0.4-1.3s-0.6-0.5-1-0.5s-0.7,0.2-1,0.5S155.5,496.4,155.5,497z"/>
			<path class="st0" d="M162.7,499.9h-1.6V494h1.4v0.8c0.2-0.4,0.5-0.7,0.7-0.8c0.2-0.1,0.4-0.2,0.7-0.2c0.4,0,0.7,0.1,1,0.3
				l-0.5,1.4c-0.3-0.2-0.5-0.3-0.7-0.3c-0.2,0-0.4,0.1-0.6,0.2c-0.2,0.1-0.3,0.3-0.4,0.7c-0.1,0.3-0.1,1-0.1,2V499.9z"/>
			<path class="st0" d="M169,498.1l1.6,0.3c-0.2,0.6-0.5,1-0.9,1.3c-0.4,0.3-1,0.4-1.6,0.4c-1,0-1.8-0.3-2.3-1
				c-0.4-0.5-0.6-1.2-0.6-2c0-1,0.3-1.7,0.8-2.3c0.5-0.6,1.2-0.8,1.9-0.8c0.9,0,1.6,0.3,2.1,0.9c0.5,0.6,0.7,1.5,0.7,2.7h-3.9
				c0,0.5,0.1,0.8,0.4,1.1c0.2,0.3,0.5,0.4,0.9,0.4c0.2,0,0.4-0.1,0.6-0.2S168.9,498.4,169,498.1z M169.1,496.5c0-0.5-0.1-0.8-0.3-1
				c-0.2-0.2-0.5-0.4-0.8-0.4c-0.3,0-0.6,0.1-0.8,0.4c-0.2,0.2-0.3,0.6-0.3,1H169.1z"/>
			<path class="st0" d="M173.1,495.8l-1.4-0.3c0.2-0.6,0.4-1,0.8-1.3c0.4-0.3,1-0.4,1.7-0.4c0.7,0,1.2,0.1,1.6,0.2
				c0.3,0.2,0.6,0.4,0.7,0.6c0.1,0.3,0.2,0.7,0.2,1.4l0,1.8c0,0.5,0,0.9,0.1,1.1c0,0.2,0.1,0.5,0.3,0.8h-1.5c0-0.1-0.1-0.3-0.1-0.5
				c0-0.1,0-0.2-0.1-0.2c-0.3,0.3-0.6,0.5-0.9,0.6c-0.3,0.1-0.6,0.2-1,0.2c-0.6,0-1.1-0.2-1.4-0.5c-0.3-0.3-0.5-0.7-0.5-1.2
				c0-0.3,0.1-0.6,0.2-0.9c0.2-0.3,0.4-0.5,0.7-0.6c0.3-0.1,0.7-0.3,1.2-0.4c0.7-0.1,1.2-0.3,1.5-0.4v-0.2c0-0.3-0.1-0.5-0.2-0.6
				c-0.1-0.1-0.4-0.2-0.8-0.2c-0.3,0-0.5,0.1-0.6,0.2C173.3,495.4,173.2,495.6,173.1,495.8z M175.2,497.1c-0.2,0.1-0.5,0.1-0.9,0.2
				c-0.4,0.1-0.7,0.2-0.8,0.3c-0.2,0.1-0.3,0.3-0.3,0.5c0,0.2,0.1,0.4,0.2,0.6c0.2,0.2,0.4,0.2,0.6,0.2c0.3,0,0.5-0.1,0.8-0.3
				c0.2-0.1,0.3-0.3,0.4-0.5c0-0.1,0.1-0.4,0.1-0.8V497.1z"/>
			<path class="st0" d="M186.8,499.9h-1.4v-0.9c-0.2,0.3-0.5,0.6-0.9,0.8c-0.3,0.2-0.7,0.2-1,0.2c-0.7,0-1.3-0.3-1.7-0.8
				c-0.5-0.5-0.7-1.3-0.7-2.3c0-1,0.2-1.8,0.7-2.3c0.5-0.5,1.1-0.8,1.8-0.8c0.7,0,1.2,0.3,1.7,0.8v-2.9h1.6V499.9z M182.7,496.9
				c0,0.6,0.1,1.1,0.3,1.4c0.3,0.4,0.6,0.6,1.1,0.6c0.4,0,0.7-0.2,0.9-0.5c0.3-0.3,0.4-0.8,0.4-1.4c0-0.7-0.1-1.2-0.4-1.5
				c-0.2-0.3-0.6-0.4-0.9-0.4c-0.4,0-0.7,0.1-0.9,0.4C182.8,495.8,182.7,496.3,182.7,496.9z"/>
			<path class="st0" d="M191.8,498.1l1.6,0.3c-0.2,0.6-0.5,1-0.9,1.3c-0.4,0.3-1,0.4-1.6,0.4c-1,0-1.8-0.3-2.3-1
				c-0.4-0.5-0.6-1.2-0.6-2c0-1,0.3-1.7,0.8-2.3c0.5-0.6,1.2-0.8,1.9-0.8c0.9,0,1.6,0.3,2.1,0.9c0.5,0.6,0.7,1.5,0.7,2.7h-3.9
				c0,0.5,0.1,0.8,0.4,1.1c0.2,0.3,0.5,0.4,0.9,0.4c0.2,0,0.4-0.1,0.6-0.2S191.7,498.4,191.8,498.1z M191.9,496.5
				c0-0.5-0.1-0.8-0.3-1c-0.2-0.2-0.5-0.4-0.8-0.4c-0.3,0-0.6,0.1-0.8,0.4c-0.2,0.2-0.3,0.6-0.3,1H191.9z"/>
			<path class="st0" d="M194.7,499.9v-8.1h1.6v8.1H194.7z"/>
			<path class="st0" d="M200.6,497.3l1.6-0.2c0.1,0.5,0.3,0.9,0.6,1.2c0.3,0.3,0.7,0.4,1.2,0.4c0.5,0,0.9-0.1,1.2-0.3
				c0.3-0.2,0.4-0.5,0.4-0.8c0-0.2-0.1-0.4-0.2-0.5c-0.1-0.1-0.3-0.3-0.6-0.4c-0.2-0.1-0.6-0.2-1.3-0.4c-0.9-0.2-1.5-0.5-1.9-0.8
				c-0.5-0.4-0.7-1-0.7-1.6c0-0.4,0.1-0.8,0.4-1.2c0.2-0.4,0.6-0.6,1-0.8c0.4-0.2,1-0.3,1.6-0.3c1,0,1.8,0.2,2.3,0.7
				c0.5,0.4,0.8,1,0.8,1.8l-1.6,0.1c-0.1-0.4-0.2-0.7-0.5-0.9c-0.2-0.2-0.6-0.3-1-0.3c-0.5,0-0.9,0.1-1.1,0.3
				c-0.2,0.1-0.3,0.3-0.3,0.5c0,0.2,0.1,0.4,0.2,0.5c0.2,0.2,0.7,0.4,1.5,0.5s1.4,0.4,1.8,0.6c0.4,0.2,0.7,0.5,0.9,0.8
				c0.2,0.3,0.3,0.8,0.3,1.3c0,0.5-0.1,0.9-0.4,1.3c-0.3,0.4-0.6,0.7-1.1,0.9c-0.5,0.2-1.1,0.3-1.8,0.3c-1,0-1.8-0.2-2.4-0.7
				C201.1,498.9,200.7,498.2,200.6,497.3z"/>
			<path class="st0" d="M212.5,499.9V499c-0.2,0.3-0.5,0.6-0.8,0.7c-0.3,0.2-0.7,0.3-1.1,0.3c-0.4,0-0.8-0.1-1.1-0.3
				c-0.3-0.2-0.5-0.4-0.7-0.7c-0.1-0.3-0.2-0.7-0.2-1.3V494h1.6v2.7c0,0.8,0,1.3,0.1,1.5c0.1,0.2,0.2,0.3,0.3,0.4
				c0.2,0.1,0.3,0.2,0.6,0.2c0.3,0,0.5-0.1,0.7-0.2c0.2-0.1,0.4-0.3,0.4-0.5c0.1-0.2,0.1-0.7,0.1-1.6V494h1.6v5.9H212.5z"/>
			<path class="st0" d="M217.1,499.9h-1.6V494h1.4v0.8c0.2-0.4,0.5-0.7,0.7-0.8c0.2-0.1,0.4-0.2,0.7-0.2c0.4,0,0.7,0.1,1,0.3
				l-0.5,1.4c-0.3-0.2-0.5-0.3-0.7-0.3c-0.2,0-0.4,0.1-0.6,0.2c-0.2,0.1-0.3,0.3-0.4,0.7c-0.1,0.3-0.1,1-0.1,2V499.9z"/>
		</g>
		<g class="st12">
			<path class="st0" d="M157.1,512.4l0.4-2.1h-3.3l0.2-1l4.6-5.1h0.8l-1.1,5.2h1.1l-0.2,0.9h-1.1l-0.4,2.1H157.1z M157.7,509.5
				l0.7-3.4l-3,3.4H157.7z"/>
			<path class="st0" d="M160.7,510.3l1-0.1c0.1,0.6,0.2,1,0.5,1.2c0.3,0.2,0.6,0.4,1,0.4c0.5,0,0.9-0.2,1.3-0.5s0.5-0.8,0.5-1.2
				c0-0.4-0.1-0.7-0.4-1c-0.3-0.3-0.6-0.4-1.1-0.4c-0.1,0-0.2,0-0.3,0l0.2-0.8c0.1,0,0.2,0,0.3,0c0.6,0,1-0.1,1.3-0.4
				c0.3-0.3,0.5-0.6,0.5-1c0-0.4-0.1-0.7-0.4-0.9c-0.3-0.3-0.6-0.4-0.9-0.4c-0.4,0-0.7,0.1-1,0.4c-0.3,0.3-0.5,0.6-0.6,1.1l-1-0.2
				c0.2-0.7,0.5-1.2,0.9-1.6c0.5-0.4,1-0.5,1.6-0.5c0.7,0,1.2,0.2,1.6,0.6c0.4,0.4,0.6,0.9,0.6,1.5c0,0.4-0.1,0.8-0.3,1.1
				c-0.2,0.3-0.6,0.6-1,0.8c0.3,0.2,0.6,0.4,0.7,0.7c0.2,0.3,0.2,0.6,0.2,0.9c0,0.7-0.3,1.4-0.8,1.9c-0.5,0.5-1.2,0.8-2,0.8
				c-0.7,0-1.3-0.2-1.8-0.6C161,511.6,160.7,511,160.7,510.3z"/>
			<path class="st0" d="M167,512.4l0.2-1.1h1.1l-0.2,1.1H167z"/>
			<path class="st0" d="M170.2,512.4c0.1-0.5,0.2-0.9,0.4-1.2c0.2-0.3,0.4-0.6,0.7-0.9c0.3-0.3,0.9-0.8,1.8-1.5
				c0.5-0.4,0.9-0.7,1.1-0.9c0.3-0.3,0.5-0.6,0.6-0.8c0.1-0.2,0.1-0.4,0.1-0.6c0-0.4-0.1-0.7-0.4-1c-0.3-0.3-0.6-0.4-1-0.4
				c-0.4,0-0.7,0.1-1,0.4c-0.3,0.3-0.5,0.7-0.6,1.3l-1-0.1c0.1-0.7,0.4-1.3,0.8-1.7c0.5-0.4,1-0.6,1.7-0.6c0.5,0,0.9,0.1,1.3,0.3
				s0.7,0.5,0.8,0.8s0.3,0.7,0.3,1.1c0,0.5-0.2,1.1-0.6,1.6c-0.2,0.3-0.9,0.9-2.1,1.8c-0.5,0.4-0.9,0.7-1.1,1
				c-0.2,0.3-0.4,0.5-0.5,0.7h3.6l-0.2,0.9H170.2z"/>
			<path class="st0" d="M176.7,509.8c0-0.7,0.1-1.4,0.3-2.1s0.4-1.3,0.7-1.7s0.5-0.8,0.8-1s0.5-0.4,0.8-0.5c0.3-0.1,0.6-0.2,0.9-0.2
				c0.6,0,1.1,0.2,1.6,0.7s0.6,1.1,0.6,2c0,0.9-0.1,1.8-0.4,2.7c-0.3,1-0.8,1.8-1.4,2.3c-0.5,0.4-1,0.6-1.6,0.6
				c-0.6,0-1.1-0.2-1.5-0.7C176.9,511.4,176.7,510.7,176.7,509.8z M177.6,510c0,0.5,0.1,0.9,0.2,1.2c0.2,0.4,0.6,0.6,1,0.6
				c0.4,0,0.7-0.2,1.1-0.5c0.5-0.5,0.8-1.2,1-2.2c0.2-1,0.3-1.7,0.3-2.3c0-0.6-0.1-1-0.3-1.3s-0.5-0.4-0.9-0.4
				c-0.3,0-0.5,0.1-0.7,0.2s-0.5,0.4-0.7,0.7c-0.3,0.5-0.6,1.2-0.8,2.1C177.7,508.9,177.6,509.5,177.6,510z"/>
			<path class="st0" d="M183,509.8c0-0.7,0.1-1.4,0.3-2.1s0.4-1.3,0.7-1.7s0.5-0.8,0.8-1s0.5-0.4,0.8-0.5c0.3-0.1,0.6-0.2,0.9-0.2
				c0.6,0,1.1,0.2,1.6,0.7s0.6,1.1,0.6,2c0,0.9-0.1,1.8-0.4,2.7c-0.3,1-0.8,1.8-1.4,2.3c-0.5,0.4-1,0.6-1.6,0.6
				c-0.6,0-1.1-0.2-1.5-0.7C183.2,511.4,183,510.7,183,509.8z M184,510c0,0.5,0.1,0.9,0.2,1.2c0.2,0.4,0.6,0.6,1,0.6
				c0.4,0,0.7-0.2,1.1-0.5c0.5-0.5,0.8-1.2,1-2.2c0.2-1,0.3-1.7,0.3-2.3c0-0.6-0.1-1-0.3-1.3s-0.5-0.4-0.9-0.4
				c-0.3,0-0.5,0.1-0.7,0.2s-0.5,0.4-0.7,0.7c-0.3,0.5-0.6,1.2-0.8,2.1C184.1,508.9,184,509.5,184,510z"/>
			<path class="st0" d="M189.2,512.4l0.2-1.1h1.1l-0.2,1.1H189.2z"/>
			<path class="st0" d="M192.5,509.8c0-0.7,0.1-1.4,0.3-2.1s0.4-1.3,0.7-1.7c0.3-0.4,0.5-0.8,0.8-1c0.3-0.2,0.5-0.4,0.8-0.5
				c0.3-0.1,0.6-0.2,0.9-0.2c0.6,0,1.1,0.2,1.6,0.7s0.6,1.1,0.6,2c0,0.9-0.1,1.8-0.4,2.7c-0.3,1-0.8,1.8-1.4,2.3
				c-0.5,0.4-1,0.6-1.6,0.6c-0.6,0-1.1-0.2-1.5-0.7C192.7,511.4,192.5,510.7,192.5,509.8z M193.5,510c0,0.5,0.1,0.9,0.2,1.2
				c0.2,0.4,0.6,0.6,1,0.6c0.4,0,0.7-0.2,1.1-0.5c0.5-0.5,0.8-1.2,1-2.2c0.2-1,0.3-1.7,0.3-2.3c0-0.6-0.1-1-0.3-1.3
				c-0.2-0.3-0.5-0.4-0.9-0.4c-0.3,0-0.5,0.1-0.7,0.2c-0.2,0.1-0.5,0.4-0.7,0.7c-0.3,0.5-0.6,1.2-0.8,2.1
				C193.5,508.9,193.5,509.5,193.5,510z"/>
			<path class="st0" d="M198.8,509.8c0-0.7,0.1-1.4,0.3-2.1s0.4-1.3,0.7-1.7c0.3-0.4,0.5-0.8,0.8-1c0.3-0.2,0.5-0.4,0.8-0.5
				c0.3-0.1,0.6-0.2,0.9-0.2c0.6,0,1.1,0.2,1.6,0.7s0.6,1.1,0.6,2c0,0.9-0.1,1.8-0.4,2.7c-0.3,1-0.8,1.8-1.4,2.3
				c-0.5,0.4-1,0.6-1.6,0.6c-0.6,0-1.1-0.2-1.5-0.7C199,511.4,198.8,510.7,198.8,509.8z M199.8,510c0,0.5,0.1,0.9,0.2,1.2
				c0.2,0.4,0.6,0.6,1,0.6c0.4,0,0.7-0.2,1.1-0.5c0.5-0.5,0.8-1.2,1-2.2c0.2-1,0.3-1.7,0.3-2.3c0-0.6-0.1-1-0.3-1.3
				c-0.2-0.3-0.5-0.4-0.9-0.4c-0.3,0-0.5,0.1-0.7,0.2c-0.2,0.1-0.5,0.4-0.7,0.7c-0.3,0.5-0.6,1.2-0.8,2.1
				C199.9,508.9,199.8,509.5,199.8,510z"/>
			<path class="st0" d="M205.1,509.8c0-0.7,0.1-1.4,0.3-2.1s0.4-1.3,0.7-1.7s0.5-0.8,0.8-1s0.5-0.4,0.8-0.5c0.3-0.1,0.6-0.2,0.9-0.2
				c0.6,0,1.1,0.2,1.6,0.7s0.6,1.1,0.6,2c0,0.9-0.1,1.8-0.4,2.7c-0.3,1-0.8,1.8-1.4,2.3c-0.5,0.4-1,0.6-1.6,0.6
				c-0.6,0-1.1-0.2-1.5-0.7C205.3,511.4,205.1,510.7,205.1,509.8z M206.1,510c0,0.5,0.1,0.9,0.2,1.2c0.2,0.4,0.6,0.6,1,0.6
				c0.4,0,0.7-0.2,1.1-0.5c0.5-0.5,0.8-1.2,1-2.2c0.2-1,0.3-1.7,0.3-2.3c0-0.6-0.1-1-0.3-1.3s-0.5-0.4-0.9-0.4
				c-0.3,0-0.5,0.1-0.7,0.2s-0.5,0.4-0.7,0.7c-0.3,0.5-0.6,1.2-0.8,2.1C206.2,508.9,206.1,509.5,206.1,510z"/>
		</g>
		<g class="st12">
			<path class="st0" d="M262.4,135v-8.1h5.6v1.4h-3.9v1.9h3.4v1.4h-3.4v3.5H262.4z"/>
			<path class="st0" d="M269.4,128.3v-1.4h1.6v1.4H269.4z M269.4,135v-5.9h1.6v5.9H269.4z"/>
			<path class="st0" d="M272.5,135v-8.1h1.6v8.1H272.5z"/>
			<path class="st0" d="M275.7,128.3v-1.4h1.6v1.4H275.7z M275.7,135v-5.9h1.6v5.9H275.7z"/>
			<path class="st0" d="M278.8,129.1h1.5v0.9c0.2-0.3,0.4-0.5,0.8-0.7c0.3-0.2,0.7-0.3,1.1-0.3c0.7,0,1.3,0.3,1.7,0.8
				c0.5,0.5,0.7,1.3,0.7,2.2c0,1-0.2,1.8-0.7,2.3c-0.5,0.5-1.1,0.8-1.7,0.8c-0.3,0-0.6-0.1-0.9-0.2c-0.3-0.1-0.5-0.4-0.8-0.7v3h-1.6
				V129.1z M280.3,131.9c0,0.7,0.1,1.2,0.4,1.5c0.3,0.3,0.6,0.5,1,0.5c0.4,0,0.7-0.1,0.9-0.4c0.2-0.3,0.4-0.8,0.4-1.4
				c0-0.6-0.1-1.1-0.4-1.4c-0.2-0.3-0.6-0.4-0.9-0.4c-0.4,0-0.7,0.1-0.9,0.4C280.5,130.9,280.3,131.4,280.3,131.9z"/>
			<path class="st0" d="M285.8,128.3v-1.4h1.6v1.4H285.8z M285.8,135v-5.9h1.6v5.9H285.8z"/>
			<path class="st0" d="M294.3,135h-1.6v-3c0-0.6,0-1-0.1-1.2c-0.1-0.2-0.2-0.3-0.3-0.4c-0.1-0.1-0.3-0.2-0.5-0.2
				c-0.3,0-0.5,0.1-0.7,0.2c-0.2,0.1-0.4,0.3-0.4,0.6c-0.1,0.2-0.1,0.7-0.1,1.4v2.7h-1.6v-5.9h1.4v0.9c0.5-0.7,1.2-1,1.9-1
				c0.3,0,0.7,0.1,0.9,0.2c0.3,0.1,0.5,0.3,0.6,0.5c0.1,0.2,0.2,0.4,0.3,0.7c0.1,0.2,0.1,0.6,0.1,1V135z"/>
			<path class="st0" d="M297.1,130.9l-1.4-0.3c0.2-0.6,0.4-1,0.8-1.3c0.4-0.3,1-0.4,1.7-0.4c0.7,0,1.2,0.1,1.6,0.2
				c0.3,0.2,0.6,0.4,0.7,0.6c0.1,0.3,0.2,0.7,0.2,1.4l0,1.8c0,0.5,0,0.9,0.1,1.1c0,0.2,0.1,0.5,0.3,0.8h-1.5c0-0.1-0.1-0.3-0.1-0.5
				c0-0.1,0-0.2-0.1-0.2c-0.3,0.3-0.6,0.5-0.9,0.6c-0.3,0.1-0.6,0.2-1,0.2c-0.6,0-1.1-0.2-1.4-0.5c-0.3-0.3-0.5-0.7-0.5-1.2
				c0-0.3,0.1-0.6,0.2-0.9c0.2-0.3,0.4-0.5,0.7-0.6c0.3-0.1,0.7-0.3,1.2-0.4c0.7-0.1,1.2-0.3,1.5-0.4V131c0-0.3-0.1-0.5-0.2-0.6
				c-0.1-0.1-0.4-0.2-0.8-0.2c-0.3,0-0.5,0.1-0.6,0.2C297.3,130.4,297.2,130.6,297.1,130.9z M299.2,132.1c-0.2,0.1-0.5,0.1-0.9,0.2
				c-0.4,0.1-0.7,0.2-0.8,0.3c-0.2,0.1-0.3,0.3-0.3,0.5c0,0.2,0.1,0.4,0.2,0.6c0.2,0.2,0.4,0.2,0.6,0.2c0.3,0,0.5-0.1,0.8-0.3
				c0.2-0.1,0.3-0.3,0.4-0.5c0-0.1,0.1-0.4,0.1-0.8V132.1z"/>
			<path class="st0" d="M301.7,133.3l1.6-0.2c0.1,0.3,0.2,0.5,0.4,0.7c0.2,0.2,0.5,0.2,0.9,0.2c0.4,0,0.7-0.1,0.9-0.2
				c0.1-0.1,0.2-0.2,0.2-0.4c0-0.1,0-0.2-0.1-0.3c-0.1-0.1-0.3-0.1-0.5-0.2c-1.3-0.3-2.1-0.5-2.4-0.8c-0.5-0.3-0.7-0.8-0.7-1.3
				c0-0.5,0.2-0.9,0.6-1.3c0.4-0.3,1-0.5,1.9-0.5c0.8,0,1.4,0.1,1.8,0.4c0.4,0.3,0.7,0.7,0.8,1.2l-1.5,0.3c-0.1-0.2-0.2-0.4-0.4-0.5
				c-0.2-0.1-0.4-0.2-0.8-0.2c-0.4,0-0.7,0.1-0.9,0.2c-0.1,0.1-0.2,0.2-0.2,0.3c0,0.1,0.1,0.2,0.2,0.3c0.1,0.1,0.6,0.2,1.5,0.4
				c0.8,0.2,1.4,0.4,1.7,0.7c0.3,0.3,0.5,0.7,0.5,1.2c0,0.5-0.2,1-0.7,1.4c-0.5,0.4-1.1,0.6-2,0.6c-0.8,0-1.4-0.2-1.9-0.5
				C302.1,134.3,301.8,133.9,301.7,133.3z"/>
		</g>
		<g class="st12">
			<path class="st0" d="M259.6,147.5l0.4-2.1h-3.3l0.2-1l4.6-5.1h0.8l-1.1,5.2h1.1l-0.2,0.9H261l-0.4,2.1H259.6z M260.2,144.5
				l0.7-3.4l-3,3.4H260.2z"/>
			<path class="st0" d="M265.3,147.5l1.3-6.1c-0.6,0.4-1.3,0.8-2.3,1l0.2-0.9c0.5-0.2,1-0.5,1.5-0.8c0.5-0.3,0.9-0.6,1.1-0.8
				c0.1-0.1,0.3-0.3,0.4-0.5h0.6l-1.7,8.2H265.3z"/>
			<path class="st0" d="M269.5,147.5l0.2-1.1h1.1l-0.2,1.1H269.5z"/>
			<path class="st0" d="M272.8,145.2l1-0.1c0,0.1,0,0.2,0,0.3c0,0.2,0.1,0.5,0.2,0.7c0.1,0.2,0.3,0.4,0.5,0.6
				c0.2,0.1,0.4,0.2,0.7,0.2c0.3,0,0.6-0.1,0.9-0.3c0.3-0.2,0.6-0.5,0.8-0.9s0.3-0.8,0.3-1.2c0-0.5-0.1-0.8-0.4-1.1
				c-0.3-0.3-0.6-0.4-1.1-0.4c-0.3,0-0.6,0.1-0.8,0.2c-0.3,0.1-0.5,0.4-0.7,0.6l-0.9-0.1l1.2-4.2h4l-0.2,0.9h-3.1l-0.6,2.1
				c0.2-0.2,0.5-0.3,0.7-0.4c0.2-0.1,0.5-0.1,0.7-0.1c0.6,0,1.1,0.2,1.5,0.6s0.6,1,0.6,1.7c0,0.6-0.1,1.2-0.4,1.7
				c-0.3,0.5-0.7,0.9-1.1,1.2c-0.5,0.3-1,0.4-1.6,0.4c-0.5,0-0.9-0.1-1.2-0.3s-0.6-0.5-0.8-0.9c-0.2-0.4-0.3-0.7-0.3-1.1
				C272.8,145.3,272.8,145.2,272.8,145.2z"/>
			<path class="st0" d="M279.1,144.8c0-0.7,0.1-1.4,0.3-2.1s0.4-1.3,0.7-1.7c0.3-0.4,0.5-0.8,0.8-1c0.3-0.2,0.5-0.4,0.8-0.5
				c0.3-0.1,0.6-0.2,0.9-0.2c0.6,0,1.1,0.2,1.6,0.7c0.4,0.5,0.6,1.1,0.6,2c0,0.9-0.1,1.8-0.4,2.7c-0.3,1-0.8,1.8-1.4,2.3
				c-0.5,0.4-1,0.6-1.6,0.6c-0.6,0-1.1-0.2-1.5-0.7C279.4,146.4,279.1,145.7,279.1,144.8z M280.1,145.1c0,0.5,0.1,0.9,0.2,1.2
				c0.2,0.4,0.6,0.6,1,0.6c0.4,0,0.7-0.2,1.1-0.5c0.5-0.5,0.8-1.2,1-2.2c0.2-1,0.3-1.7,0.3-2.3c0-0.6-0.1-1-0.3-1.3
				c-0.2-0.3-0.5-0.4-0.9-0.4c-0.3,0-0.5,0.1-0.7,0.2c-0.2,0.1-0.5,0.4-0.7,0.7c-0.3,0.5-0.6,1.2-0.8,2.1
				C280.2,143.9,280.1,144.6,280.1,145.1z"/>
			<path class="st0" d="M285.5,144.8c0-0.7,0.1-1.4,0.3-2.1s0.4-1.3,0.7-1.7c0.3-0.4,0.5-0.8,0.8-1c0.3-0.2,0.5-0.4,0.8-0.5
				c0.3-0.1,0.6-0.2,0.9-0.2c0.6,0,1.1,0.2,1.6,0.7c0.4,0.5,0.6,1.1,0.6,2c0,0.9-0.1,1.8-0.4,2.7c-0.3,1-0.8,1.8-1.4,2.3
				c-0.5,0.4-1,0.6-1.6,0.6c-0.6,0-1.1-0.2-1.5-0.7C285.7,146.4,285.5,145.7,285.5,144.8z M286.4,145.1c0,0.5,0.1,0.9,0.2,1.2
				c0.2,0.4,0.6,0.6,1,0.6c0.4,0,0.7-0.2,1.1-0.5c0.5-0.5,0.8-1.2,1-2.2c0.2-1,0.3-1.7,0.3-2.3c0-0.6-0.1-1-0.3-1.3
				c-0.2-0.3-0.5-0.4-0.9-0.4c-0.3,0-0.5,0.1-0.7,0.2c-0.2,0.1-0.5,0.4-0.7,0.7c-0.3,0.5-0.6,1.2-0.8,2.1
				C286.5,143.9,286.4,144.6,286.4,145.1z"/>
			<path class="st0" d="M291.7,147.5l0.2-1.1h1.1l-0.2,1.1H291.7z"/>
			<path class="st0" d="M295,144.8c0-0.7,0.1-1.4,0.3-2.1s0.4-1.3,0.7-1.7c0.3-0.4,0.5-0.8,0.8-1c0.3-0.2,0.5-0.4,0.8-0.5
				c0.3-0.1,0.6-0.2,0.9-0.2c0.6,0,1.1,0.2,1.6,0.7c0.4,0.5,0.6,1.1,0.6,2c0,0.9-0.1,1.8-0.4,2.7c-0.3,1-0.8,1.8-1.4,2.3
				c-0.5,0.4-1,0.6-1.6,0.6c-0.6,0-1.1-0.2-1.5-0.7C295.2,146.4,295,145.7,295,144.8z M295.9,145.1c0,0.5,0.1,0.9,0.2,1.2
				c0.2,0.4,0.6,0.6,1,0.6c0.4,0,0.7-0.2,1.1-0.5c0.5-0.5,0.8-1.2,1-2.2c0.2-1,0.3-1.7,0.3-2.3c0-0.6-0.1-1-0.3-1.3
				c-0.2-0.3-0.5-0.4-0.9-0.4c-0.3,0-0.5,0.1-0.7,0.2c-0.2,0.1-0.5,0.4-0.7,0.7c-0.3,0.5-0.6,1.2-0.8,2.1
				C296,143.9,295.9,144.6,295.9,145.1z"/>
			<path class="st0" d="M301.3,144.8c0-0.7,0.1-1.4,0.3-2.1s0.4-1.3,0.7-1.7c0.3-0.4,0.5-0.8,0.8-1c0.3-0.2,0.5-0.4,0.8-0.5
				c0.3-0.1,0.6-0.2,0.9-0.2c0.6,0,1.1,0.2,1.6,0.7c0.4,0.5,0.6,1.1,0.6,2c0,0.9-0.1,1.8-0.4,2.7c-0.3,1-0.8,1.8-1.4,2.3
				c-0.5,0.4-1,0.6-1.6,0.6c-0.6,0-1.1-0.2-1.5-0.7C301.5,146.4,301.3,145.7,301.3,144.8z M302.3,145.1c0,0.5,0.1,0.9,0.2,1.2
				c0.2,0.4,0.6,0.6,1,0.6c0.4,0,0.7-0.2,1.1-0.5c0.5-0.5,0.8-1.2,1-2.2c0.2-1,0.3-1.7,0.3-2.3c0-0.6-0.1-1-0.3-1.3
				c-0.2-0.3-0.5-0.4-0.9-0.4c-0.3,0-0.5,0.1-0.7,0.2c-0.2,0.1-0.5,0.4-0.7,0.7c-0.3,0.5-0.6,1.2-0.8,2.1
				C302.4,143.9,302.3,144.6,302.3,145.1z"/>
			<path class="st0" d="M307.6,144.8c0-0.7,0.1-1.4,0.3-2.1s0.4-1.3,0.7-1.7c0.3-0.4,0.5-0.8,0.8-1c0.3-0.2,0.5-0.4,0.8-0.5
				c0.3-0.1,0.6-0.2,0.9-0.2c0.6,0,1.1,0.2,1.6,0.7c0.4,0.5,0.6,1.1,0.6,2c0,0.9-0.1,1.8-0.4,2.7c-0.3,1-0.8,1.8-1.4,2.3
				c-0.5,0.4-1,0.6-1.6,0.6c-0.6,0-1.1-0.2-1.5-0.7C307.8,146.4,307.6,145.7,307.6,144.8z M308.6,145.1c0,0.5,0.1,0.9,0.2,1.2
				c0.2,0.4,0.6,0.6,1,0.6c0.4,0,0.7-0.2,1.1-0.5c0.5-0.5,0.8-1.2,1-2.2c0.2-1,0.3-1.7,0.3-2.3c0-0.6-0.1-1-0.3-1.3
				c-0.2-0.3-0.5-0.4-0.9-0.4c-0.3,0-0.5,0.1-0.7,0.2c-0.2,0.1-0.5,0.4-0.7,0.7c-0.3,0.5-0.6,1.2-0.8,2.1
				C308.7,143.9,308.6,144.6,308.6,145.1z"/>
		</g>
		<g class="st12">
			<path class="st0" d="M675.3,467.3h3.3c0.6,0,1.1,0,1.4,0.1c0.3,0.1,0.6,0.2,0.8,0.3s0.5,0.4,0.6,0.7c0.2,0.3,0.2,0.6,0.2,1
				c0,0.4-0.1,0.7-0.3,1s-0.5,0.6-0.8,0.7c0.5,0.1,0.9,0.4,1.1,0.7s0.4,0.8,0.4,1.2c0,0.4-0.1,0.7-0.3,1.1c-0.2,0.3-0.4,0.6-0.7,0.8
				c-0.3,0.2-0.7,0.3-1.1,0.4c-0.3,0-0.9,0-2,0.1h-2.8V467.3z M676.9,468.6v1.9h1.1c0.6,0,1,0,1.2,0c0.3,0,0.5-0.1,0.7-0.3
				c0.2-0.2,0.2-0.4,0.2-0.6c0-0.3-0.1-0.5-0.2-0.6c-0.1-0.2-0.3-0.3-0.6-0.3c-0.2,0-0.6,0-1.4,0H676.9z M676.9,471.9v2.2h1.5
				c0.6,0,1,0,1.1,0c0.2,0,0.4-0.2,0.6-0.3c0.2-0.2,0.2-0.4,0.2-0.7c0-0.2-0.1-0.5-0.2-0.6c-0.1-0.2-0.3-0.3-0.5-0.4
				c-0.2-0.1-0.7-0.1-1.5-0.1H676.9z"/>
			<path class="st0" d="M685,475.4h-1.6v-5.9h1.4v0.8c0.2-0.4,0.5-0.7,0.7-0.8c0.2-0.1,0.4-0.2,0.7-0.2c0.4,0,0.7,0.1,1,0.3
				l-0.5,1.4c-0.3-0.2-0.5-0.3-0.7-0.3c-0.2,0-0.4,0.1-0.6,0.2c-0.2,0.1-0.3,0.3-0.4,0.7c-0.1,0.3-0.1,1-0.1,2V475.4z"/>
			<path class="st0" d="M689.1,471.3l-1.4-0.3c0.2-0.6,0.4-1,0.8-1.3s1-0.4,1.7-0.4c0.7,0,1.2,0.1,1.6,0.2c0.3,0.2,0.6,0.4,0.7,0.6
				c0.1,0.3,0.2,0.7,0.2,1.4l0,1.8c0,0.5,0,0.9,0.1,1.1c0,0.2,0.1,0.5,0.3,0.8h-1.5c0-0.1-0.1-0.3-0.1-0.5c0-0.1,0-0.2-0.1-0.2
				c-0.3,0.3-0.6,0.5-0.9,0.6c-0.3,0.1-0.6,0.2-1,0.2c-0.6,0-1.1-0.2-1.4-0.5s-0.5-0.7-0.5-1.2c0-0.3,0.1-0.6,0.2-0.9
				c0.2-0.3,0.4-0.5,0.7-0.6c0.3-0.1,0.7-0.3,1.2-0.4c0.7-0.1,1.2-0.3,1.5-0.4v-0.2c0-0.3-0.1-0.5-0.2-0.6c-0.1-0.1-0.4-0.2-0.8-0.2
				c-0.3,0-0.5,0.1-0.6,0.2C689.3,470.9,689.2,471.1,689.1,471.3z M691.2,472.6c-0.2,0.1-0.5,0.1-0.9,0.2s-0.7,0.2-0.8,0.3
				c-0.2,0.1-0.3,0.3-0.3,0.5c0,0.2,0.1,0.4,0.2,0.6c0.2,0.2,0.4,0.2,0.6,0.2c0.3,0,0.5-0.1,0.8-0.3c0.2-0.1,0.3-0.3,0.4-0.5
				c0-0.1,0.1-0.4,0.1-0.8V472.6z"/>
			<path class="st0" d="M693.7,473.7l1.6-0.2c0.1,0.3,0.2,0.5,0.4,0.7c0.2,0.2,0.5,0.2,0.9,0.2c0.4,0,0.7-0.1,0.9-0.2
				c0.1-0.1,0.2-0.2,0.2-0.4c0-0.1,0-0.2-0.1-0.3c-0.1-0.1-0.3-0.1-0.5-0.2c-1.3-0.3-2.1-0.5-2.4-0.8c-0.5-0.3-0.7-0.8-0.7-1.3
				c0-0.5,0.2-0.9,0.6-1.3c0.4-0.3,1-0.5,1.9-0.5c0.8,0,1.4,0.1,1.8,0.4c0.4,0.3,0.7,0.7,0.8,1.2l-1.5,0.3c-0.1-0.2-0.2-0.4-0.4-0.5
				c-0.2-0.1-0.4-0.2-0.8-0.2c-0.4,0-0.7,0.1-0.9,0.2c-0.1,0.1-0.2,0.2-0.2,0.3c0,0.1,0.1,0.2,0.2,0.3c0.1,0.1,0.6,0.2,1.5,0.4
				c0.8,0.2,1.4,0.4,1.7,0.7c0.3,0.3,0.5,0.7,0.5,1.2c0,0.5-0.2,1-0.7,1.4c-0.5,0.4-1.1,0.6-2,0.6c-0.8,0-1.4-0.2-1.9-0.5
				C694.1,474.7,693.8,474.3,693.7,473.7z"/>
			<path class="st0" d="M700.6,468.7v-1.4h1.6v1.4H700.6z M700.6,475.4v-5.9h1.6v5.9H700.6z"/>
			<path class="st0" d="M703.7,475.4v-8.1h1.6v8.1H703.7z"/>
		</g>
		<g class="st12">
			<path class="st0" d="M662.4,485.8l1-0.1c0.1,0.6,0.2,1,0.5,1.2c0.3,0.2,0.6,0.4,1,0.4c0.5,0,0.9-0.2,1.3-0.5s0.5-0.8,0.5-1.2
				c0-0.4-0.1-0.7-0.4-1c-0.3-0.3-0.6-0.4-1.1-0.4c-0.1,0-0.2,0-0.3,0l0.2-0.8c0.1,0,0.2,0,0.3,0c0.6,0,1-0.1,1.3-0.4
				c0.3-0.3,0.5-0.6,0.5-1c0-0.4-0.1-0.7-0.4-0.9c-0.3-0.3-0.6-0.4-0.9-0.4c-0.4,0-0.7,0.1-1,0.4c-0.3,0.3-0.5,0.6-0.6,1.1l-1-0.2
				c0.2-0.7,0.5-1.2,0.9-1.6c0.5-0.4,1-0.5,1.6-0.5c0.7,0,1.2,0.2,1.6,0.6c0.4,0.4,0.6,0.9,0.6,1.5c0,0.4-0.1,0.8-0.3,1.1
				c-0.2,0.3-0.6,0.6-1,0.8c0.3,0.2,0.6,0.4,0.7,0.7c0.2,0.3,0.2,0.6,0.2,0.9c0,0.7-0.3,1.4-0.8,1.9c-0.5,0.5-1.2,0.8-2,0.8
				c-0.7,0-1.3-0.2-1.8-0.6C662.7,487,662.5,486.5,662.4,485.8z"/>
			<path class="st0" d="M669.8,487.9c0.1-0.5,0.3-1.2,0.6-2c0.3-0.9,0.8-1.9,1.4-2.8c0.6-0.9,1.2-1.7,1.9-2.4h-4.1l0.2-0.9h5.2
				l-0.2,0.9c-0.9,0.8-1.7,1.8-2.3,3c-0.8,1.4-1.3,2.8-1.6,4.1H669.8z"/>
			<path class="st0" d="M675.1,487.9l0.2-1.1h1.1l-0.2,1.1H675.1z"/>
			<path class="st0" d="M678.4,485.3c0-0.7,0.1-1.4,0.3-2.1s0.4-1.3,0.7-1.7c0.3-0.4,0.5-0.8,0.8-1c0.3-0.2,0.5-0.4,0.8-0.5
				c0.3-0.1,0.6-0.2,0.9-0.2c0.6,0,1.1,0.2,1.6,0.7c0.4,0.5,0.6,1.1,0.6,2c0,0.9-0.1,1.8-0.4,2.7c-0.3,1-0.8,1.8-1.4,2.3
				c-0.5,0.4-1,0.6-1.6,0.6c-0.6,0-1.1-0.2-1.5-0.7C678.6,486.9,678.4,486.2,678.4,485.3z M679.4,485.5c0,0.5,0.1,0.9,0.2,1.2
				c0.2,0.4,0.6,0.6,1,0.6c0.4,0,0.7-0.2,1.1-0.5c0.5-0.5,0.8-1.2,1-2.2c0.2-1,0.3-1.7,0.3-2.3c0-0.6-0.1-1-0.3-1.3
				c-0.2-0.3-0.5-0.4-0.9-0.4c-0.3,0-0.5,0.1-0.7,0.2c-0.2,0.1-0.5,0.4-0.7,0.7c-0.3,0.5-0.6,1.2-0.8,2.1
				C679.5,484.4,679.4,485,679.4,485.5z"/>
			<path class="st0" d="M684.7,485.3c0-0.7,0.1-1.4,0.3-2.1s0.4-1.3,0.7-1.7c0.3-0.4,0.5-0.8,0.8-1c0.3-0.2,0.5-0.4,0.8-0.5
				c0.3-0.1,0.6-0.2,0.9-0.2c0.6,0,1.1,0.2,1.6,0.7c0.4,0.5,0.6,1.1,0.6,2c0,0.9-0.1,1.8-0.4,2.7c-0.3,1-0.8,1.8-1.4,2.3
				c-0.5,0.4-1,0.6-1.6,0.6c-0.6,0-1.1-0.2-1.5-0.7C685,486.9,684.7,486.2,684.7,485.3z M685.7,485.5c0,0.5,0.1,0.9,0.2,1.2
				c0.2,0.4,0.6,0.6,1,0.6c0.4,0,0.7-0.2,1.1-0.5c0.5-0.5,0.8-1.2,1-2.2c0.2-1,0.3-1.7,0.3-2.3c0-0.6-0.1-1-0.3-1.3
				c-0.2-0.3-0.5-0.4-0.9-0.4c-0.3,0-0.5,0.1-0.7,0.2c-0.2,0.1-0.5,0.4-0.7,0.7c-0.3,0.5-0.6,1.2-0.8,2.1
				C685.8,484.4,685.7,485,685.7,485.5z"/>
			<path class="st0" d="M691.1,485.3c0-0.7,0.1-1.4,0.3-2.1c0.2-0.7,0.4-1.3,0.7-1.7c0.3-0.4,0.5-0.8,0.8-1c0.3-0.2,0.5-0.4,0.8-0.5
				c0.3-0.1,0.6-0.2,0.9-0.2c0.6,0,1.1,0.2,1.6,0.7c0.4,0.5,0.6,1.1,0.6,2c0,0.9-0.1,1.8-0.4,2.7c-0.3,1-0.8,1.8-1.4,2.3
				c-0.5,0.4-1,0.6-1.6,0.6c-0.6,0-1.1-0.2-1.5-0.7C691.3,486.9,691.1,486.2,691.1,485.3z M692,485.5c0,0.5,0.1,0.9,0.2,1.2
				c0.2,0.4,0.6,0.6,1,0.6c0.4,0,0.7-0.2,1.1-0.5c0.5-0.5,0.8-1.2,1-2.2c0.2-1,0.3-1.7,0.3-2.3c0-0.6-0.1-1-0.3-1.3
				c-0.2-0.3-0.5-0.4-0.9-0.4c-0.3,0-0.5,0.1-0.7,0.2c-0.2,0.1-0.5,0.4-0.7,0.7c-0.3,0.5-0.6,1.2-0.8,2.1
				C692.1,484.4,692,485,692,485.5z"/>
			<path class="st0" d="M697.3,487.9l0.2-1.1h1.1l-0.2,1.1H697.3z"/>
			<path class="st0" d="M700.6,485.3c0-0.7,0.1-1.4,0.3-2.1s0.4-1.3,0.7-1.7c0.3-0.4,0.5-0.8,0.8-1c0.3-0.2,0.5-0.4,0.8-0.5
				c0.3-0.1,0.6-0.2,0.9-0.2c0.6,0,1.1,0.2,1.6,0.7c0.4,0.5,0.6,1.1,0.6,2c0,0.9-0.1,1.8-0.4,2.7c-0.3,1-0.8,1.8-1.4,2.3
				c-0.5,0.4-1,0.6-1.6,0.6c-0.6,0-1.1-0.2-1.5-0.7C700.8,486.9,700.6,486.2,700.6,485.3z M701.5,485.5c0,0.5,0.1,0.9,0.2,1.2
				c0.2,0.4,0.6,0.6,1,0.6c0.4,0,0.7-0.2,1.1-0.5c0.5-0.5,0.8-1.2,1-2.2c0.2-1,0.3-1.7,0.3-2.3c0-0.6-0.1-1-0.3-1.3
				c-0.2-0.3-0.5-0.4-0.9-0.4c-0.3,0-0.5,0.1-0.7,0.2c-0.2,0.1-0.5,0.4-0.7,0.7c-0.3,0.5-0.6,1.2-0.8,2.1
				C701.6,484.4,701.5,485,701.5,485.5z"/>
			<path class="st0" d="M706.9,485.3c0-0.7,0.1-1.4,0.3-2.1s0.4-1.3,0.7-1.7c0.3-0.4,0.5-0.8,0.8-1c0.3-0.2,0.5-0.4,0.8-0.5
				c0.3-0.1,0.6-0.2,0.9-0.2c0.6,0,1.1,0.2,1.6,0.7c0.4,0.5,0.6,1.1,0.6,2c0,0.9-0.1,1.8-0.4,2.7c-0.3,1-0.8,1.8-1.4,2.3
				c-0.5,0.4-1,0.6-1.6,0.6c-0.6,0-1.1-0.2-1.5-0.7C707.1,486.9,706.9,486.2,706.9,485.3z M707.9,485.5c0,0.5,0.1,0.9,0.2,1.2
				c0.2,0.4,0.6,0.6,1,0.6c0.4,0,0.7-0.2,1.1-0.5c0.5-0.5,0.8-1.2,1-2.2c0.2-1,0.3-1.7,0.3-2.3c0-0.6-0.1-1-0.3-1.3
				c-0.2-0.3-0.5-0.4-0.9-0.4c-0.3,0-0.5,0.1-0.7,0.2c-0.2,0.1-0.5,0.4-0.7,0.7c-0.3,0.5-0.6,1.2-0.8,2.1
				C708,484.4,707.9,485,707.9,485.5z"/>
			<path class="st0" d="M713.2,485.3c0-0.7,0.1-1.4,0.3-2.1s0.4-1.3,0.7-1.7c0.3-0.4,0.5-0.8,0.8-1c0.3-0.2,0.5-0.4,0.8-0.5
				c0.3-0.1,0.6-0.2,0.9-0.2c0.6,0,1.1,0.2,1.6,0.7c0.4,0.5,0.6,1.1,0.6,2c0,0.9-0.1,1.8-0.4,2.7c-0.3,1-0.8,1.8-1.4,2.3
				c-0.5,0.4-1,0.6-1.6,0.6c-0.6,0-1.1-0.2-1.5-0.7C713.4,486.9,713.2,486.2,713.2,485.3z M714.2,485.5c0,0.5,0.1,0.9,0.2,1.2
				c0.2,0.4,0.6,0.6,1,0.6c0.4,0,0.7-0.2,1.1-0.5c0.5-0.5,0.8-1.2,1-2.2c0.2-1,0.3-1.7,0.3-2.3c0-0.6-0.1-1-0.3-1.3
				c-0.2-0.3-0.5-0.4-0.9-0.4c-0.3,0-0.5,0.1-0.7,0.2c-0.2,0.1-0.5,0.4-0.7,0.7c-0.3,0.5-0.6,1.2-0.8,2.1
				C714.3,484.4,714.2,485,714.2,485.5z"/>
		</g>
		<g class="st12">
			<path class="st0" d="M596.7,285.4v-6.8h-2.4v-1.4h6.5v1.4h-2.4v6.8H596.7z"/>
			<path class="st0" d="M602.1,281.3l-1.4-0.3c0.2-0.6,0.4-1,0.8-1.3c0.4-0.3,1-0.4,1.7-0.4c0.7,0,1.2,0.1,1.6,0.2
				c0.3,0.2,0.6,0.4,0.7,0.6c0.1,0.3,0.2,0.7,0.2,1.4l0,1.8c0,0.5,0,0.9,0.1,1.1c0,0.2,0.1,0.5,0.3,0.8h-1.5c0-0.1-0.1-0.3-0.1-0.5
				c0-0.1,0-0.2-0.1-0.2c-0.3,0.3-0.6,0.5-0.9,0.6c-0.3,0.1-0.6,0.2-1,0.2c-0.6,0-1.1-0.2-1.4-0.5c-0.3-0.3-0.5-0.7-0.5-1.2
				c0-0.3,0.1-0.6,0.2-0.9c0.2-0.3,0.4-0.5,0.7-0.6c0.3-0.1,0.7-0.3,1.2-0.4c0.7-0.1,1.2-0.3,1.5-0.4v-0.2c0-0.3-0.1-0.5-0.2-0.6
				c-0.1-0.1-0.4-0.2-0.8-0.2c-0.3,0-0.5,0.1-0.6,0.2C602.4,280.8,602.2,281,602.1,281.3z M604.2,282.6c-0.2,0.1-0.5,0.1-0.9,0.2
				c-0.4,0.1-0.7,0.2-0.8,0.3c-0.2,0.1-0.3,0.3-0.3,0.5c0,0.2,0.1,0.4,0.2,0.6c0.2,0.2,0.4,0.2,0.6,0.2c0.3,0,0.5-0.1,0.8-0.3
				c0.2-0.1,0.3-0.3,0.4-0.5c0-0.1,0.1-0.4,0.1-0.8V282.6z"/>
			<path class="st0" d="M607.3,278.7v-1.4h1.6v1.4H607.3z M607.3,285.4v-5.9h1.6v5.9H607.3z"/>
			<path class="st0" d="M610.5,285.4v-8.1h1.6v8.1H610.5z"/>
			<path class="st0" d="M614.8,281.3l-1.4-0.3c0.2-0.6,0.4-1,0.8-1.3c0.4-0.3,1-0.4,1.7-0.4c0.7,0,1.2,0.1,1.6,0.2
				c0.3,0.2,0.6,0.4,0.7,0.6c0.1,0.3,0.2,0.7,0.2,1.4l0,1.8c0,0.5,0,0.9,0.1,1.1c0,0.2,0.1,0.5,0.3,0.8h-1.5c0-0.1-0.1-0.3-0.1-0.5
				c0-0.1,0-0.2-0.1-0.2c-0.3,0.3-0.6,0.5-0.9,0.6c-0.3,0.1-0.6,0.2-1,0.2c-0.6,0-1.1-0.2-1.4-0.5c-0.3-0.3-0.5-0.7-0.5-1.2
				c0-0.3,0.1-0.6,0.2-0.9c0.2-0.3,0.4-0.5,0.7-0.6c0.3-0.1,0.7-0.3,1.2-0.4c0.7-0.1,1.2-0.3,1.5-0.4v-0.2c0-0.3-0.1-0.5-0.2-0.6
				c-0.1-0.1-0.4-0.2-0.8-0.2c-0.3,0-0.5,0.1-0.6,0.2C615,280.8,614.9,281,614.8,281.3z M616.9,282.6c-0.2,0.1-0.5,0.1-0.9,0.2
				c-0.4,0.1-0.7,0.2-0.8,0.3c-0.2,0.1-0.3,0.3-0.3,0.5c0,0.2,0.1,0.4,0.2,0.6c0.2,0.2,0.4,0.2,0.6,0.2c0.3,0,0.5-0.1,0.8-0.3
				c0.2-0.1,0.3-0.3,0.4-0.5c0-0.1,0.1-0.4,0.1-0.8V282.6z"/>
			<path class="st0" d="M625.3,285.4h-1.6v-3c0-0.6,0-1-0.1-1.2c-0.1-0.2-0.2-0.3-0.3-0.4c-0.1-0.1-0.3-0.2-0.5-0.2
				c-0.3,0-0.5,0.1-0.7,0.2c-0.2,0.1-0.4,0.3-0.4,0.6c-0.1,0.2-0.1,0.7-0.1,1.4v2.7h-1.6v-5.9h1.4v0.9c0.5-0.7,1.2-1,1.9-1
				c0.3,0,0.7,0.1,0.9,0.2c0.3,0.1,0.5,0.3,0.6,0.5c0.1,0.2,0.2,0.4,0.3,0.7c0.1,0.2,0.1,0.6,0.1,1V285.4z"/>
			<path class="st0" d="M632.3,285.4h-1.4v-0.9c-0.2,0.3-0.5,0.6-0.9,0.8c-0.3,0.2-0.7,0.2-1,0.2c-0.7,0-1.3-0.3-1.7-0.8
				c-0.5-0.5-0.7-1.3-0.7-2.3c0-1,0.2-1.8,0.7-2.3c0.5-0.5,1.1-0.8,1.8-0.8c0.7,0,1.2,0.3,1.7,0.8v-2.9h1.6V285.4z M628.1,282.3
				c0,0.6,0.1,1.1,0.3,1.4c0.3,0.4,0.6,0.6,1.1,0.6c0.4,0,0.7-0.2,0.9-0.5c0.3-0.3,0.4-0.8,0.4-1.4c0-0.7-0.1-1.2-0.4-1.5
				c-0.2-0.3-0.6-0.4-0.9-0.4c-0.4,0-0.7,0.1-0.9,0.4C628.3,281.3,628.1,281.7,628.1,282.3z"/>
			<path class="st0" d="M633.8,278.7v-1.4h1.6v1.4H633.8z M633.8,285.4v-5.9h1.6v5.9H633.8z"/>
			<path class="st0" d="M638.2,281.3l-1.4-0.3c0.2-0.6,0.4-1,0.8-1.3c0.4-0.3,1-0.4,1.7-0.4c0.7,0,1.2,0.1,1.6,0.2
				c0.3,0.2,0.6,0.4,0.7,0.6c0.1,0.3,0.2,0.7,0.2,1.4l0,1.8c0,0.5,0,0.9,0.1,1.1c0,0.2,0.1,0.5,0.3,0.8h-1.5c0-0.1-0.1-0.3-0.1-0.5
				c0-0.1,0-0.2-0.1-0.2c-0.3,0.3-0.6,0.5-0.9,0.6c-0.3,0.1-0.6,0.2-1,0.2c-0.6,0-1.1-0.2-1.4-0.5c-0.3-0.3-0.5-0.7-0.5-1.2
				c0-0.3,0.1-0.6,0.2-0.9c0.2-0.3,0.4-0.5,0.7-0.6c0.3-0.1,0.7-0.3,1.2-0.4c0.7-0.1,1.2-0.3,1.5-0.4v-0.2c0-0.3-0.1-0.5-0.2-0.6
				c-0.1-0.1-0.4-0.2-0.8-0.2c-0.3,0-0.5,0.1-0.6,0.2C638.4,280.8,638.3,281,638.2,281.3z M640.3,282.6c-0.2,0.1-0.5,0.1-0.9,0.2
				c-0.4,0.1-0.7,0.2-0.8,0.3c-0.2,0.1-0.3,0.3-0.3,0.5c0,0.2,0.1,0.4,0.2,0.6c0.2,0.2,0.4,0.2,0.6,0.2c0.3,0,0.5-0.1,0.8-0.3
				c0.2-0.1,0.3-0.3,0.4-0.5c0-0.1,0.1-0.4,0.1-0.8V282.6z"/>
		</g>
		<g class="st12">
			<path class="st0" d="M590.4,295.8l1-0.1c0.1,0.6,0.2,1,0.5,1.2c0.3,0.2,0.6,0.4,1,0.4c0.5,0,0.9-0.2,1.3-0.5s0.5-0.8,0.5-1.2
				c0-0.4-0.1-0.7-0.4-1c-0.3-0.3-0.6-0.4-1.1-0.4c-0.1,0-0.2,0-0.3,0l0.2-0.8c0.1,0,0.2,0,0.3,0c0.6,0,1-0.1,1.3-0.4
				c0.3-0.3,0.5-0.6,0.5-1c0-0.4-0.1-0.7-0.4-0.9c-0.3-0.3-0.6-0.4-0.9-0.4c-0.4,0-0.7,0.1-1,0.4c-0.3,0.3-0.5,0.6-0.6,1.1l-1-0.2
				c0.2-0.7,0.5-1.2,0.9-1.6c0.5-0.4,1-0.5,1.6-0.5c0.7,0,1.2,0.2,1.6,0.6c0.4,0.4,0.6,0.9,0.6,1.5c0,0.4-0.1,0.8-0.3,1.1
				c-0.2,0.3-0.6,0.6-1,0.8c0.3,0.2,0.6,0.4,0.7,0.7c0.2,0.3,0.2,0.6,0.2,0.9c0,0.7-0.3,1.4-0.8,1.9c-0.5,0.5-1.2,0.8-2,0.8
				c-0.7,0-1.3-0.2-1.8-0.6C590.7,297,590.5,296.5,590.4,295.8z"/>
			<path class="st0" d="M599.5,297.9l0.4-2.1h-3.3l0.2-1l4.6-5.1h0.8l-1.1,5.2h1.1l-0.2,0.9H601l-0.4,2.1H599.5z M600.2,295l0.7-3.4
				l-3,3.4H600.2z"/>
			<path class="st0" d="M603.1,297.9l0.2-1.1h1.1l-0.2,1.1H603.1z"/>
			<path class="st0" d="M608.2,293.4c-0.3-0.2-0.5-0.4-0.7-0.6c-0.2-0.3-0.2-0.5-0.2-0.8c0-0.5,0.2-0.9,0.5-1.4
				c0.5-0.6,1.1-0.8,1.9-0.8c0.7,0,1.3,0.2,1.7,0.6c0.4,0.4,0.6,0.9,0.6,1.4c0,0.4-0.1,0.8-0.3,1.1s-0.6,0.6-1,0.8
				c0.3,0.2,0.6,0.4,0.7,0.6c0.2,0.3,0.3,0.6,0.3,1c0,0.7-0.3,1.4-0.8,1.9s-1.2,0.9-2.1,0.9c-0.7,0-1.2-0.2-1.7-0.6
				s-0.6-0.9-0.6-1.6c0-0.6,0.2-1.1,0.5-1.5C607.3,293.9,607.7,293.6,608.2,293.4z M607.5,295.9c0,0.2,0.1,0.4,0.2,0.6
				c0.1,0.2,0.3,0.4,0.5,0.5s0.5,0.2,0.8,0.2c0.5,0,1-0.3,1.3-0.8c0.3-0.4,0.4-0.8,0.4-1.3c0-0.4-0.1-0.7-0.4-0.9
				c-0.2-0.2-0.6-0.4-1-0.4c-0.5,0-0.9,0.2-1.3,0.6S607.5,295.3,607.5,295.9z M608.3,292c0,0.3,0.1,0.6,0.3,0.8
				c0.2,0.2,0.5,0.3,0.9,0.3c0.5,0,0.8-0.1,1.1-0.4c0.3-0.3,0.4-0.6,0.4-1c0-0.3-0.1-0.6-0.3-0.8c-0.2-0.2-0.5-0.3-0.9-0.3
				c-0.3,0-0.6,0.1-0.8,0.2c-0.2,0.1-0.4,0.3-0.6,0.6C608.3,291.5,608.3,291.8,608.3,292z"/>
			<path class="st0" d="M612.8,295.2c0-0.7,0.1-1.4,0.3-2.1s0.4-1.3,0.7-1.7c0.3-0.4,0.5-0.8,0.8-1c0.3-0.2,0.5-0.4,0.8-0.5
				c0.3-0.1,0.6-0.2,0.9-0.2c0.6,0,1.1,0.2,1.6,0.7s0.6,1.1,0.6,2c0,0.9-0.1,1.8-0.4,2.7c-0.3,1-0.8,1.8-1.4,2.3
				c-0.5,0.4-1,0.6-1.6,0.6c-0.6,0-1.1-0.2-1.5-0.7C613,296.9,612.8,296.2,612.8,295.2z M613.7,295.5c0,0.5,0.1,0.9,0.2,1.2
				c0.2,0.4,0.6,0.6,1,0.6c0.4,0,0.7-0.2,1.1-0.5c0.5-0.5,0.8-1.2,1-2.2c0.2-1,0.3-1.7,0.3-2.3c0-0.6-0.1-1-0.3-1.3
				c-0.2-0.3-0.5-0.4-0.9-0.4c-0.3,0-0.5,0.1-0.7,0.2c-0.2,0.1-0.5,0.4-0.7,0.7c-0.3,0.5-0.6,1.2-0.8,2.1
				C613.8,294.4,613.7,295,613.7,295.5z"/>
			<path class="st0" d="M619.1,295.2c0-0.7,0.1-1.4,0.3-2.1s0.4-1.3,0.7-1.7c0.3-0.4,0.5-0.8,0.8-1c0.3-0.2,0.5-0.4,0.8-0.5
				c0.3-0.1,0.6-0.2,0.9-0.2c0.6,0,1.1,0.2,1.6,0.7s0.6,1.1,0.6,2c0,0.9-0.1,1.8-0.4,2.7c-0.3,1-0.8,1.8-1.4,2.3
				c-0.5,0.4-1,0.6-1.6,0.6c-0.6,0-1.1-0.2-1.5-0.7C619.3,296.9,619.1,296.2,619.1,295.2z M620.1,295.5c0,0.5,0.1,0.9,0.2,1.2
				c0.2,0.4,0.6,0.6,1,0.6c0.4,0,0.7-0.2,1.1-0.5c0.5-0.5,0.8-1.2,1-2.2c0.2-1,0.3-1.7,0.3-2.3c0-0.6-0.1-1-0.3-1.3
				c-0.2-0.3-0.5-0.4-0.9-0.4c-0.3,0-0.5,0.1-0.7,0.2c-0.2,0.1-0.5,0.4-0.7,0.7c-0.3,0.5-0.6,1.2-0.8,2.1
				C620.2,294.4,620.1,295,620.1,295.5z"/>
			<path class="st0" d="M625.3,297.9l0.2-1.1h1.1l-0.2,1.1H625.3z"/>
			<path class="st0" d="M628.6,295.2c0-0.7,0.1-1.4,0.3-2.1s0.4-1.3,0.7-1.7c0.3-0.4,0.5-0.8,0.8-1c0.3-0.2,0.5-0.4,0.8-0.5
				c0.3-0.1,0.6-0.2,0.9-0.2c0.6,0,1.1,0.2,1.6,0.7s0.6,1.1,0.6,2c0,0.9-0.1,1.8-0.4,2.7c-0.3,1-0.8,1.8-1.4,2.3
				c-0.5,0.4-1,0.6-1.6,0.6c-0.6,0-1.1-0.2-1.5-0.7C628.8,296.9,628.6,296.2,628.6,295.2z M629.6,295.5c0,0.5,0.1,0.9,0.2,1.2
				c0.2,0.4,0.6,0.6,1,0.6c0.4,0,0.7-0.2,1.1-0.5c0.5-0.5,0.8-1.2,1-2.2c0.2-1,0.3-1.7,0.3-2.3c0-0.6-0.1-1-0.3-1.3
				c-0.2-0.3-0.5-0.4-0.9-0.4c-0.3,0-0.5,0.1-0.7,0.2c-0.2,0.1-0.5,0.4-0.7,0.7c-0.3,0.5-0.6,1.2-0.8,2.1
				C629.6,294.4,629.6,295,629.6,295.5z"/>
			<path class="st0" d="M634.9,295.2c0-0.7,0.1-1.4,0.3-2.1s0.4-1.3,0.7-1.7c0.3-0.4,0.5-0.8,0.8-1c0.3-0.2,0.5-0.4,0.8-0.5
				c0.3-0.1,0.6-0.2,0.9-0.2c0.6,0,1.1,0.2,1.6,0.7s0.6,1.1,0.6,2c0,0.9-0.1,1.8-0.4,2.7c-0.3,1-0.8,1.8-1.4,2.3
				c-0.5,0.4-1,0.6-1.6,0.6c-0.6,0-1.1-0.2-1.5-0.7C635.1,296.9,634.9,296.2,634.9,295.2z M635.9,295.5c0,0.5,0.1,0.9,0.2,1.2
				c0.2,0.4,0.6,0.6,1,0.6c0.4,0,0.7-0.2,1.1-0.5c0.5-0.5,0.8-1.2,1-2.2c0.2-1,0.3-1.7,0.3-2.3c0-0.6-0.1-1-0.3-1.3
				c-0.2-0.3-0.5-0.4-0.9-0.4c-0.3,0-0.5,0.1-0.7,0.2c-0.2,0.1-0.5,0.4-0.7,0.7c-0.3,0.5-0.6,1.2-0.8,2.1
				C636,294.4,635.9,295,635.9,295.5z"/>
			<path class="st0" d="M641.2,295.2c0-0.7,0.1-1.4,0.3-2.1s0.4-1.3,0.7-1.7c0.3-0.4,0.5-0.8,0.8-1c0.3-0.2,0.5-0.4,0.8-0.5
				c0.3-0.1,0.6-0.2,0.9-0.2c0.6,0,1.1,0.2,1.6,0.7s0.6,1.1,0.6,2c0,0.9-0.1,1.8-0.4,2.7c-0.3,1-0.8,1.8-1.4,2.3
				c-0.5,0.4-1,0.6-1.6,0.6c-0.6,0-1.1-0.2-1.5-0.7C641.4,296.9,641.2,296.2,641.2,295.2z M642.2,295.5c0,0.5,0.1,0.9,0.2,1.2
				c0.2,0.4,0.6,0.6,1,0.6c0.4,0,0.7-0.2,1.1-0.5c0.5-0.5,0.8-1.2,1-2.2c0.2-1,0.3-1.7,0.3-2.3c0-0.6-0.1-1-0.3-1.3
				c-0.2-0.3-0.5-0.4-0.9-0.4c-0.3,0-0.5,0.1-0.7,0.2c-0.2,0.1-0.5,0.4-0.7,0.7c-0.3,0.5-0.6,1.2-0.8,2.1
				C642.3,294.4,642.2,295,642.2,295.5z"/>
		</g>
		<g class="st12">
			<path class="st0" d="M455.5,107.5l-2.9-8.1h1.8l2.1,6l2-6h1.7l-2.9,8.1H455.5z"/>
			<path class="st0" d="M460.8,100.8v-1.4h1.6v1.4H460.8z M460.8,107.5v-5.9h1.6v5.9H460.8z"/>
			<path class="st0" d="M467.3,105.6l1.6,0.3c-0.2,0.6-0.5,1-0.9,1.3c-0.4,0.3-1,0.4-1.6,0.4c-1,0-1.8-0.3-2.3-1
				c-0.4-0.5-0.6-1.2-0.6-2c0-1,0.3-1.7,0.8-2.3c0.5-0.6,1.2-0.8,1.9-0.8c0.9,0,1.6,0.3,2.1,0.9c0.5,0.6,0.7,1.5,0.7,2.7h-3.9
				c0,0.5,0.1,0.8,0.4,1.1c0.2,0.3,0.5,0.4,0.9,0.4c0.2,0,0.4-0.1,0.6-0.2S467.2,105.9,467.3,105.6z M467.4,104.1
				c0-0.5-0.1-0.8-0.3-1c-0.2-0.2-0.5-0.4-0.8-0.4c-0.3,0-0.6,0.1-0.8,0.4c-0.2,0.2-0.3,0.6-0.3,1H467.4z"/>
			<path class="st0" d="M472.9,101.6v1.2h-1.1v2.4c0,0.5,0,0.8,0,0.8c0,0.1,0.1,0.1,0.1,0.2s0.2,0.1,0.3,0.1c0.1,0,0.4,0,0.6-0.1
				l0.1,1.2c-0.4,0.2-0.8,0.2-1.2,0.2c-0.3,0-0.5,0-0.8-0.1c-0.2-0.1-0.4-0.2-0.5-0.4c-0.1-0.1-0.2-0.4-0.2-0.6c0-0.2,0-0.5,0-1.1
				v-2.6h-0.7v-1.2h0.7v-1.2l1.6-0.9v2.1H472.9z"/>
			<path class="st0" d="M479.4,107.5h-1.6v-3c0-0.6,0-1-0.1-1.2c-0.1-0.2-0.2-0.3-0.3-0.4c-0.1-0.1-0.3-0.2-0.5-0.2
				c-0.3,0-0.5,0.1-0.7,0.2c-0.2,0.1-0.4,0.3-0.4,0.6c-0.1,0.2-0.1,0.7-0.1,1.4v2.7H474v-5.9h1.4v0.9c0.5-0.7,1.2-1,1.9-1
				c0.3,0,0.7,0.1,0.9,0.2c0.3,0.1,0.5,0.3,0.6,0.5c0.1,0.2,0.2,0.4,0.3,0.7c0.1,0.2,0.1,0.6,0.1,1V107.5z"/>
			<path class="st0" d="M482.1,103.4l-1.4-0.3c0.2-0.6,0.4-1,0.8-1.3c0.4-0.3,1-0.4,1.7-0.4c0.7,0,1.2,0.1,1.6,0.2
				c0.3,0.2,0.6,0.4,0.7,0.6c0.1,0.3,0.2,0.7,0.2,1.4l0,1.8c0,0.5,0,0.9,0.1,1.1c0,0.2,0.1,0.5,0.3,0.8h-1.5c0-0.1-0.1-0.3-0.1-0.5
				c0-0.1,0-0.2-0.1-0.2c-0.3,0.3-0.6,0.5-0.9,0.6c-0.3,0.1-0.6,0.2-1,0.2c-0.6,0-1.1-0.2-1.4-0.5s-0.5-0.7-0.5-1.2
				c0-0.3,0.1-0.6,0.2-0.9c0.2-0.3,0.4-0.5,0.7-0.6c0.3-0.1,0.7-0.3,1.2-0.4c0.7-0.1,1.2-0.3,1.5-0.4v-0.2c0-0.3-0.1-0.5-0.2-0.6
				c-0.1-0.1-0.4-0.2-0.8-0.2c-0.3,0-0.5,0.1-0.6,0.2C482.4,102.9,482.2,103.1,482.1,103.4z M484.2,104.7c-0.2,0.1-0.5,0.1-0.9,0.2
				c-0.4,0.1-0.7,0.2-0.8,0.3c-0.2,0.1-0.3,0.3-0.3,0.5c0,0.2,0.1,0.4,0.2,0.6c0.2,0.2,0.4,0.2,0.6,0.2c0.3,0,0.5-0.1,0.8-0.3
				c0.2-0.1,0.3-0.3,0.4-0.5c0-0.1,0.1-0.4,0.1-0.8V104.7z"/>
			<path class="st0" d="M487.2,101.6h1.4v0.8c0.5-0.6,1.1-0.9,1.8-0.9c0.4,0,0.7,0.1,1,0.2s0.5,0.4,0.7,0.7c0.3-0.3,0.5-0.5,0.8-0.7
				s0.6-0.2,1-0.2c0.4,0,0.8,0.1,1.1,0.3c0.3,0.2,0.5,0.4,0.7,0.8c0.1,0.3,0.2,0.7,0.2,1.2v3.8h-1.6v-3.4c0-0.6-0.1-1-0.2-1.1
				c-0.1-0.2-0.4-0.3-0.7-0.3c-0.2,0-0.4,0.1-0.6,0.2c-0.2,0.1-0.3,0.3-0.4,0.6c-0.1,0.3-0.1,0.7-0.1,1.2v2.8h-1.6v-3.2
				c0-0.6,0-0.9-0.1-1.1c-0.1-0.2-0.1-0.3-0.3-0.4c-0.1-0.1-0.3-0.1-0.5-0.1c-0.2,0-0.5,0.1-0.6,0.2c-0.2,0.1-0.3,0.3-0.4,0.6
				s-0.1,0.6-0.1,1.2v2.9h-1.6V101.6z"/>
		</g>
		<g class="st12">
			<path class="st0" d="M446.8,120c0.1-0.5,0.2-0.9,0.4-1.2c0.2-0.3,0.4-0.6,0.7-0.9c0.3-0.3,0.9-0.8,1.8-1.5
				c0.5-0.4,0.9-0.7,1.1-0.9c0.3-0.3,0.5-0.6,0.6-0.8c0.1-0.2,0.1-0.4,0.1-0.6c0-0.4-0.1-0.7-0.4-1c-0.3-0.3-0.6-0.4-1-0.4
				c-0.4,0-0.7,0.1-1,0.4c-0.3,0.3-0.5,0.7-0.6,1.3l-1-0.1c0.1-0.7,0.4-1.3,0.8-1.7c0.5-0.4,1-0.6,1.7-0.6c0.5,0,0.9,0.1,1.3,0.3
				c0.4,0.2,0.7,0.5,0.8,0.8c0.2,0.3,0.3,0.7,0.3,1.1c0,0.5-0.2,1.1-0.6,1.6c-0.2,0.3-0.9,0.9-2.1,1.8c-0.5,0.4-0.9,0.7-1.1,1
				c-0.2,0.3-0.4,0.5-0.5,0.7h3.6l-0.2,0.9H446.8z"/>
			<path class="st0" d="M453.1,120c0.1-0.5,0.2-0.9,0.4-1.2c0.2-0.3,0.4-0.6,0.7-0.9c0.3-0.3,0.9-0.8,1.8-1.5
				c0.5-0.4,0.9-0.7,1.1-0.9c0.3-0.3,0.5-0.6,0.6-0.8c0.1-0.2,0.1-0.4,0.1-0.6c0-0.4-0.1-0.7-0.4-1c-0.3-0.3-0.6-0.4-1-0.4
				c-0.4,0-0.7,0.1-1,0.4c-0.3,0.3-0.5,0.7-0.6,1.3l-1-0.1c0.1-0.7,0.4-1.3,0.8-1.7c0.5-0.4,1-0.6,1.7-0.6c0.5,0,0.9,0.1,1.3,0.3
				c0.4,0.2,0.7,0.5,0.8,0.8c0.2,0.3,0.3,0.7,0.3,1.1c0,0.5-0.2,1.1-0.6,1.6c-0.2,0.3-0.9,0.9-2.1,1.8c-0.5,0.4-0.9,0.7-1.1,1
				c-0.2,0.3-0.4,0.5-0.5,0.7h3.6L458,120H453.1z"/>
			<path class="st0" d="M459.4,120l0.2-1.1h1.1l-0.2,1.1H459.4z"/>
			<path class="st0" d="M464.5,115.5c-0.3-0.2-0.5-0.4-0.7-0.6c-0.2-0.3-0.2-0.5-0.2-0.8c0-0.5,0.2-0.9,0.5-1.4
				c0.5-0.6,1.1-0.8,1.9-0.8c0.7,0,1.3,0.2,1.7,0.6c0.4,0.4,0.6,0.9,0.6,1.4c0,0.4-0.1,0.8-0.3,1.1s-0.6,0.6-1,0.8
				c0.3,0.2,0.6,0.4,0.7,0.6c0.2,0.3,0.3,0.6,0.3,1c0,0.7-0.3,1.4-0.8,1.9s-1.2,0.9-2.1,0.9c-0.7,0-1.2-0.2-1.7-0.6
				s-0.6-0.9-0.6-1.6c0-0.6,0.2-1.1,0.5-1.5C463.5,116,464,115.7,464.5,115.5z M463.8,118c0,0.2,0.1,0.4,0.2,0.6
				c0.1,0.2,0.3,0.4,0.5,0.5s0.5,0.2,0.8,0.2c0.5,0,1-0.3,1.3-0.8c0.3-0.4,0.4-0.8,0.4-1.3c0-0.4-0.1-0.7-0.4-0.9
				c-0.2-0.2-0.6-0.4-1-0.4c-0.5,0-0.9,0.2-1.3,0.6S463.8,117.4,463.8,118z M464.6,114.1c0,0.3,0.1,0.6,0.3,0.8
				c0.2,0.2,0.5,0.3,0.9,0.3c0.5,0,0.8-0.1,1.1-0.4c0.3-0.3,0.4-0.6,0.4-1c0-0.3-0.1-0.6-0.3-0.8c-0.2-0.2-0.5-0.3-0.9-0.3
				c-0.3,0-0.6,0.1-0.8,0.2c-0.2,0.1-0.4,0.3-0.6,0.6C464.6,113.6,464.6,113.9,464.6,114.1z"/>
			<path class="st0" d="M469.1,117.3c0-0.7,0.1-1.4,0.3-2.1s0.4-1.3,0.7-1.7c0.3-0.4,0.5-0.8,0.8-1c0.3-0.2,0.5-0.4,0.8-0.5
				c0.3-0.1,0.6-0.2,0.9-0.2c0.6,0,1.1,0.2,1.6,0.7s0.6,1.1,0.6,2c0,0.9-0.1,1.8-0.4,2.7c-0.3,1-0.8,1.8-1.4,2.3
				c-0.5,0.4-1,0.6-1.6,0.6c-0.6,0-1.1-0.2-1.5-0.7C469.3,119,469.1,118.3,469.1,117.3z M470,117.6c0,0.5,0.1,0.9,0.2,1.2
				c0.2,0.4,0.6,0.6,1,0.6c0.4,0,0.7-0.2,1.1-0.5c0.5-0.5,0.8-1.2,1-2.2c0.2-1,0.3-1.7,0.3-2.3c0-0.6-0.1-1-0.3-1.3
				c-0.2-0.3-0.5-0.4-0.9-0.4c-0.3,0-0.5,0.1-0.7,0.2c-0.2,0.1-0.5,0.4-0.7,0.7c-0.3,0.5-0.6,1.2-0.8,2.1
				C470.1,116.5,470,117.1,470,117.6z"/>
			<path class="st0" d="M475.4,117.3c0-0.7,0.1-1.4,0.3-2.1s0.4-1.3,0.7-1.7c0.3-0.4,0.5-0.8,0.8-1c0.3-0.2,0.5-0.4,0.8-0.5
				c0.3-0.1,0.6-0.2,0.9-0.2c0.6,0,1.1,0.2,1.6,0.7s0.6,1.1,0.6,2c0,0.9-0.1,1.8-0.4,2.7c-0.3,1-0.8,1.8-1.4,2.3
				c-0.5,0.4-1,0.6-1.6,0.6c-0.6,0-1.1-0.2-1.5-0.7C475.6,119,475.4,118.3,475.4,117.3z M476.4,117.6c0,0.5,0.1,0.9,0.2,1.2
				c0.2,0.4,0.6,0.6,1,0.6c0.4,0,0.7-0.2,1.1-0.5c0.5-0.5,0.8-1.2,1-2.2c0.2-1,0.3-1.7,0.3-2.3c0-0.6-0.1-1-0.3-1.3
				c-0.2-0.3-0.5-0.4-0.9-0.4c-0.3,0-0.5,0.1-0.7,0.2c-0.2,0.1-0.5,0.4-0.7,0.7c-0.3,0.5-0.6,1.2-0.8,2.1
				C476.5,116.5,476.4,117.1,476.4,117.6z"/>
			<path class="st0" d="M481.6,120l0.2-1.1h1.1l-0.2,1.1H481.6z"/>
			<path class="st0" d="M484.9,117.3c0-0.7,0.1-1.4,0.3-2.1s0.4-1.3,0.7-1.7c0.3-0.4,0.5-0.8,0.8-1c0.3-0.2,0.5-0.4,0.8-0.5
				c0.3-0.1,0.6-0.2,0.9-0.2c0.6,0,1.1,0.2,1.6,0.7s0.6,1.1,0.6,2c0,0.9-0.1,1.8-0.4,2.7c-0.3,1-0.8,1.8-1.4,2.3
				c-0.5,0.4-1,0.6-1.6,0.6c-0.6,0-1.1-0.2-1.5-0.7C485.1,119,484.9,118.3,484.9,117.3z M485.8,117.6c0,0.5,0.1,0.9,0.2,1.2
				c0.2,0.4,0.6,0.6,1,0.6c0.4,0,0.7-0.2,1.1-0.5c0.5-0.5,0.8-1.2,1-2.2c0.2-1,0.3-1.7,0.3-2.3c0-0.6-0.1-1-0.3-1.3
				c-0.2-0.3-0.5-0.4-0.9-0.4c-0.3,0-0.5,0.1-0.7,0.2c-0.2,0.1-0.5,0.4-0.7,0.7c-0.3,0.5-0.6,1.2-0.8,2.1
				C485.9,116.5,485.8,117.1,485.8,117.6z"/>
			<path class="st0" d="M491.2,117.3c0-0.7,0.1-1.4,0.3-2.1s0.4-1.3,0.7-1.7c0.3-0.4,0.5-0.8,0.8-1c0.3-0.2,0.5-0.4,0.8-0.5
				c0.3-0.1,0.6-0.2,0.9-0.2c0.6,0,1.1,0.2,1.6,0.7s0.6,1.1,0.6,2c0,0.9-0.1,1.8-0.4,2.7c-0.3,1-0.8,1.8-1.4,2.3
				c-0.5,0.4-1,0.6-1.6,0.6c-0.6,0-1.1-0.2-1.5-0.7C491.4,119,491.2,118.3,491.2,117.3z M492.2,117.6c0,0.5,0.1,0.9,0.2,1.2
				c0.2,0.4,0.6,0.6,1,0.6c0.4,0,0.7-0.2,1.1-0.5c0.5-0.5,0.8-1.2,1-2.2c0.2-1,0.3-1.7,0.3-2.3c0-0.6-0.1-1-0.3-1.3
				c-0.2-0.3-0.5-0.4-0.9-0.4c-0.3,0-0.5,0.1-0.7,0.2c-0.2,0.1-0.5,0.4-0.7,0.7c-0.3,0.5-0.6,1.2-0.8,2.1
				C492.3,116.5,492.2,117.1,492.2,117.6z"/>
			<path class="st0" d="M497.5,117.3c0-0.7,0.1-1.4,0.3-2.1s0.4-1.3,0.7-1.7c0.3-0.4,0.5-0.8,0.8-1c0.3-0.2,0.5-0.4,0.8-0.5
				c0.3-0.1,0.6-0.2,0.9-0.2c0.6,0,1.1,0.2,1.6,0.7s0.6,1.1,0.6,2c0,0.9-0.1,1.8-0.4,2.7c-0.3,1-0.8,1.8-1.4,2.3
				c-0.5,0.4-1,0.6-1.6,0.6c-0.6,0-1.1-0.2-1.5-0.7C497.7,119,497.5,118.3,497.5,117.3z M498.5,117.6c0,0.5,0.1,0.9,0.2,1.2
				c0.2,0.4,0.6,0.6,1,0.6c0.4,0,0.7-0.2,1.1-0.5c0.5-0.5,0.8-1.2,1-2.2c0.2-1,0.3-1.7,0.3-2.3c0-0.6-0.1-1-0.3-1.3
				c-0.2-0.3-0.5-0.4-0.9-0.4c-0.3,0-0.5,0.1-0.7,0.2c-0.2,0.1-0.5,0.4-0.7,0.7c-0.3,0.5-0.6,1.2-0.8,2.1
				C498.6,116.5,498.5,117.1,498.5,117.6z"/>
		</g>
	</g>
</g>
</svg>
